<svg xmlns="http://www.w3.org/2000/svg">
<defs>
<font id="HelveticaNeueLTW1G-BdCnO" horiz-adv-x="500" >
  <font-face 
    font-family="HelveticaNeueLT W1G 57 Cn"
    font-weight="700"
    font-stretch="condensed"
    units-per-em="1000"
    panose-1="2 11 7 6 3 5 2 3 2 4"
    ascent="714"
    descent="-286"
    x-height="538"
    cap-height="712"
    bbox="-170 -253 1113.73 954"
    underline-thickness="50"
    underline-position="-100"
    stemh="106"
    stemv="138"
    unicode-range="U+000D-FB04"
  />
<missing-glyph horiz-adv-x="512" 
d="M278 117h-56v67h56v-67zM271 234h-46l-2 17c0 37 4 64 13 81s24 37 46 59c43 41 50 58 50 83c0 48 -35 85 -76 85s-74 -27 -82 -95l-50 8c9 95 63 137 135 137c71 0 124 -52 124 -131c0 -43 -12 -73 -63 -120c-25 -22 -39 -39 -43 -52s-6 -37 -6 -72zM50 50h412v617h-412
v-617zM0 718h512v-718h-512v718z" />
    <glyph glyph-name="napostrophe" unicode="&#x22;n" horiz-adv-x="636" 
d="M182 0l111 538h132l-13 -63h2c40 53 94 77 153 77c87 0 127 -46 105 -153l-82 -399h-138l77 371c11 55 -3 75 -44 75c-49 0 -79 -30 -91 -89l-74 -357h-138zM273 714l-27 -130c-21 -107 -63 -180 -172 -191l15 70c36 7 60 42 68 79l4 16h-52l32 156h132z" />
    <glyph glyph-name="IJ" unicode="IJ" horiz-adv-x="720" 
d="M201 0h-144l148 714h144zM680 714h144l-107 -514c-32 -152 -114 -214 -259 -214c-151 0 -168 97 -146 209l6 31h132l-4 -22c-14 -76 -11 -112 41 -112s71 36 87 112z" />
    <glyph glyph-name="ij" unicode="ij" horiz-adv-x="480" 
d="M176 604l25 118h138l-25 -118h-138zM51 0l111 538h138l-111 -538h-138zM416 604l25 118h138l-25 -118h-138zM293 10l109 528h138l-119 -575c-19 -91 -63 -139 -186 -139c-16 0 -36 1 -56 2l21 100s8 -2 22 -2c48 0 57 26 71 86z" />
    <glyph glyph-name="fi" unicode="fi" horiz-adv-x="537" 
d="M473 604l25 118h138l-25 -118h-138zM348 0l111 538h138l-111 -538h-138zM76 0l92 444h-70l19 94h70l13 61c20 97 82 129 171 129c25 0 49 -1 73 -3l-20 -98s-13 1 -27 1c-39 0 -55 -12 -62 -43l-10 -47h80l-19 -94h-80l-92 -444h-138z" />
    <glyph glyph-name="fl" unicode="fl" horiz-adv-x="537" 
d="M348 0l150 722h138l-150 -722h-138zM76 0l92 444h-70l19 94h70l13 61c20 97 82 129 171 129c25 0 49 -1 73 -3l-20 -98s-13 1 -27 1c-39 0 -55 -12 -62 -43l-10 -47h80l-19 -94h-80l-92 -444h-138z" />
    <glyph glyph-name="f_f" unicode="ff" horiz-adv-x="582" 
d="M362 0l92 444h-148l-92 -444h-138l92 444h-70l19 94h70l13 61c20 97 82 129 171 129c25 0 49 -1 73 -3l-20 -98s-13 1 -27 1c-39 0 -55 -12 -62 -43l-10 -47h148l13 61c20 97 82 129 171 129c25 0 49 -1 73 -3l-20 -98s-13 1 -27 1c-39 0 -55 -12 -62 -43l-10 -47h80
l-19 -94h-80l-92 -444h-138z" />
    <glyph glyph-name="f_f_i" unicode="ffi" horiz-adv-x="822" 
d="M362 0l92 444h-148l-92 -444h-138l92 444h-70l19 94h70l13 61c20 97 82 129 171 129c25 0 49 -1 73 -3l-20 -98s-13 1 -27 1c-39 0 -55 -12 -62 -43l-10 -47h148l13 61c20 97 82 129 171 129c25 0 49 -1 73 -3l-20 -98s-13 1 -27 1c-39 0 -55 -12 -62 -43l-10 -47h80
l-19 -94h-80l-92 -444h-138zM758 604l25 118h138l-25 -118h-138zM633 0l111 538h138l-111 -538h-138z" />
    <glyph glyph-name="f_f_l" unicode="ffl" horiz-adv-x="822" 
d="M362 0l92 444h-148l-92 -444h-138l92 444h-70l19 94h70l13 61c20 97 82 129 171 129c25 0 49 -1 73 -3l-20 -98s-13 1 -27 1c-39 0 -55 -12 -62 -43l-10 -47h148l13 61c20 97 82 129 171 129c25 0 49 -1 73 -3l-20 -98s-13 1 -27 1c-39 0 -55 -12 -62 -43l-10 -47h80
l-19 -94h-80l-92 -444h-138zM633 0l148 714h138l-148 -714h-138z" />
    <glyph glyph-name=".notdef" horiz-adv-x="512" 
d="M278 117h-56v67h56v-67zM271 234h-46l-2 17c0 37 4 64 13 81s24 37 46 59c43 41 50 58 50 83c0 48 -35 85 -76 85s-74 -27 -82 -95l-50 8c9 95 63 137 135 137c71 0 124 -52 124 -131c0 -43 -12 -73 -63 -120c-25 -22 -39 -39 -43 -52s-6 -37 -6 -72zM50 50h412v617h-412
v-617zM0 718h512v-718h-512v718z" />
    <glyph glyph-name=".null" 
 />
    <glyph glyph-name="CR" unicode="&#xd;" horiz-adv-x="0" 
 />
    <glyph glyph-name="space" unicode=" " horiz-adv-x="240" 
 />
    <glyph glyph-name="exclam" unicode="!" horiz-adv-x="296" 
d="M106 132h138l-27 -132h-138zM239 199h-100l40 283l48 232h138l-48 -232z" />
    <glyph glyph-name="quotedbl" unicode="&#x22;" horiz-adv-x="463" 
d="M153 393l67 321h124l-67 -321h-124zM348 393l67 321h124l-67 -321h-124z" />
    <glyph glyph-name="numbersign" unicode="#" horiz-adv-x="480" 
d="M283 408l-40 -122h97l41 122h-98zM36 174l23 112h87l41 122h-73l24 112h86l58 174h96l-57 -174h97l58 174h97l-58 -174h73l-24 -112h-86l-41 -122h73l-23 -112h-86l-58 -174h-97l58 174h-98l-57 -174h-97l58 174h-74z" />
    <glyph glyph-name="dollar" unicode="$" horiz-adv-x="480" 
d="M184 -101l18 87c-122 10 -162 62 -162 131c0 23 3 48 8 74l5 21h138c-13 -56 -18 -107 33 -120l42 202l-47 18c-89 35 -116 101 -97 192c27 123 109 191 230 204l14 69h64l-14 -69c144 -13 164 -100 145 -189l-3 -14h-138c11 51 5 86 -26 97l-40 -189l73 -32
c66 -32 109 -69 85 -181c-31 -144 -113 -205 -246 -214l-18 -87h-64zM296 442l34 160c-32 -9 -56 -33 -65 -76c-8 -36 2 -64 31 -84zM324 269l-36 -177c43 9 67 43 74 80c11 51 -3 77 -38 97z" />
    <glyph glyph-name="percent" unicode="%" horiz-adv-x="778" 
d="M133 -31l563 756h89l-563 -756h-89zM241 521c-17 -80 -21 -119 19 -119s52 39 69 119c15 72 19 111 -21 111s-52 -39 -67 -111zM134 517c27 129 66 191 190 191s137 -62 110 -191s-66 -191 -190 -191s-137 62 -110 191zM487 177c27 129 66 191 190 191s137 -62 110 -191
s-65 -191 -189 -191s-138 62 -111 191zM594 181c-16 -80 -21 -119 19 -119s53 39 69 119c15 72 19 111 -21 111s-52 -39 -67 -111z" />
    <glyph glyph-name="ampersand" unicode="&#x26;" horiz-adv-x="593" 
d="M398 380l76 -145c23 31 41 79 48 108h124c-16 -77 -61 -150 -117 -211l67 -132h-153l-29 55c-45 -43 -115 -69 -186 -69c-181 0 -194 126 -177 206c18 84 87 150 187 206l-17 37c-27 59 -29 88 -21 129c18 92 107 150 213 150c123 0 163 -66 147 -149
c-15 -72 -66 -125 -162 -185zM372 143l-84 170c-64 -43 -88 -77 -99 -121c-8 -44 16 -94 81 -94c38 0 72 15 102 45zM319 568c-4 -20 2 -46 19 -78l12 -24l31 22c37 27 56 53 61 78c8 39 -13 60 -50 60c-35 0 -66 -21 -73 -58z" />
    <glyph glyph-name="quotesingle" unicode="'" horiz-adv-x="260" 
d="M149 393l67 321h124l-67 -321h-124z" />
    <glyph glyph-name="parenleft" unicode="(" horiz-adv-x="296" 
d="M338 714h106c-114 -151 -171 -280 -207 -449c-36 -168 -30 -298 20 -449h-106c-65 157 -76 308 -46 449s102 292 233 449z" />
    <glyph glyph-name="parenright" unicode=")" horiz-adv-x="296" 
d="M148 714h106c67 -157 77 -308 47 -449s-102 -292 -234 -449h-105c115 152 171 280 207 449c37 170 30 296 -21 449z" />
    <glyph glyph-name="asterisk" unicode="*" horiz-adv-x="390" 
d="M302 714h82l-27 -128l131 40l8 -78l-130 -40l54 -104l-76 -48l-54 104l-96 -104l-58 48l98 104l-114 40l42 78l113 -40z" />
    <glyph glyph-name="plus" unicode="+" horiz-adv-x="600" 
d="M238 0l39 191h-191l26 124h191l40 191h124l-40 -191h191l-26 -124h-191l-39 -191h-124z" />
    <glyph glyph-name="comma" unicode="," horiz-adv-x="240" 
d="M86 156h132l-27 -130c-21 -107 -63 -180 -172 -191l15 70c36 7 60 42 68 79l4 16h-52z" />
    <glyph glyph-name="hyphen" unicode="-" horiz-adv-x="370" 
d="M116 348h282l-25 -118h-282z" />
    <glyph glyph-name="period" unicode="." horiz-adv-x="240" 
d="M86 156h132l-32 -156h-132z" />
    <glyph glyph-name="slash" unicode="/" horiz-adv-x="332" 
d="M-5 -14l379 742h112l-380 -742h-111z" />
    <glyph glyph-name="zero" unicode="0" horiz-adv-x="480" 
d="M86 330c40 196 91 378 301 378c173 0 201 -93 150 -344c-40 -196 -90 -378 -300 -378c-170 0 -204 93 -151 344zM240 376l-16 -77c-37 -179 -29 -219 32 -219c63 0 90 56 128 238l16 77c37 179 29 219 -33 219c-63 0 -89 -56 -127 -238z" />
    <glyph glyph-name="one" unicode="1" horiz-adv-x="480" 
d="M326 0h-144l103 500h-141l20 94h13c95 0 159 35 190 114h106z" />
    <glyph glyph-name="two" unicode="2" horiz-adv-x="480" 
d="M477 112l-23 -112h-436c27 126 95 212 220 310l69 54c75 59 92 89 108 162c12 59 -5 88 -52 88c-71 0 -93 -63 -109 -138h-138l6 27c27 132 111 205 263 205c143 0 197 -70 172 -193c-21 -92 -61 -151 -157 -225l-96 -74c-49 -39 -82 -77 -94 -104h267z" />
    <glyph glyph-name="three" unicode="3" horiz-adv-x="480" 
d="M63 207h138c-16 -83 -11 -127 52 -127c70 0 90 52 103 114c14 63 11 121 -68 121h-48l20 94h47c61 0 92 54 105 112c15 67 -3 93 -50 93c-61 0 -84 -48 -97 -115h-132c29 140 117 209 252 209c128 0 192 -57 166 -182c-18 -85 -69 -141 -141 -156v-2
c88 -15 109 -78 91 -167c-20 -96 -83 -215 -279 -215c-137 0 -188 82 -160 218z" />
    <glyph glyph-name="four" unicode="4" horiz-adv-x="480" 
d="M44 147l25 118l327 443h149l-94 -449h68l-23 -112h-68l-30 -147h-132l30 147h-252zM319 259l56 269h-2l-194 -269h140z" />
    <glyph glyph-name="five" unicode="5" horiz-adv-x="480" 
d="M569 694l-23 -112h-261l-49 -161h2c35 37 80 53 141 53c136 0 150 -114 126 -226c-32 -156 -99 -262 -281 -262c-134 0 -174 66 -174 132c0 23 2 45 6 65l3 19h138c-8 -47 -16 -116 46 -116c59 0 94 46 113 138c24 117 12 150 -52 150c-41 0 -68 -25 -81 -65h-129
l106 385h369z" />
    <glyph glyph-name="six" unicode="6" horiz-adv-x="480" 
d="M210 220c-16 -81 -18 -140 50 -140c70 0 91 60 107 140c20 96 6 134 -50 134c-57 0 -87 -38 -107 -134zM558 528h-138c12 55 1 86 -47 86c-76 0 -101 -77 -125 -180l-8 -35h2c32 37 83 61 146 61c125 0 153 -93 127 -221c-34 -163 -122 -253 -281 -253
c-196 0 -192 158 -155 331c43 200 85 391 320 391c102 0 186 -44 159 -180z" />
    <glyph glyph-name="seven" unicode="7" horiz-adv-x="480" 
d="M166 694h436l-23 -110c-152 -166 -265 -384 -329 -584h-151c56 170 162 382 339 570h-298z" />
    <glyph glyph-name="eight" unicode="8" horiz-adv-x="480" 
d="M199 202c-14 -68 -8 -122 57 -122s93 54 107 122c16 68 8 122 -56 122c-66 0 -92 -54 -108 -122zM277 517c-15 -67 6 -99 49 -99s76 32 91 99c13 65 -3 97 -50 97s-77 -32 -90 -97zM55 200c19 89 72 159 156 175l1 2c-72 19 -85 86 -74 136c29 139 120 195 249 195
s196 -56 167 -195c-11 -50 -50 -117 -130 -136l-1 -2c77 -16 103 -86 84 -175c-16 -81 -73 -214 -270 -214c-198 0 -198 133 -182 214z" />
    <glyph glyph-name="nine" unicode="9" horiz-adv-x="480" 
d="M256 474c-20 -96 -6 -134 50 -134c57 0 87 38 107 134c16 81 18 140 -50 140s-91 -60 -107 -140zM65 165h138c-11 -53 -1 -85 47 -85c76 0 105 76 126 180l7 34h-2c-32 -36 -83 -60 -146 -60c-125 0 -154 93 -127 221c35 163 123 253 282 253c198 0 189 -158 154 -331
c-44 -201 -84 -391 -319 -391c-101 0 -187 43 -160 179z" />
    <glyph glyph-name="colon" unicode=":" horiz-adv-x="240" 
d="M129 365l33 156h132l-33 -156h-132zM54 0l32 156h132l-32 -156h-132z" />
    <glyph glyph-name="semicolon" unicode=";" horiz-adv-x="240" 
d="M162 521h132l-33 -156h-132zM86 156h132l-27 -130c-21 -107 -63 -180 -172 -191l15 70c36 7 60 42 68 79l4 16h-52z" />
    <glyph glyph-name="less" unicode="&#x3c;" horiz-adv-x="600" 
d="M88 200l22 106l549 208l-25 -124l-367 -137l310 -137l-26 -124z" />
    <glyph glyph-name="equal" unicode="=" horiz-adv-x="600" 
d="M64 82l25 124h506l-25 -124h-506zM109 300l26 124h506l-26 -124h-506z" />
    <glyph glyph-name="greater" unicode="&#x3e;" horiz-adv-x="600" 
d="M45 -8l26 124l366 137l-309 137l25 124l463 -208l-22 -106z" />
    <glyph glyph-name="question" unicode="?" horiz-adv-x="481" 
d="M189 132h138l-27 -132h-138zM270 493h-132l5 23c24 120 110 206 241 206c140 0 195 -76 170 -193c-11 -55 -35 -101 -95 -156l-49 -45c-43 -39 -62 -64 -73 -115l-3 -15h-124l3 18c16 88 44 127 99 178l47 43c34 32 52 66 60 106c11 51 -5 85 -50 85
c-51 0 -79 -45 -94 -110z" />
    <glyph glyph-name="at" unicode="@" horiz-adv-x="800" 
d="M623 488l24 53h88l-110 -250c-8 -19 -12 -34 -15 -41c-2 -13 3 -20 16 -20c39 0 118 69 140 174c27 133 -78 230 -218 230c-158 0 -304 -134 -333 -278c-32 -153 73 -276 225 -276c92 0 170 31 230 64h89c-91 -100 -211 -158 -362 -158c-205 0 -337 166 -294 371
s243 371 448 371c201 0 345 -120 308 -303c-44 -212 -246 -286 -311 -286c-39 0 -58 18 -54 53h-2c-31 -28 -78 -53 -131 -53c-72 0 -131 63 -110 170c24 122 135 246 265 246c51 0 88 -20 107 -67zM366 326c-9 -44 11 -81 54 -81c69 0 129 69 143 128c9 43 -18 76 -59 76
c-63 0 -128 -68 -138 -123z" />
    <glyph glyph-name="A" unicode="A" horiz-adv-x="556" 
d="M399 590l-136 -321h140l-2 321h-2zM0 0l337 714h178l41 -714h-150l-2 151h-190l-64 -151h-150z" />
    <glyph glyph-name="B" unicode="B" horiz-adv-x="556" 
d="M260 321l-44 -215h56c69 0 121 25 138 108c16 83 -24 107 -88 107h-62zM320 608l-39 -187h41c80 0 120 26 135 94s-13 93 -85 93h-52zM50 0l148 714h241c117 0 194 -44 165 -181c-16 -77 -64 -136 -140 -156l-1 -2c77 -11 116 -70 96 -166c-24 -112 -98 -209 -266 -209
h-243z" />
    <glyph glyph-name="C" unicode="C" horiz-adv-x="537" 
d="M597 473h-144c21 104 10 149 -55 149c-73 0 -104 -72 -147 -275c-45 -216 -22 -255 39 -255c52 0 95 26 127 181h144c-32 -155 -97 -287 -286 -287c-216 0 -212 154 -166 371s103 371 320 371c205 0 189 -151 168 -255z" />
    <glyph glyph-name="D" unicode="D" horiz-adv-x="574" 
d="M327 608l-104 -502h64c100 0 133 63 173 257c34 162 38 245 -72 245h-61zM57 0l148 714h236c200 0 207 -136 164 -347c-53 -252 -129 -367 -321 -367h-227z" />
    <glyph glyph-name="E" unicode="E" horiz-adv-x="481" 
d="M198 714h399l-25 -118h-255l-35 -168h240l-24 -118h-240l-40 -192h265l-24 -118h-409z" />
    <glyph glyph-name="F" unicode="F" horiz-adv-x="463" 
d="M50 0l148 714h399l-25 -118h-255l-35 -168h240l-24 -118h-240l-64 -310h-144z" />
    <glyph glyph-name="G" unicode="G" horiz-adv-x="556" 
d="M609 502h-138c3 13 4 27 4 41c0 41 -18 79 -61 79c-69 0 -112 -71 -150 -250c-36 -172 -41 -280 41 -280c34 0 96 37 112 114l16 73h-95l22 106h233l-80 -385h-106l13 66h-2c-45 -56 -98 -80 -166 -80c-177 0 -185 132 -134 379c50 240 131 363 316 363
c158 0 205 -81 175 -226z" />
    <glyph glyph-name="H" unicode="H" horiz-adv-x="556" 
d="M50 0l148 714h144l-57 -273h168l57 273h144l-148 -714h-144l65 317h-168l-65 -317h-144z" />
    <glyph glyph-name="I" unicode="I" horiz-adv-x="258" 
d="M201 0h-144l148 714h144z" />
    <glyph glyph-name="J" unicode="J" horiz-adv-x="463" 
d="M423 714h144l-107 -514c-32 -152 -114 -214 -259 -214c-151 0 -168 97 -146 209l6 31h132l-4 -22c-14 -76 -11 -112 41 -112s71 36 87 112z" />
    <glyph glyph-name="K" unicode="K" horiz-adv-x="537" 
d="M198 714h144l-60 -286h2l242 286h156l-258 -306l132 -408h-162l-87 293l-69 -81l-44 -212h-144z" />
    <glyph glyph-name="L" unicode="L" horiz-adv-x="463" 
d="M449 0h-399l148 714h144l-124 -596h255z" />
    <glyph glyph-name="M" unicode="M" horiz-adv-x="740" 
d="M53 0l148 714h214l-3 -504h2l208 504h213l-148 -714h-132l118 570h-2l-245 -570h-112l-9 570h-2l-118 -570h-132z" />
    <glyph glyph-name="N" unicode="N" horiz-adv-x="574" 
d="M198 714h166l72 -489h2l102 489h132l-148 -714h-164l-73 500h-2l-103 -500h-132z" />
    <glyph glyph-name="O" unicode="O" horiz-adv-x="556" 
d="M253 357c-40 -192 -41 -265 44 -265s114 73 154 265c40 191 41 265 -44 265c-86 0 -114 -74 -154 -265zM109 357c46 217 103 371 320 371c216 0 212 -154 166 -371s-103 -371 -320 -371c-216 0 -212 154 -166 371z" />
    <glyph glyph-name="P" unicode="P" horiz-adv-x="519" 
d="M320 608l-45 -217h64c57 0 103 34 118 107c15 71 -5 110 -77 110h-60zM50 0l148 714h252c146 0 175 -107 151 -214c-29 -149 -136 -215 -271 -215h-77l-59 -285h-144z" />
    <glyph glyph-name="Q" unicode="Q" horiz-adv-x="556" 
d="M253 357c-40 -192 -41 -265 44 -265s114 73 154 265c40 191 41 265 -44 265c-86 0 -114 -74 -154 -265zM540 -11l-101 -77l-66 88c-29 -10 -61 -14 -98 -14c-216 0 -212 154 -166 371s103 371 320 371c216 0 212 -154 166 -371c-25 -121 -53 -222 -116 -290z" />
    <glyph glyph-name="R" unicode="R" horiz-adv-x="556" 
d="M50 0l148 714h266c119 0 177 -61 152 -184c-20 -96 -71 -159 -156 -176v-2c96 -13 98 -67 69 -218c-15 -76 -18 -113 6 -128l-1 -6h-156c-11 20 -8 47 -3 75l25 137c10 56 -8 90 -67 90h-77l-62 -302h-144zM320 608l-43 -206h60c69 0 114 30 130 107c14 66 -12 99 -79 99
h-68z" />
    <glyph glyph-name="S" unicode="S" horiz-adv-x="519" 
d="M68 223h144l-5 -21c-11 -60 -6 -110 73 -110c44 0 91 28 104 88c8 41 3 72 -43 95l-92 45c-92 46 -132 92 -110 198c29 140 128 210 265 210c129 0 208 -55 181 -192l-4 -20h-138c15 68 0 106 -56 106c-65 0 -90 -40 -99 -83c-10 -44 -2 -72 53 -97l101 -48
c99 -48 116 -101 97 -189c-31 -151 -137 -219 -293 -219c-163 0 -212 76 -184 208z" />
    <glyph glyph-name="T" unicode="T" horiz-adv-x="480" 
d="M160 714h456l-25 -118h-156l-123 -596h-144l123 596h-156z" />
    <glyph glyph-name="U" unicode="U" horiz-adv-x="538" 
d="M189 714h144l-104 -498c-15 -71 -9 -124 59 -124c67 0 94 53 109 124l104 498h144l-104 -498c-37 -181 -158 -230 -275 -230c-116 0 -221 39 -181 230z" />
    <glyph glyph-name="V" unicode="V" horiz-adv-x="519" 
d="M151 714h154l-9 -528h3l216 528h149l-312 -714h-185z" />
    <glyph glyph-name="W" unicode="W" horiz-adv-x="760" 
d="M138 0l18 714h138l-31 -528h2l194 528h138l-26 -528h2l189 528h138l-278 -714h-161l27 518h-2l-187 -518h-161z" />
    <glyph glyph-name="X" unicode="X" horiz-adv-x="537" 
d="M259 361l-91 353h159l44 -231l139 231h157l-239 -353l103 -361h-162l-53 242l-152 -242h-158z" />
    <glyph glyph-name="Y" unicode="Y" horiz-adv-x="520" 
d="M151 714h162l37 -276h2l157 276h156l-275 -433l-58 -281h-144l58 281z" />
    <glyph glyph-name="Z" unicode="Z" horiz-adv-x="481" 
d="M24 0l21 105l365 491h-245l25 118h411l-23 -109l-368 -487h271l-24 -118h-433z" />
    <glyph glyph-name="bracketleft" unicode="[" horiz-adv-x="315" 
d="M41 -184l187 898h229l-21 -100h-105l-145 -698h105l-21 -100h-229z" />
    <glyph glyph-name="backslash" unicode="\" horiz-adv-x="332" 
d="M220 -14l-72 742h112l72 -742h-112z" />
    <glyph glyph-name="bracketright" unicode="]" horiz-adv-x="315" 
d="M-32 -184l21 100h104l145 698h-105l21 100h229l-187 -898h-228z" />
    <glyph glyph-name="asciicircum" unicode="^" horiz-adv-x="600" 
d="M244 309h-124l268 385h112l108 -385h-124l-69 247z" />
    <glyph glyph-name="underscore" unicode="_" 
d="M474 -125h-499l10 50h499z" />
    <glyph glyph-name="grave" unicode="`" horiz-adv-x="222" 
d="M299 602h-94l-68 144h138z" />
    <glyph glyph-name="a" unicode="a" horiz-adv-x="481" 
d="M330 163l22 110c-21 -15 -35 -21 -59 -29l-29 -10c-46 -15 -64 -41 -72 -79c-9 -41 -1 -75 38 -75s88 23 100 83zM246 373h-124l3 13c27 124 119 166 223 166c165 0 181 -68 161 -165l-59 -283c-10 -50 -12 -73 -4 -104h-132c-7 17 -6 37 -6 56h-2
c-41 -53 -86 -70 -151 -70c-95 0 -114 82 -98 154c22 102 70 141 171 168l82 21c43 11 61 27 68 63c9 41 -3 66 -50 66c-43 0 -70 -27 -79 -70z" />
    <glyph glyph-name="b" unicode="b" 
d="M46 0l148 714h138l-47 -226h2c39 43 77 64 129 64c113 0 147 -83 106 -283s-110 -283 -223 -283c-55 0 -88 20 -108 71h-2l-11 -57h-132zM239 269c-24 -117 -24 -177 37 -177c60 0 84 60 108 177c25 117 25 177 -35 177c-61 0 -85 -60 -110 -177z" />
    <glyph glyph-name="c" unicode="c" horiz-adv-x="463" 
d="M508 344h-132c11 52 12 108 -40 108c-69 0 -90 -60 -117 -184c-27 -133 -27 -188 35 -188c47 0 74 38 93 126h132c-29 -141 -103 -220 -250 -220c-137 0 -193 67 -148 283c45 221 150 283 277 283s175 -81 150 -208z" />
    <glyph glyph-name="d" unicode="d" 
d="M322 0l11 57h-2c-40 -51 -81 -71 -136 -71c-113 0 -148 83 -107 283s111 283 224 283c52 0 83 -21 103 -64h2l47 226h138l-148 -714h-132zM226 269c-24 -117 -24 -177 36 -177c61 0 85 60 109 177c25 117 25 177 -36 177c-60 0 -84 -60 -109 -177z" />
    <glyph glyph-name="e" unicode="e" horiz-adv-x="463" 
d="M232 330h141c13 82 14 128 -43 128c-55 0 -83 -56 -94 -107zM488 248h-273l-9 -43c-13 -64 -9 -125 42 -125c47 0 71 34 94 101h124c-31 -125 -104 -195 -235 -195c-200 0 -176 154 -149 288c29 144 86 278 272 278c160 0 176 -108 141 -273z" />
    <glyph glyph-name="f" unicode="f" horiz-adv-x="296" 
d="M76 0l92 444h-70l19 94h70l13 61c20 97 82 129 171 129c25 0 49 -1 73 -3l-20 -98s-13 1 -27 1c-39 0 -55 -12 -62 -43l-10 -47h80l-19 -94h-80l-92 -444h-138z" />
    <glyph glyph-name="g" unicode="g" 
d="M225 252c-16 -74 -18 -140 40 -140c57 0 88 63 107 154c27 131 20 180 -35 180c-61 0 -82 -49 -112 -194zM428 538h132l-106 -511c-29 -143 -107 -211 -268 -211c-117 0 -172 52 -153 144h132c-7 -33 23 -56 56 -56c56 0 84 41 96 97l14 71h-2c-36 -40 -84 -66 -128 -66
c-110 0 -149 76 -109 272c27 126 75 274 226 274c39 0 81 -18 96 -74h2z" />
    <glyph glyph-name="h" unicode="h" 
d="M46 0l148 714h138l-48 -231h2c35 47 86 69 145 69c87 0 127 -46 105 -153l-82 -399h-138l77 371c11 55 -3 75 -44 75c-49 0 -79 -30 -91 -89l-74 -357h-138z" />
    <glyph glyph-name="i" unicode="i" horiz-adv-x="240" 
d="M176 604l25 118h138l-25 -118h-138zM51 0l111 538h138l-111 -538h-138z" />
    <glyph glyph-name="j" unicode="j" horiz-adv-x="240" 
d="M176 604l25 118h138l-25 -118h-138zM53 10l109 528h138l-119 -575c-19 -91 -63 -139 -186 -139c-16 0 -36 1 -56 2l21 100s8 -2 22 -2c48 0 57 26 71 86z" />
    <glyph glyph-name="k" unicode="k" 
d="M199 714h138l-78 -377h2l180 201h152l-199 -212l111 -326h-152l-70 221l-62 -64l-32 -157h-138z" />
    <glyph glyph-name="l" unicode="l" horiz-adv-x="240" 
d="M51 0l148 714h138l-148 -714h-138z" />
    <glyph glyph-name="m" unicode="m" horiz-adv-x="758" 
d="M46 0l111 538h132l-11 -55h2c45 49 91 69 150 69c64 0 103 -30 106 -86h2c33 57 89 86 154 86c92 0 123 -57 101 -161l-81 -391h-138l78 376c9 45 -1 70 -40 70c-44 0 -78 -29 -91 -92l-73 -354h-138l78 376c9 45 -1 70 -40 70c-44 0 -78 -29 -91 -92l-73 -354h-138z" />
    <glyph glyph-name="n" unicode="n" 
d="M46 0l111 538h132l-13 -63h2c40 53 94 77 153 77c87 0 127 -46 105 -153l-82 -399h-138l77 371c11 55 -3 75 -44 75c-49 0 -79 -30 -91 -89l-74 -357h-138z" />
    <glyph glyph-name="o" unicode="o" horiz-adv-x="480" 
d="M221 269c-22 -110 -34 -189 35 -189c56 0 86 54 113 189c28 135 22 189 -34 189c-69 0 -90 -79 -114 -189zM83 269c40 184 113 283 271 283c166 3 193 -96 153 -283c-37 -184 -112 -283 -270 -283c-168 -3 -192 95 -154 283z" />
    <glyph glyph-name="p" unicode="p" 
d="M9 -176l148 714h132l-11 -57h2c40 51 81 71 136 71c113 0 147 -83 106 -283s-110 -283 -223 -283c-52 0 -83 21 -103 64h-2l-47 -226h-138zM239 269c-24 -117 -24 -177 37 -177c60 0 84 60 108 177c25 117 25 177 -35 177c-61 0 -85 -60 -110 -177z" />
    <glyph glyph-name="q" unicode="q" 
d="M279 -176l47 226h-2c-39 -43 -77 -64 -129 -64c-113 0 -148 83 -107 283s111 283 224 283c55 0 88 -20 108 -71h2l11 57h132l-148 -714h-138zM371 269c25 117 25 177 -36 177c-60 0 -84 -60 -109 -177c-24 -117 -24 -177 36 -177c61 0 85 60 109 177z" />
    <glyph glyph-name="r" unicode="r" horiz-adv-x="333" 
d="M46 0l111 538h132l-15 -72h2c39 52 85 86 142 86c8 0 17 -1 25 -2l-28 -132c-13 1 -27 2 -42 2c-48 0 -106 -25 -122 -97l-67 -323h-138z" />
    <glyph glyph-name="s" unicode="s" horiz-adv-x="444" 
d="M59 176h124l-4 -18c-9 -47 9 -78 56 -78c43 0 74 21 83 64c8 35 -12 51 -37 61l-90 35c-71 28 -99 74 -83 150c19 88 89 162 231 162c125 0 170 -55 152 -153l-4 -22h-124c11 55 1 81 -44 81c-35 0 -69 -19 -77 -58c-7 -27 4 -47 47 -63l77 -28c81 -29 104 -73 87 -154
c-24 -113 -119 -169 -235 -169c-156 0 -184 67 -163 171z" />
    <glyph glyph-name="t" unicode="t" horiz-adv-x="296" 
d="M187 538l32 154h138l-32 -154h80l-19 -94h-80l-61 -291c-8 -43 -3 -59 37 -59c11 0 22 1 31 2l-19 -96c-31 -3 -60 -6 -92 -6c-108 0 -121 34 -98 142l64 308h-70l19 94h70z" />
    <glyph glyph-name="u" unicode="u" 
d="M322 0l13 63h-2c-40 -53 -94 -77 -153 -77c-87 0 -129 46 -106 153l83 399h138l-77 -371c-11 -55 3 -75 44 -75c49 0 79 30 91 89l74 357h138l-111 -538h-132z" />
    <glyph glyph-name="v" unicode="v" horiz-adv-x="444" 
d="M259 153l153 385h138l-246 -538h-160l-28 538h144l-3 -385h2z" />
    <glyph glyph-name="w" unicode="w" horiz-adv-x="704" 
d="M124 0l-6 538h138l-16 -382h2l146 382h150l-8 -382h2l144 382h132l-227 -538h-157l8 382h-2l-146 -382h-160z" />
    <glyph glyph-name="x" unicode="x" horiz-adv-x="462" 
d="M309 376l107 162h144l-194 -261l89 -277h-144l-44 176l-116 -176h-144l203 277l-86 261h144z" />
    <glyph glyph-name="y" unicode="y" horiz-adv-x="444" 
d="M9 -176l21 103c12 -2 24 -3 36 -3c51 0 75 28 90 76l-40 538h144l3 -372h2l147 372h138l-234 -502c-87 -186 -123 -212 -251 -212h-56z" />
    <glyph glyph-name="z" unicode="z" horiz-adv-x="426" 
d="M24 0l22 106l281 320h-205l23 112h368l-22 -106l-281 -320h215l-23 -112h-378z" />
    <glyph glyph-name="braceleft" unicode="{" horiz-adv-x="315" 
d="M76 224l17 82c33 0 72 34 83 81l40 193c19 85 64 134 132 134h89l-21 -100h-30c-32 0 -46 -33 -54 -72l-34 -166c-13 -60 -51 -102 -95 -110l-1 -2c43 -8 62 -50 50 -110l-35 -166c-8 -39 -8 -72 24 -72h30l-21 -100h-89c-68 0 -95 49 -76 134l40 193c9 47 -16 81 -49 81
z" />
    <glyph glyph-name="bar" unicode="|" horiz-adv-x="222" 
d="M46 -14l154 742h124l-154 -742h-124z" />
    <glyph glyph-name="braceright" unicode="}" horiz-adv-x="315" 
d="M-12 -184l20 100h30c32 0 46 33 54 72l35 166c12 60 50 102 94 110l1 2c-43 8 -62 50 -49 110l34 166c8 39 8 72 -24 72h-30l21 100h89c68 0 95 -49 76 -134l-40 -193c-10 -47 16 -81 49 -81l-17 -82c-33 0 -72 -34 -83 -81l-40 -193c-19 -85 -64 -134 -132 -134h-88z
" />
    <glyph glyph-name="asciitilde" unicode="~" horiz-adv-x="600" 
d="M567 349l14 -106c-39 -51 -82 -86 -141 -86c-45 0 -76 14 -111 34c-50 29 -67 34 -88 34c-39 0 -87 -43 -104 -68l-14 106c39 51 82 86 141 86c35 0 70 -9 103 -29c49 -29 68 -39 96 -39c39 0 87 43 104 68z" />
    <glyph glyph-name="uni00A0" unicode="&#xa0;" horiz-adv-x="240" 
 />
    <glyph glyph-name="Agrave" unicode="&#xc0;" horiz-adv-x="556" 
d="M399 590l-136 -321h140l-2 321h-2zM0 0l337 714h178l41 -714h-150l-2 151h-190l-64 -151h-150zM477 756h-94l-68 144h138z" />
    <glyph glyph-name="Aacute" unicode="&#xc1;" horiz-adv-x="556" 
d="M399 590l-136 -321h140l-2 321h-2zM0 0l337 714h178l41 -714h-150l-2 151h-190l-64 -151h-150zM375 756l84 144h138l-128 -144h-94z" />
    <glyph glyph-name="Acircumflex" unicode="&#xc2;" horiz-adv-x="556" 
d="M399 590l-136 -321h140l-2 321h-2zM0 0l337 714h178l41 -714h-150l-2 151h-190l-64 -151h-150zM285 756l108 144h144l48 -144h-106l-28 85l-66 -85h-100z" />
    <glyph glyph-name="Atilde" unicode="&#xc3;" horiz-adv-x="556" 
d="M399 590l-136 -321h140l-2 321h-2zM0 0l337 714h178l41 -714h-150l-2 151h-190l-64 -151h-150zM323 765h-70c28 79 68 124 119 124c41 0 72 -34 114 -34c19 0 33 23 36 36h72c-23 -71 -68 -124 -119 -124c-43 0 -80 34 -112 34c-16 0 -29 -12 -40 -36z" />
    <glyph glyph-name="Adieresis" unicode="&#xc4;" horiz-adv-x="556" 
d="M399 590l-136 -321h140l-2 321h-2zM0 0l337 714h178l41 -714h-150l-2 151h-190l-64 -151h-150zM466 769l25 118h112l-25 -118h-112zM294 769l25 118h112l-25 -118h-112z" />
    <glyph glyph-name="Amacron" unicode="&#x100;" horiz-adv-x="556" 
d="M399 590l-136 -321h140l-2 321h-2zM0 0l337 714h178l41 -714h-150l-2 151h-190l-64 -151h-150zM299 866h294l-16 -76h-294z" />
    <glyph glyph-name="Abreve" unicode="&#x102;" horiz-adv-x="556" 
d="M399 590l-136 -321h140l-2 321h-2zM0 0l337 714h178l41 -714h-150l-2 151h-190l-64 -151h-150zM311 899h65c-4 -39 22 -65 61 -65s75 26 87 65h65c-13 -53 -59 -141 -168 -141c-108 0 -121 88 -110 141z" />
    <glyph glyph-name="Aring" unicode="&#xc5;" horiz-adv-x="556" 
d="M399 590l-136 -321h140l-2 321h-2zM0 0l337 714h178l41 -714h-150l-2 151h-190l-64 -151h-150zM394 844c-7 -39 10 -58 46 -58c32 0 63 26 70 58c7 40 -10 58 -46 58c-32 0 -63 -26 -70 -58zM338 844c14 66 75 110 138 110c61 0 104 -42 90 -110
c-13 -65 -77 -108 -138 -108s-105 42 -90 108z" />
    <glyph glyph-name="Aringacute" unicode="&#x1fa;" horiz-adv-x="556" 
d="M329 737c13 59 67 100 124 100s96 -41 83 -100c-5 -21 -14 -39 -27 -54l47 -683h-150l-1 151h-190l-65 -151h-151l334 681c-7 15 -9 34 -4 56zM394 548l-129 -279h140l-9 279h-2zM604 954l-100 -96h-96l68 96h128zM380 737c-6 -29 11 -52 41 -52s57 23 63 52
s-11 50 -41 50s-57 -21 -63 -50z" />
    <glyph glyph-name="Aogonek" unicode="&#x104;" horiz-adv-x="556" 
d="M445 -132l36 -43c-48 -33 -79 -42 -124 -42c-74 0 -90 43 -82 83c12 48 56 85 131 134l-2 151h-190l-64 -151h-150l337 714h178l41 -714h-87c-37 -34 -60 -57 -71 -69c-20 -24 -29 -38 -33 -55c-5 -17 6 -28 25 -28c17 0 28 4 55 20zM399 590l-136 -321h140l-2 321h-2z
" />
    <glyph glyph-name="AE" unicode="&#xc6;" horiz-adv-x="759" 
d="M289 269h120l70 333h-9zM-5 0l417 714h463l-25 -118h-235l-35 -168h220l-24 -118h-220l-40 -192h245l-24 -118h-383l31 151h-159l-81 -151h-150z" />
    <glyph glyph-name="AEacute" unicode="&#x1fc;" horiz-adv-x="759" 
d="M289 269h120l70 333h-9zM-5 0l417 714h463l-25 -118h-235l-35 -168h220l-24 -118h-220l-40 -192h245l-24 -118h-383l31 151h-159l-81 -151h-150zM554 778l84 144h138l-128 -144h-94z" />
    <glyph glyph-name="Cacute" unicode="&#x106;" horiz-adv-x="537" 
d="M597 473h-144c21 104 10 149 -55 149c-73 0 -104 -72 -147 -275c-45 -216 -22 -255 39 -255c52 0 95 26 127 181h144c-32 -155 -97 -287 -286 -287c-216 0 -212 154 -166 371s103 371 320 371c205 0 189 -151 168 -255zM380 756l84 144h138l-128 -144h-94z" />
    <glyph glyph-name="Ccircumflex" unicode="&#x108;" horiz-adv-x="537" 
d="M597 473h-144c21 104 10 149 -55 149c-73 0 -104 -72 -147 -275c-45 -216 -22 -255 39 -255c52 0 95 26 127 181h144c-32 -155 -97 -287 -286 -287c-216 0 -212 154 -166 371s103 371 320 371c205 0 189 -151 168 -255zM282 756l108 144h144l48 -144h-106l-28 85l-66 -85
h-100z" />
    <glyph glyph-name="Ccaron" unicode="&#x10c;" horiz-adv-x="537" 
d="M597 473h-144c21 104 10 149 -55 149c-73 0 -104 -72 -147 -275c-45 -216 -22 -255 39 -255c52 0 95 26 127 181h144c-32 -155 -97 -287 -286 -287c-216 0 -212 154 -166 371s103 371 320 371c205 0 189 -151 168 -255zM360 756l-48 144h106l29 -85l65 85h100l-108 -144
h-144z" />
    <glyph glyph-name="Cdotaccent" unicode="&#x10a;" horiz-adv-x="537" 
d="M597 473h-144c21 104 10 149 -55 149c-73 0 -104 -72 -147 -275c-45 -216 -22 -255 39 -255c52 0 95 26 127 181h144c-32 -155 -97 -287 -286 -287c-216 0 -212 154 -166 371s103 371 320 371c205 0 189 -151 168 -255zM401 887h112l-25 -118h-112z" />
    <glyph glyph-name="Ccedilla" unicode="&#xc7;" horiz-adv-x="537" 
d="M597 473h-144c21 104 10 149 -55 149c-73 0 -104 -72 -147 -275c-45 -216 -22 -255 39 -255c52 0 95 26 127 181h144c-24 -117 -66 -217 -166 -264c-28 -13 -61 -20 -100 -22l-38 -45c13 4 21 5 37 5c42 0 73 -23 63 -72c-13 -56 -65 -92 -146 -92c-37 0 -64 6 -95 19
l28 46c23 -12 41 -15 65 -15c28 0 53 16 58 32c5 20 -10 34 -37 34c-15 0 -23 -2 -35 -6l-18 20l65 74c-38 3 -68 12 -91 26c-86 57 -77 179 -42 344c46 217 103 371 320 371c205 0 189 -151 168 -255z" />
    <glyph glyph-name="Dcaron" unicode="&#x10e;" horiz-adv-x="574" 
d="M327 608l-104 -502h64c100 0 133 63 173 257c34 162 38 245 -72 245h-61zM57 0l148 714h236c200 0 207 -136 164 -347c-53 -252 -129 -367 -321 -367h-227zM328 756l-48 144h106l29 -85l65 85h100l-108 -144h-144z" />
    <glyph glyph-name="Dcroat" unicode="&#x110;" horiz-adv-x="574" 
d="M327 608l-39 -187h93l-22 -106h-93l-43 -209h64c100 0 133 63 173 257c34 162 38 245 -72 245h-61zM57 0l65 315h-57l22 106h57l61 293h236c200 0 207 -136 164 -347c-53 -252 -129 -367 -321 -367h-227z" />
    <glyph glyph-name="Eth" unicode="&#xd0;" horiz-adv-x="574" 
d="M327 608l-39 -187h93l-22 -106h-93l-43 -209h64c100 0 133 63 173 257c34 162 38 245 -72 245h-61zM57 0l65 315h-57l22 106h57l61 293h236c200 0 207 -136 164 -347c-53 -252 -129 -367 -321 -367h-227z" />
    <glyph glyph-name="Egrave" unicode="&#xc8;" horiz-adv-x="481" 
d="M198 714h399l-25 -118h-255l-35 -168h240l-24 -118h-240l-40 -192h265l-24 -118h-409zM462 756h-94l-68 144h138z" />
    <glyph glyph-name="Eacute" unicode="&#xc9;" horiz-adv-x="481" 
d="M198 714h399l-25 -118h-255l-35 -168h240l-24 -118h-240l-40 -192h265l-24 -118h-409zM346 756l84 144h138l-128 -144h-94z" />
    <glyph glyph-name="Ecircumflex" unicode="&#xca;" horiz-adv-x="481" 
d="M198 714h399l-25 -118h-255l-35 -168h240l-24 -118h-240l-40 -192h265l-24 -118h-409zM252 756l108 144h144l48 -144h-106l-28 85l-66 -85h-100z" />
    <glyph glyph-name="Ecaron" unicode="&#x11a;" horiz-adv-x="481" 
d="M198 714h399l-25 -118h-255l-35 -168h240l-24 -118h-240l-40 -192h265l-24 -118h-409zM323 756l-48 144h106l29 -85l65 85h100l-108 -144h-144z" />
    <glyph glyph-name="Edieresis" unicode="&#xcb;" horiz-adv-x="481" 
d="M198 714h399l-25 -118h-255l-35 -168h240l-24 -118h-240l-40 -192h265l-24 -118h-409zM432 769l25 118h112l-25 -118h-112zM260 769l25 118h112l-25 -118h-112z" />
    <glyph glyph-name="Emacron" unicode="&#x112;" horiz-adv-x="481" 
d="M198 714h399l-25 -118h-255l-35 -168h240l-24 -118h-240l-40 -192h265l-24 -118h-409zM272 866h294l-16 -76h-294z" />
    <glyph glyph-name="Ebreve" unicode="&#x114;" horiz-adv-x="481" 
d="M198 714h399l-25 -118h-255l-35 -168h240l-24 -118h-240l-40 -192h265l-24 -118h-409zM282 899h65c-4 -39 22 -65 61 -65s75 26 87 65h65c-13 -53 -59 -141 -168 -141c-108 0 -121 88 -110 141z" />
    <glyph glyph-name="uni018F" unicode="&#x18f;" horiz-adv-x="481" 
d="M355 726c134 0 202 -66 202 -194c0 -105 -55 -387 -134 -474c-45 -50 -107 -74 -190 -74c-170 0 -216 102 -189 244l2 10l38 186h317c9 45 14 86 14 111c0 62 -24 92 -72 92c-65 0 -91 -71 -104 -126h-143c30 130 97 225 259 225zM337 172c12 33 27 84 40 139h-181
l-11 -73c-10 -60 -29 -154 56 -154c57 0 79 40 96 88z" />
    <glyph glyph-name="uni018F" unicode="&#x4d8;" horiz-adv-x="481" 
d="M355 726c134 0 202 -66 202 -194c0 -105 -55 -387 -134 -474c-45 -50 -107 -74 -190 -74c-170 0 -216 102 -189 244l2 10l38 186h317c9 45 14 86 14 111c0 62 -24 92 -72 92c-65 0 -91 -71 -104 -126h-143c30 130 97 225 259 225zM337 172c12 33 27 84 40 139h-181
l-11 -73c-10 -60 -29 -154 56 -154c57 0 79 40 96 88z" />
    <glyph glyph-name="Eogonek" unicode="&#x118;" horiz-adv-x="481" 
d="M385 -132l36 -43c-48 -33 -79 -42 -124 -42c-74 0 -91 43 -82 83c11 48 56 85 131 134h-296l148 714h399l-25 -118h-255l-35 -168h240l-24 -118h-240l-40 -192h265l-24 -118h-50c-35 -32 -91 -73 -104 -124c-5 -17 6 -28 25 -28c17 0 28 4 55 20z" />
    <glyph glyph-name="Gcircumflex" unicode="&#x11c;" horiz-adv-x="556" 
d="M609 502h-138c3 13 4 27 4 41c0 41 -18 79 -61 79c-69 0 -112 -71 -150 -250c-36 -172 -41 -280 41 -280c34 0 96 37 112 114l16 73h-95l22 106h233l-80 -385h-106l13 66h-2c-45 -56 -98 -80 -166 -80c-177 0 -185 132 -134 379c50 240 131 363 316 363
c158 0 205 -81 175 -226zM287 756l108 144h144l48 -144h-106l-28 85l-66 -85h-100z" />
    <glyph glyph-name="Gbreve" unicode="&#x11e;" horiz-adv-x="556" 
d="M609 502h-138c3 13 4 27 4 41c0 41 -18 79 -61 79c-69 0 -112 -71 -150 -250c-36 -172 -41 -280 41 -280c34 0 96 37 112 114l16 73h-95l22 106h233l-80 -385h-106l13 66h-2c-45 -56 -98 -80 -166 -80c-177 0 -185 132 -134 379c50 240 131 363 316 363
c158 0 205 -81 175 -226zM320 899h65c-4 -39 22 -65 61 -65s75 26 87 65h65c-13 -53 -59 -141 -168 -141c-108 0 -121 88 -110 141z" />
    <glyph glyph-name="Gdotaccent" unicode="&#x120;" horiz-adv-x="556" 
d="M609 502h-138c3 13 4 27 4 41c0 41 -18 79 -61 79c-69 0 -112 -71 -150 -250c-36 -172 -41 -280 41 -280c34 0 96 37 112 114l16 73h-95l22 106h233l-80 -385h-106l13 66h-2c-45 -56 -98 -80 -166 -80c-177 0 -185 132 -134 379c50 240 131 363 316 363
c158 0 205 -81 175 -226zM405 887h112l-25 -118h-112z" />
    <glyph glyph-name="Gcommaaccent" unicode="&#x122;" horiz-adv-x="556" 
d="M609 502h-138c3 13 4 27 4 41c0 41 -18 79 -61 79c-69 0 -112 -71 -150 -250c-36 -172 -41 -280 41 -280c34 0 96 37 112 114l16 73h-95l22 106h233l-80 -385h-106l13 66h-2c-45 -56 -98 -80 -166 -80c-177 0 -185 132 -134 379c50 240 131 363 316 363
c158 0 205 -81 175 -226zM218 -50h112l-20 -97c-19 -88 -72 -104 -119 -106l7 36c24 7 39 18 47 49h-51z" />
    <glyph glyph-name="Hcircumflex" unicode="&#x124;" horiz-adv-x="556" 
d="M50 0l148 714h144l-57 -273h168l57 273h144l-148 -714h-144l65 317h-168l-65 -317h-144zM285 756l108 144h144l48 -144h-106l-28 85l-66 -85h-100z" />
    <glyph glyph-name="Hbar" unicode="&#x126;" horiz-adv-x="556" 
d="M50 0l148 714h144l-30 -146h168l30 146h144l-148 -714h-144l63 300h-168l-63 -300h-144zM282 420h168l18 87h-168z" />
    <glyph glyph-name="Igrave" unicode="&#xcc;" horiz-adv-x="258" 
d="M201 0h-144l148 714h144zM352 756h-94l-68 144h138z" />
    <glyph glyph-name="Iacute" unicode="&#xcd;" horiz-adv-x="258" 
d="M201 0h-144l148 714h144zM212 756l84 144h138l-128 -144h-94z" />
    <glyph glyph-name="Ibreve" unicode="&#x12c;" horiz-adv-x="258" 
d="M201 0h-144l148 714h144zM179 921h65c-4 -39 22 -65 61 -65s75 26 87 65h65c-13 -53 -59 -141 -168 -141c-108 0 -121 88 -110 141z" />
    <glyph glyph-name="Icircumflex" unicode="&#xce;" horiz-adv-x="258" 
d="M201 0h-144l148 714h144zM138 756l108 144h144l48 -144h-106l-28 85l-66 -85h-100z" />
    <glyph glyph-name="Itilde" unicode="&#x128;" horiz-adv-x="258" 
d="M201 0h-144l148 714h144zM190 765h-70c28 79 68 124 119 124c41 0 72 -34 114 -34c19 0 33 23 36 36h72c-23 -71 -68 -124 -119 -124c-43 0 -80 34 -112 34c-16 0 -29 -12 -40 -36z" />
    <glyph glyph-name="Idieresis" unicode="&#xcf;" horiz-adv-x="258" 
d="M201 0h-144l148 714h144zM314 769l25 118h112l-25 -118h-112zM142 769l25 118h112l-25 -118h-112z" />
    <glyph glyph-name="Imacron" unicode="&#x12a;" horiz-adv-x="258" 
d="M201 0h-144l148 714h144zM154 866h294l-16 -76h-294z" />
    <glyph glyph-name="Idotaccent" unicode="&#x130;" horiz-adv-x="258" 
d="M201 0h-144l148 714h144zM256 887h112l-25 -118h-112z" />
    <glyph glyph-name="Iogonek" unicode="&#x12e;" horiz-adv-x="258" 
d="M150 -132l36 -43c-48 -33 -79 -42 -124 -42c-74 0 -91 43 -82 83c11 48 56 85 131 134h-54l148 714h144l-148 -714h-27c-35 -32 -91 -73 -104 -124c-5 -17 6 -28 25 -28c17 0 28 4 55 20z" />
    <glyph glyph-name="Jcircumflex" unicode="&#x134;" horiz-adv-x="463" 
d="M423 714h144l-107 -514c-32 -152 -114 -214 -259 -214c-151 0 -168 97 -146 209l6 31h132l-4 -22c-14 -76 -11 -112 41 -112s71 36 87 112zM350 756l108 144h144l48 -144h-106l-28 85l-66 -85h-100z" />
    <glyph glyph-name="Kcommaaccent" unicode="&#x136;" horiz-adv-x="537" 
d="M198 714h144l-60 -286h2l242 286h156l-258 -306l132 -408h-162l-87 293l-69 -81l-44 -212h-144zM234 -50h112l-20 -97c-19 -88 -72 -104 -119 -106l7 36c24 7 39 18 47 49h-51z" />
    <glyph glyph-name="Lacute" unicode="&#x139;" horiz-adv-x="463" 
d="M449 0h-399l148 714h144l-124 -596h255zM227 756l84 144h138l-128 -144h-94z" />
    <glyph glyph-name="Lcaron" unicode="&#x13d;" horiz-adv-x="463" 
d="M449 0h-399l148 714h144l-124 -596h255zM361 570l60 144h122l-94 -144h-88z" />
    <glyph glyph-name="Lcommaaccent" unicode="&#x13b;" horiz-adv-x="463" 
d="M449 0h-399l148 714h144l-124 -596h255zM186 -50h112l-20 -97c-19 -88 -72 -104 -119 -106l7 36c24 7 39 18 47 49h-51z" />
    <glyph glyph-name="Lslash" unicode="&#x141;" horiz-adv-x="463" 
d="M50 0l53 256l-57 -31l22 106l57 31l73 352h144l-55 -262l143 79l-22 -106l-143 -79l-47 -228h255l-24 -118h-399z" />
    <glyph glyph-name="Ldot" unicode="&#x13f;" horiz-adv-x="463" 
d="M449 0h-399l148 714h144l-124 -596h255zM362 449h112l-25 -118h-112z" />
    <glyph glyph-name="Nacute" unicode="&#x143;" horiz-adv-x="574" 
d="M198 714h166l72 -489h2l102 489h132l-148 -714h-164l-73 500h-2l-103 -500h-132zM381 756l84 144h138l-128 -144h-94z" />
    <glyph glyph-name="Ncaron" unicode="&#x147;" horiz-adv-x="574" 
d="M198 714h166l72 -489h2l102 489h132l-148 -714h-164l-73 500h-2l-103 -500h-132zM365 756l-48 144h106l29 -85l65 85h100l-108 -144h-144z" />
    <glyph glyph-name="Ntilde" unicode="&#xd1;" horiz-adv-x="574" 
d="M198 714h166l72 -489h2l102 489h132l-148 -714h-164l-73 500h-2l-103 -500h-132zM353 765h-70c28 79 68 124 119 124c41 0 72 -34 114 -34c19 0 33 23 36 36h72c-23 -71 -68 -124 -119 -124c-43 0 -80 34 -112 34c-16 0 -29 -12 -40 -36z" />
    <glyph glyph-name="Ncommaaccent" unicode="&#x145;" horiz-adv-x="574" 
d="M198 714h166l72 -489h2l102 489h132l-148 -714h-164l-73 500h-2l-103 -500h-132zM223 -50h112l-20 -97c-19 -88 -72 -104 -119 -106l7 36c24 7 39 18 47 49h-51z" />
    <glyph glyph-name="Ograve" unicode="&#xd2;" horiz-adv-x="556" 
d="M253 357c-40 -192 -41 -265 44 -265s114 73 154 265c40 191 41 265 -44 265c-86 0 -114 -74 -154 -265zM109 357c46 217 103 371 320 371c216 0 212 -154 166 -371s-103 -371 -320 -371c-216 0 -212 154 -166 371zM485 756h-94l-68 144h138z" />
    <glyph glyph-name="Oacute" unicode="&#xd3;" horiz-adv-x="556" 
d="M253 357c-40 -192 -41 -265 44 -265s114 73 154 265c40 191 41 265 -44 265c-86 0 -114 -74 -154 -265zM109 357c46 217 103 371 320 371c216 0 212 -154 166 -371s-103 -371 -320 -371c-216 0 -212 154 -166 371zM372 756l84 144h138l-128 -144h-94z" />
    <glyph glyph-name="Ocircumflex" unicode="&#xd4;" horiz-adv-x="556" 
d="M253 357c-40 -192 -41 -265 44 -265s114 73 154 265c40 191 41 265 -44 265c-86 0 -114 -74 -154 -265zM109 357c46 217 103 371 320 371c216 0 212 -154 166 -371s-103 -371 -320 -371c-216 0 -212 154 -166 371zM289 756l108 144h144l48 -144h-106l-28 85l-66 -85h-100
z" />
    <glyph glyph-name="Otilde" unicode="&#xd5;" horiz-adv-x="556" 
d="M253 357c-40 -192 -41 -265 44 -265s114 73 154 265c40 191 41 265 -44 265c-86 0 -114 -74 -154 -265zM109 357c46 217 103 371 320 371c216 0 212 -154 166 -371s-103 -371 -320 -371c-216 0 -212 154 -166 371zM336 765h-70c28 79 68 124 119 124c41 0 72 -34 114 -34
c19 0 33 23 36 36h72c-23 -71 -68 -124 -119 -124c-43 0 -80 34 -112 34c-16 0 -29 -12 -40 -36z" />
    <glyph glyph-name="Odieresis" unicode="&#xd6;" horiz-adv-x="556" 
d="M253 357c-40 -192 -41 -265 44 -265s114 73 154 265c40 191 41 265 -44 265c-86 0 -114 -74 -154 -265zM109 357c46 217 103 371 320 371c216 0 212 -154 166 -371s-103 -371 -320 -371c-216 0 -212 154 -166 371zM459 769l25 118h112l-25 -118h-112zM287 769l25 118h112
l-25 -118h-112z" />
    <glyph glyph-name="Omacron" unicode="&#x14c;" horiz-adv-x="556" 
d="M253 357c-40 -192 -41 -265 44 -265s114 73 154 265c40 191 41 265 -44 265c-86 0 -114 -74 -154 -265zM109 357c46 217 103 371 320 371c216 0 212 -154 166 -371s-103 -371 -320 -371c-216 0 -212 154 -166 371zM303 866h294l-16 -76h-294z" />
    <glyph glyph-name="Obreve" unicode="&#x14e;" horiz-adv-x="556" 
d="M253 357c-40 -192 -41 -265 44 -265s114 73 154 265c40 191 41 265 -44 265c-86 0 -114 -74 -154 -265zM109 357c46 217 103 371 320 371c216 0 212 -154 166 -371s-103 -371 -320 -371c-216 0 -212 154 -166 371zM313 899h65c-4 -39 22 -65 61 -65s75 26 87 65h65
c-13 -53 -59 -141 -168 -141c-108 0 -121 88 -110 141z" />
    <glyph glyph-name="Ohungarumlaut" unicode="&#x150;" horiz-adv-x="556" 
d="M253 357c-40 -192 -41 -265 44 -265s114 73 154 265c40 191 41 265 -44 265c-86 0 -114 -74 -154 -265zM109 357c46 217 103 371 320 371c216 0 212 -154 166 -371s-103 -371 -320 -371c-216 0 -212 154 -166 371zM470 756l84 144h138l-128 -144h-94zM304 756l84 144h138
l-128 -144h-94z" />
    <glyph glyph-name="Oslash" unicode="&#xd8;" horiz-adv-x="556" 
d="M76 -30l45 70c-27 31 -38 75 -38 128c0 55 11 118 26 189c46 217 103 371 320 371c51 0 87 -8 116 -24l39 61l43 -21l-44 -70c27 -31 37 -74 37 -129c0 -53 -10 -117 -25 -188c-46 -217 -103 -371 -320 -371c-51 0 -89 8 -116 24l-39 -61zM473 505l-239 -376
c9 -25 30 -37 63 -37c85 0 114 73 154 265c12 61 21 109 24 148h-2zM230 209l239 377c-9 24 -29 36 -62 36c-86 0 -114 -74 -154 -265c-13 -63 -22 -111 -25 -148h2z" />
    <glyph glyph-name="Oslashacute" unicode="&#x1fe;" horiz-adv-x="556" 
d="M76 -30l45 70c-27 31 -38 75 -38 128c0 55 11 118 26 189c46 217 103 371 320 371c51 0 87 -8 116 -24l39 61l43 -21l-44 -70c27 -31 37 -74 37 -129c0 -53 -10 -117 -25 -188c-46 -217 -103 -371 -320 -371c-51 0 -89 8 -116 24l-39 -61zM473 505l-239 -376
c9 -25 30 -37 63 -37c85 0 114 73 154 265c12 61 21 109 24 148h-2zM230 209l239 377c-9 24 -29 36 -62 36c-86 0 -114 -74 -154 -265c-13 -63 -22 -111 -25 -148h2zM372 756l84 144h138l-128 -144h-94z" />
    <glyph glyph-name="OE" unicode="&#x152;" horiz-adv-x="778" 
d="M253 357c-40 -190 -43 -265 44 -265c85 0 102 64 145 265s50 265 -35 265c-88 0 -114 -75 -154 -265zM896 714l-25 -118h-242l-35 -168h227l-24 -118h-227l-40 -192h250l-24 -118h-373l8 41h-2c-24 -35 -85 -55 -134 -55c-209 0 -185 188 -145 379
c40 185 104 363 292 363c50 0 103 -12 119 -52h2l8 38h365z" />
    <glyph glyph-name="Racute" unicode="&#x154;" horiz-adv-x="556" 
d="M50 0l148 714h266c119 0 177 -61 152 -184c-20 -96 -71 -159 -156 -176v-2c96 -13 98 -67 69 -218c-15 -76 -18 -113 6 -128l-1 -6h-156c-11 20 -8 47 -3 75l25 137c10 56 -8 90 -67 90h-77l-62 -302h-144zM320 608l-43 -206h60c69 0 114 30 130 107c14 66 -12 99 -79 99
h-68zM339 756l84 144h138l-128 -144h-94z" />
    <glyph glyph-name="Rcaron" unicode="&#x158;" horiz-adv-x="556" 
d="M50 0l148 714h266c119 0 177 -61 152 -184c-20 -96 -71 -159 -156 -176v-2c96 -13 98 -67 69 -218c-15 -76 -18 -113 6 -128l-1 -6h-156c-11 20 -8 47 -3 75l25 137c10 56 -8 90 -67 90h-77l-62 -302h-144zM320 608l-43 -206h60c69 0 114 30 130 107c14 66 -12 99 -79 99
h-68zM328 756l-48 144h106l29 -85l65 85h100l-108 -144h-144z" />
    <glyph glyph-name="Rcommaaccent" unicode="&#x156;" horiz-adv-x="556" 
d="M50 0l148 714h266c119 0 177 -61 152 -184c-20 -96 -71 -159 -156 -176v-2c96 -13 98 -67 69 -218c-15 -76 -18 -113 6 -128l-1 -6h-156c-11 20 -8 47 -3 75l25 137c10 56 -8 90 -67 90h-77l-62 -302h-144zM320 608l-43 -206h60c69 0 114 30 130 107c14 66 -12 99 -79 99
h-68zM226 -50h112l-20 -97c-19 -88 -72 -104 -119 -106l7 36c24 7 39 18 47 49h-51z" />
    <glyph glyph-name="Sacute" unicode="&#x15a;" horiz-adv-x="519" 
d="M68 223h144l-5 -21c-11 -60 -6 -110 73 -110c44 0 91 28 104 88c8 41 3 72 -43 95l-92 45c-92 46 -132 92 -110 198c29 140 128 210 265 210c129 0 208 -55 181 -192l-4 -20h-138c15 68 0 106 -56 106c-65 0 -90 -40 -99 -83c-10 -44 -2 -72 53 -97l101 -48
c99 -48 116 -101 97 -189c-31 -151 -137 -219 -293 -219c-163 0 -212 76 -184 208zM361 756l84 144h138l-128 -144h-94z" />
    <glyph glyph-name="Scircumflex" unicode="&#x15c;" horiz-adv-x="519" 
d="M68 223h144l-5 -21c-11 -60 -6 -110 73 -110c44 0 91 28 104 88c8 41 3 72 -43 95l-92 45c-92 46 -132 92 -110 198c29 140 128 210 265 210c129 0 208 -55 181 -192l-4 -20h-138c15 68 0 106 -56 106c-65 0 -90 -40 -99 -83c-10 -44 -2 -72 53 -97l101 -48
c99 -48 116 -101 97 -189c-31 -151 -137 -219 -293 -219c-163 0 -212 76 -184 208zM271 756l108 144h144l48 -144h-106l-28 85l-66 -85h-100z" />
    <glyph glyph-name="Scaron" unicode="&#x160;" horiz-adv-x="519" 
d="M68 223h144l-5 -21c-11 -60 -6 -110 73 -110c44 0 91 28 104 88c8 41 3 72 -43 95l-92 45c-92 46 -132 92 -110 198c29 140 128 210 265 210c129 0 208 -55 181 -192l-4 -20h-138c15 68 0 106 -56 106c-65 0 -90 -40 -99 -83c-10 -44 -2 -72 53 -97l101 -48
c99 -48 116 -101 97 -189c-31 -151 -137 -219 -293 -219c-163 0 -212 76 -184 208zM339 756l-48 144h106l29 -85l65 85h100l-108 -144h-144z" />
    <glyph glyph-name="Scedilla" unicode="&#x15e;" horiz-adv-x="519" 
d="M68 223h144l-5 -21c-11 -60 -6 -110 73 -110c44 0 91 28 104 88c8 41 3 72 -43 95l-92 45c-92 46 -132 92 -110 198c29 140 128 210 265 210c129 0 208 -55 181 -192l-4 -20h-138c15 68 0 106 -56 106c-65 0 -90 -40 -99 -83c-10 -44 -2 -72 53 -97l101 -48
c99 -48 116 -101 97 -189c-30 -142 -124 -210 -265 -218l-35 -45c13 4 21 5 37 5c42 0 73 -23 63 -72c-13 -56 -65 -92 -146 -92c-37 0 -64 6 -95 19l28 46c23 -12 41 -15 65 -15c28 0 53 16 58 32c5 20 -10 34 -37 34c-15 0 -23 -2 -35 -6l-18 20l61 74
c-142 8 -185 82 -158 207z" />
    <glyph glyph-name="Scommaaccent" unicode="&#x218;" horiz-adv-x="519" 
d="M68 223h144l-5 -21c-11 -60 -6 -110 73 -110c44 0 91 28 104 88c8 41 3 72 -43 95l-92 45c-92 46 -132 92 -110 198c29 140 128 210 265 210c129 0 208 -55 181 -192l-4 -20h-138c15 68 0 106 -56 106c-65 0 -90 -40 -99 -83c-10 -44 -2 -72 53 -97l101 -48
c99 -48 116 -101 97 -189c-31 -151 -137 -219 -293 -219c-163 0 -212 76 -184 208zM189 -50h112l-20 -97c-19 -88 -72 -104 -119 -106l7 36c24 7 39 18 47 49h-51z" />
    <glyph glyph-name="Tcaron" unicode="&#x164;" horiz-adv-x="480" 
d="M160 714h456l-25 -118h-156l-123 -596h-144l123 596h-156zM320 756l-48 144h106l29 -85l65 85h100l-108 -144h-144z" />
    <glyph glyph-name="Tcommaaccent" unicode="&#x162;" horiz-adv-x="480" 
d="M160 714h456l-25 -118h-156l-123 -596h-144l123 596h-156zM175 -50h112l-20 -97c-19 -88 -72 -104 -119 -106l7 36c24 7 39 18 47 49h-51z" />
    <glyph glyph-name="uni021A" unicode="&#x21a;" horiz-adv-x="480" 
d="M160 714h456l-25 -118h-156l-123 -596h-144l123 596h-156zM175 -50h112l-20 -97c-19 -88 -72 -104 -119 -106l7 36c24 7 39 18 47 49h-51z" />
    <glyph glyph-name="Tbar" unicode="&#x166;" horiz-adv-x="480" 
d="M160 714h456l-25 -118h-156l-27 -130h112l-13 -61h-112l-83 -405h-144l83 405h-111l14 61h110l27 130h-156z" />
    <glyph glyph-name="Thorn" unicode="&#xde;" horiz-adv-x="519" 
d="M293 480l-45 -217h64c57 0 103 34 118 107c15 71 -5 110 -77 110h-60zM50 0l148 714h144l-27 -128h108c147 0 173 -107 152 -214c-32 -148 -135 -215 -272 -215h-77l-32 -157h-144z" />
    <glyph glyph-name="Ugrave" unicode="&#xd9;" horiz-adv-x="538" 
d="M189 714h144l-104 -498c-15 -71 -9 -124 59 -124c67 0 94 53 109 124l104 498h144l-104 -498c-37 -181 -158 -230 -275 -230c-116 0 -221 39 -181 230zM469 756h-94l-68 144h138z" />
    <glyph glyph-name="Uacute" unicode="&#xda;" horiz-adv-x="538" 
d="M189 714h144l-104 -498c-15 -71 -9 -124 59 -124c67 0 94 53 109 124l104 498h144l-104 -498c-37 -181 -158 -230 -275 -230c-116 0 -221 39 -181 230zM375 756l84 144h138l-128 -144h-94z" />
    <glyph glyph-name="Ucircumflex" unicode="&#xdb;" horiz-adv-x="538" 
d="M189 714h144l-104 -498c-15 -71 -9 -124 59 -124c67 0 94 53 109 124l104 498h144l-104 -498c-37 -181 -158 -230 -275 -230c-116 0 -221 39 -181 230zM273 756l108 144h144l48 -144h-106l-28 85l-66 -85h-100z" />
    <glyph glyph-name="Utilde" unicode="&#x168;" horiz-adv-x="538" 
d="M189 714h144l-104 -498c-15 -71 -9 -124 59 -124c67 0 94 53 109 124l104 498h144l-104 -498c-37 -181 -158 -230 -275 -230c-116 0 -221 39 -181 230zM335 765h-70c28 79 68 124 119 124c41 0 72 -34 114 -34c19 0 33 23 36 36h72c-23 -71 -68 -124 -119 -124
c-43 0 -80 34 -112 34c-16 0 -29 -12 -40 -36z" />
    <glyph glyph-name="Udieresis" unicode="&#xdc;" horiz-adv-x="538" 
d="M189 714h144l-104 -498c-15 -71 -9 -124 59 -124c67 0 94 53 109 124l104 498h144l-104 -498c-37 -181 -158 -230 -275 -230c-116 0 -221 39 -181 230zM454 769l25 118h112l-25 -118h-112zM282 769l25 118h112l-25 -118h-112z" />
    <glyph glyph-name="Umacron" unicode="&#x16a;" horiz-adv-x="538" 
d="M189 714h144l-104 -498c-15 -71 -9 -124 59 -124c67 0 94 53 109 124l104 498h144l-104 -498c-37 -181 -158 -230 -275 -230c-116 0 -221 39 -181 230zM296 866h294l-16 -76h-294z" />
    <glyph glyph-name="Ubreve" unicode="&#x16c;" horiz-adv-x="538" 
d="M189 714h144l-104 -498c-15 -71 -9 -124 59 -124c67 0 94 53 109 124l104 498h144l-104 -498c-37 -181 -158 -230 -275 -230c-116 0 -221 39 -181 230zM306 899h65c-4 -39 22 -65 61 -65s75 26 87 65h65c-13 -53 -59 -141 -168 -141c-108 0 -121 88 -110 141z" />
    <glyph glyph-name="Uring" unicode="&#x16e;" horiz-adv-x="538" 
d="M189 714h144l-104 -498c-15 -71 -9 -124 59 -124c67 0 94 53 109 124l104 498h144l-104 -498c-37 -181 -158 -230 -275 -230c-116 0 -221 39 -181 230zM379 844c-7 -39 10 -58 46 -58c32 0 63 26 70 58c7 40 -10 58 -46 58c-32 0 -63 -26 -70 -58zM323 844
c14 66 75 110 138 110c61 0 104 -42 90 -110c-13 -65 -77 -108 -138 -108s-105 42 -90 108z" />
    <glyph glyph-name="Uhungarumlaut" unicode="&#x170;" horiz-adv-x="538" 
d="M189 714h144l-104 -498c-15 -71 -9 -124 59 -124c67 0 94 53 109 124l104 498h144l-104 -498c-37 -181 -158 -230 -275 -230c-116 0 -221 39 -181 230zM459 756l84 144h138l-128 -144h-94zM293 756l84 144h138l-128 -144h-94z" />
    <glyph glyph-name="Uogonek" unicode="&#x172;" horiz-adv-x="538" 
d="M294 -132l36 -43c-48 -33 -79 -42 -124 -42c-74 0 -90 43 -82 83c6 24 20 46 42 67c18 17 41 35 69 54c-18 1 -35 4 -52 8c-77 18 -127 80 -98 221l104 498h144l-104 -498c-13 -71 -9 -124 59 -124c67 0 96 53 109 124l104 498h144l-104 -498
c-28 -135 -102 -199 -188 -219c-16 -4 -32 -7 -48 -9c-29 -27 -49 -46 -58 -57c-20 -24 -29 -38 -33 -55c-5 -17 6 -28 25 -28c17 0 28 4 55 20z" />
    <glyph glyph-name="Wacute" unicode="&#x1e82;" horiz-adv-x="760" 
d="M138 0l18 714h138l-31 -528h2l194 528h138l-26 -528h2l189 528h138l-278 -714h-161l27 518h-2l-187 -518h-161zM479 778l84 144h138l-128 -144h-94z" />
    <glyph glyph-name="Wcircumflex" unicode="&#x174;" horiz-adv-x="760" 
d="M138 0l18 714h138l-31 -528h2l194 528h138l-26 -528h2l189 528h138l-278 -714h-161l27 518h-2l-187 -518h-161zM391 756l108 144h144l48 -144h-106l-28 85l-66 -85h-100z" />
    <glyph glyph-name="Wdieresis" unicode="&#x1e84;" horiz-adv-x="760" 
d="M138 0l18 714h138l-31 -528h2l194 528h138l-26 -528h2l189 528h138l-278 -714h-161l27 518h-2l-187 -518h-161zM575 791l25 118h112l-25 -118h-112zM403 791l25 118h112l-25 -118h-112z" />
    <glyph glyph-name="Wgrave" unicode="&#x1e80;" horiz-adv-x="760" 
d="M138 0l18 714h138l-31 -528h2l194 528h138l-26 -528h2l189 528h138l-278 -714h-161l27 518h-2l-187 -518h-161zM592 778h-94l-68 144h138z" />
    <glyph glyph-name="Yacute" unicode="&#xdd;" horiz-adv-x="520" 
d="M151 714h162l37 -276h2l157 276h156l-275 -433l-58 -281h-144l58 281zM368 756l84 144h138l-128 -144h-94z" />
    <glyph glyph-name="Ycircumflex" unicode="&#x176;" horiz-adv-x="520" 
d="M151 714h162l37 -276h2l157 276h156l-275 -433l-58 -281h-144l58 281zM270 756l108 144h144l48 -144h-106l-28 85l-66 -85h-100z" />
    <glyph glyph-name="Ydieresis" unicode="&#x178;" horiz-adv-x="520" 
d="M151 714h162l37 -276h2l157 276h156l-275 -433l-58 -281h-144l58 281zM443 769l25 118h112l-25 -118h-112zM271 769l25 118h112l-25 -118h-112z" />
    <glyph glyph-name="Ygrave" unicode="&#x1ef2;" horiz-adv-x="520" 
d="M151 714h162l37 -276h2l157 276h156l-275 -433l-58 -281h-144l58 281zM467 778h-94l-68 144h138z" />
    <glyph glyph-name="Zacute" unicode="&#x179;" horiz-adv-x="481" 
d="M24 0l21 105l365 491h-245l25 118h411l-23 -109l-368 -487h271l-24 -118h-433zM344 756l84 144h138l-128 -144h-94z" />
    <glyph glyph-name="Zcaron" unicode="&#x17d;" horiz-adv-x="481" 
d="M24 0l21 105l365 491h-245l25 118h411l-23 -109l-368 -487h271l-24 -118h-433zM325 756l-48 144h106l29 -85l65 85h100l-108 -144h-144z" />
    <glyph glyph-name="Zdotaccent" unicode="&#x17b;" horiz-adv-x="481" 
d="M24 0l21 105l365 491h-245l25 118h411l-23 -109l-368 -487h271l-24 -118h-433zM367 887h112l-25 -118h-112z" />
    <glyph glyph-name="agrave" unicode="&#xe0;" horiz-adv-x="481" 
d="M330 163l22 110c-21 -15 -35 -21 -59 -29l-29 -10c-46 -15 -64 -41 -72 -79c-9 -41 -1 -75 38 -75s88 23 100 83zM246 373h-124l3 13c27 124 119 166 223 166c165 0 181 -68 161 -165l-59 -283c-10 -50 -12 -73 -4 -104h-132c-7 17 -6 37 -6 56h-2
c-41 -53 -86 -70 -151 -70c-95 0 -114 82 -98 154c22 102 70 141 171 168l82 21c43 11 61 27 68 63c9 41 -3 66 -50 66c-43 0 -70 -27 -79 -70zM423 602h-94l-68 144h138z" />
    <glyph glyph-name="aacute" unicode="&#xe1;" horiz-adv-x="481" 
d="M330 163l22 110c-21 -15 -35 -21 -59 -29l-29 -10c-46 -15 -64 -41 -72 -79c-9 -41 -1 -75 38 -75s88 23 100 83zM246 373h-124l3 13c27 124 119 166 223 166c165 0 181 -68 161 -165l-59 -283c-10 -50 -12 -73 -4 -104h-132c-7 17 -6 37 -6 56h-2
c-41 -53 -86 -70 -151 -70c-95 0 -114 82 -98 154c22 102 70 141 171 168l82 21c43 11 61 27 68 63c9 41 -3 66 -50 66c-43 0 -70 -27 -79 -70zM319 602l84 144h138l-128 -144h-94z" />
    <glyph glyph-name="acircumflex" unicode="&#xe2;" horiz-adv-x="481" 
d="M330 163l22 110c-21 -15 -35 -21 -59 -29l-29 -10c-46 -15 -64 -41 -72 -79c-9 -41 -1 -75 38 -75s88 23 100 83zM246 373h-124l3 13c27 124 119 166 223 166c165 0 181 -68 161 -165l-59 -283c-10 -50 -12 -73 -4 -104h-132c-7 17 -6 37 -6 56h-2
c-41 -53 -86 -70 -151 -70c-95 0 -114 82 -98 154c22 102 70 141 171 168l82 21c43 11 61 27 68 63c9 41 -3 66 -50 66c-43 0 -70 -27 -79 -70zM221 602l108 144h144l48 -144h-106l-28 85l-66 -85h-100z" />
    <glyph glyph-name="atilde" unicode="&#xe3;" horiz-adv-x="481" 
d="M330 163l22 110c-21 -15 -35 -21 -59 -29l-29 -10c-46 -15 -64 -41 -72 -79c-9 -41 -1 -75 38 -75s88 23 100 83zM246 373h-124l3 13c27 124 119 166 223 166c165 0 181 -68 161 -165l-59 -283c-10 -50 -12 -73 -4 -104h-132c-7 17 -6 37 -6 56h-2
c-41 -53 -86 -70 -151 -70c-95 0 -114 82 -98 154c22 102 70 141 171 168l82 21c43 11 61 27 68 63c9 41 -3 66 -50 66c-43 0 -70 -27 -79 -70zM273 611h-70c28 79 68 124 119 124c41 0 72 -34 114 -34c19 0 33 23 36 36h72c-23 -71 -68 -124 -119 -124
c-43 0 -80 34 -112 34c-16 0 -29 -12 -40 -36z" />
    <glyph glyph-name="adieresis" unicode="&#xe4;" horiz-adv-x="481" 
d="M330 163l22 110c-21 -15 -35 -21 -59 -29l-29 -10c-46 -15 -64 -41 -72 -79c-9 -41 -1 -75 38 -75s88 23 100 83zM246 373h-124l3 13c27 124 119 166 223 166c165 0 181 -68 161 -165l-59 -283c-10 -50 -12 -73 -4 -104h-132c-7 17 -6 37 -6 56h-2
c-41 -53 -86 -70 -151 -70c-95 0 -114 82 -98 154c22 102 70 141 171 168l82 21c43 11 61 27 68 63c9 41 -3 66 -50 66c-43 0 -70 -27 -79 -70zM391 615l25 118h112l-25 -118h-112zM219 615l25 118h112l-25 -118h-112z" />
    <glyph glyph-name="amacron" unicode="&#x101;" horiz-adv-x="481" 
d="M330 163l22 110c-21 -15 -35 -21 -59 -29l-29 -10c-46 -15 -64 -41 -72 -79c-9 -41 -1 -75 38 -75s88 23 100 83zM246 373h-124l3 13c27 124 119 166 223 166c165 0 181 -68 161 -165l-59 -283c-10 -50 -12 -73 -4 -104h-132c-7 17 -6 37 -6 56h-2
c-41 -53 -86 -70 -151 -70c-95 0 -114 82 -98 154c22 102 70 141 171 168l82 21c43 11 61 27 68 63c9 41 -3 66 -50 66c-43 0 -70 -27 -79 -70zM236 712h294l-16 -76h-294z" />
    <glyph glyph-name="abreve" unicode="&#x103;" horiz-adv-x="481" 
d="M330 163l22 110c-21 -15 -35 -21 -59 -29l-29 -10c-46 -15 -64 -41 -72 -79c-9 -41 -1 -75 38 -75s88 23 100 83zM246 373h-124l3 13c27 124 119 166 223 166c165 0 181 -68 161 -165l-59 -283c-10 -50 -12 -73 -4 -104h-132c-7 17 -6 37 -6 56h-2
c-41 -53 -86 -70 -151 -70c-95 0 -114 82 -98 154c22 102 70 141 171 168l82 21c43 11 61 27 68 63c9 41 -3 66 -50 66c-43 0 -70 -27 -79 -70zM248 745h65c-4 -39 22 -65 61 -65s75 26 87 65h65c-13 -53 -59 -141 -168 -141c-108 0 -121 88 -110 141z" />
    <glyph glyph-name="aring" unicode="&#xe5;" horiz-adv-x="481" 
d="M330 163l22 110c-21 -15 -35 -21 -59 -29l-29 -10c-46 -15 -64 -41 -72 -79c-9 -41 -1 -75 38 -75s88 23 100 83zM246 373h-124l3 13c27 124 119 166 223 166c165 0 181 -68 161 -165l-59 -283c-10 -50 -12 -73 -4 -104h-132c-7 17 -6 37 -6 56h-2
c-41 -53 -86 -70 -151 -70c-95 0 -114 82 -98 154c22 102 70 141 171 168l82 21c43 11 61 27 68 63c9 41 -3 66 -50 66c-43 0 -70 -27 -79 -70zM322 690c-7 -39 10 -58 46 -58c32 0 63 26 70 58c7 40 -10 58 -46 58c-32 0 -63 -26 -70 -58zM266 690c14 66 75 110 138 110
c61 0 104 -42 90 -110c-13 -65 -77 -108 -138 -108s-105 42 -90 108z" />
    <glyph glyph-name="aringacute" unicode="&#x1fb;" horiz-adv-x="481" 
d="M370 802l69 119h138l-113 -119h-94zM345 676c-6 -26 10 -46 36 -46s50 20 56 46c5 26 -10 46 -36 46s-51 -20 -56 -46zM289 676c12 59 67 99 123 99s93 -40 81 -99c-13 -59 -67 -97 -123 -97c-58 0 -94 38 -81 97zM330 163l22 110c-21 -15 -35 -21 -59 -29l-29 -10
c-46 -15 -64 -41 -72 -79c-9 -41 -1 -75 38 -75s88 23 100 83zM246 373h-124l3 13c27 124 119 166 223 166c165 0 181 -68 161 -165l-59 -283c-10 -50 -12 -73 -4 -104h-132c-7 17 -6 37 -6 56h-2c-41 -53 -86 -70 -151 -70c-95 0 -114 82 -98 154c22 102 70 141 171 168
l82 21c43 11 61 27 68 63c9 41 -3 66 -50 66c-43 0 -70 -27 -79 -70z" />
    <glyph glyph-name="aogonek" unicode="&#x105;" horiz-adv-x="481" 
d="M350 -132l32 -43c-43 -33 -71 -42 -112 -42c-65 0 -81 43 -73 83c11 48 50 85 118 134h-1c-7 17 -6 37 -6 56h-2c-43 -56 -86 -70 -151 -70c-95 0 -114 82 -98 154c22 102 70 141 171 168l82 21c43 11 61 27 68 63c9 41 -3 66 -50 66c-43 0 -70 -27 -79 -70l-3 -15h-124
l3 13c27 124 119 166 223 166c165 0 180 -68 161 -165l-59 -283c-10 -50 -12 -73 -4 -104h-75c-33 -34 -54 -57 -63 -69c-19 -24 -27 -38 -30 -55c-5 -17 6 -28 22 -28s26 4 50 20zM330 163l22 106c-21 -15 -45 -23 -64 -27c-60 -12 -85 -39 -96 -87c-9 -41 -1 -75 36 -75
c38 0 88 23 102 83z" />
    <glyph glyph-name="ae" unicode="&#xe6;" horiz-adv-x="722" 
d="M245 373h-124l3 13c27 124 119 166 223 166c72 0 107 -15 126 -64c28 41 81 64 140 64c159 0 175 -108 140 -273l-7 -31h-271l-9 -43c-13 -64 -9 -125 41 -125c45 0 70 34 93 101h124c-31 -125 -105 -195 -234 -195c-99 0 -135 46 -143 93c-61 -80 -108 -93 -193 -93
c-95 0 -114 82 -98 154c22 102 70 141 171 168l82 21c43 11 61 27 68 63c9 41 -3 66 -50 66c-43 0 -70 -27 -79 -70zM492 330h139c13 82 14 128 -42 128c-53 0 -82 -56 -93 -107zM330 163l22 110c-21 -15 -35 -21 -59 -29l-29 -10c-46 -15 -64 -41 -72 -79
c-9 -41 -1 -75 38 -75s88 23 100 83z" />
    <glyph glyph-name="aeacute" unicode="&#x1fd;" horiz-adv-x="722" 
d="M245 373h-124l3 13c27 124 119 166 223 166c72 0 107 -15 126 -64c28 41 81 64 140 64c159 0 175 -108 140 -273l-7 -31h-271l-9 -43c-13 -64 -9 -125 41 -125c45 0 70 34 93 101h124c-31 -125 -105 -195 -234 -195c-99 0 -135 46 -143 93c-61 -80 -108 -93 -193 -93
c-95 0 -114 82 -98 154c22 102 70 141 171 168l82 21c43 11 61 27 68 63c9 41 -3 66 -50 66c-43 0 -70 -27 -79 -70zM492 330h139c13 82 14 128 -42 128c-53 0 -82 -56 -93 -107zM330 163l22 110c-21 -15 -35 -21 -59 -29l-29 -10c-46 -15 -64 -41 -72 -79
c-9 -41 -1 -75 38 -75s88 23 100 83zM445 602l84 144h138l-128 -144h-94z" />
    <glyph glyph-name="cacute" unicode="&#x107;" horiz-adv-x="463" 
d="M508 344h-132c11 52 12 108 -40 108c-69 0 -90 -60 -117 -184c-27 -133 -27 -188 35 -188c47 0 74 38 93 126h132c-29 -141 -103 -220 -250 -220c-137 0 -193 67 -148 283c45 221 150 283 277 283s175 -81 150 -208zM312 602l84 144h138l-128 -144h-94z" />
    <glyph glyph-name="ccircumflex" unicode="&#x109;" horiz-adv-x="463" 
d="M508 344h-132c11 52 12 108 -40 108c-69 0 -90 -60 -117 -184c-27 -133 -27 -188 35 -188c47 0 74 38 93 126h132c-29 -141 -103 -220 -250 -220c-137 0 -193 67 -148 283c45 221 150 283 277 283s175 -81 150 -208zM216 602l108 144h144l48 -144h-106l-28 85l-66 -85
h-100z" />
    <glyph glyph-name="ccaron" unicode="&#x10d;" horiz-adv-x="463" 
d="M508 344h-132c11 52 12 108 -40 108c-69 0 -90 -60 -117 -184c-27 -133 -27 -188 35 -188c47 0 74 38 93 126h132c-29 -141 -103 -220 -250 -220c-137 0 -193 67 -148 283c45 221 150 283 277 283s175 -81 150 -208zM289 602l-48 144h106l29 -85l65 85h100l-108 -144
h-144z" />
    <glyph glyph-name="cdotaccent" unicode="&#x10b;" horiz-adv-x="463" 
d="M508 344h-132c11 52 12 108 -40 108c-69 0 -90 -60 -117 -184c-27 -133 -27 -188 35 -188c47 0 74 38 93 126h132c-29 -141 -103 -220 -250 -220c-137 0 -193 67 -148 283c45 221 150 283 277 283s175 -81 150 -208zM335 733h112l-25 -118h-112z" />
    <glyph glyph-name="ccedilla" unicode="&#xe7;" horiz-adv-x="463" 
d="M508 344h-132c11 52 12 108 -40 108c-69 0 -90 -60 -117 -184c-27 -133 -27 -188 35 -188c47 0 74 38 93 126h132c-15 -71 -42 -125 -81 -163c-33 -32 -79 -51 -136 -56l-39 -45c13 4 21 5 37 5c42 0 73 -23 63 -72c-13 -56 -65 -92 -146 -92c-37 0 -64 6 -95 19l28 46
c23 -12 41 -15 65 -15c28 0 53 16 58 32c5 20 -10 34 -37 34c-15 0 -23 -2 -35 -6l-18 20l64 74c-25 1 -47 6 -66 13c-70 28 -94 107 -60 269c45 221 150 283 277 283s175 -81 150 -208z" />
    <glyph glyph-name="dcaron" unicode="&#x10f;" 
d="M322 0l11 57h-2c-40 -51 -81 -71 -136 -71c-113 0 -148 83 -107 283s111 283 224 283c52 0 83 -21 103 -64h2l47 226h138l-148 -714h-132zM226 269c-24 -117 -24 -177 36 -177c61 0 85 60 109 177c25 117 25 177 -36 177c-60 0 -84 -60 -109 -177zM640 570l60 144h122
l-94 -144h-88z" />
    <glyph glyph-name="dcroat" unicode="&#x111;" 
d="M319 0l12 57h-2c-42 -51 -82 -71 -137 -71c-113 0 -146 83 -105 283c43 200 112 283 225 283c52 0 83 -21 103 -64h2l21 98h-110l13 61h110l14 67h138l-14 -67h46l-13 -61h-46l-125 -586h-132zM225 269c-25 -117 -25 -177 35 -177c61 0 85 60 110 177s26 177 -35 177
c-60 0 -85 -60 -110 -177z" />
    <glyph glyph-name="eth" unicode="&#xf0;" horiz-adv-x="480" 
d="M226 583l-31 42l86 45c-19 23 -36 44 -53 64l117 61c19 -21 37 -42 54 -63l84 45l34 -42l-86 -45c82 -117 113 -237 76 -421s-112 -283 -270 -283c-168 -3 -192 95 -154 283c32 160 108 263 229 263c23 0 46 -7 65 -26l2 2c-16 39 -40 80 -67 120zM220 262
c-21 -107 -32 -182 36 -182c56 0 85 53 112 182c27 124 19 176 -37 176c-69 0 -89 -76 -111 -176z" />
    <glyph glyph-name="egrave" unicode="&#xe8;" horiz-adv-x="463" 
d="M232 330h141c13 82 14 128 -43 128c-55 0 -83 -56 -94 -107zM488 248h-273l-9 -43c-13 -64 -9 -125 42 -125c47 0 71 34 94 101h124c-31 -125 -104 -195 -235 -195c-200 0 -176 154 -149 288c29 144 86 278 272 278c160 0 176 -108 141 -273zM420 602h-94l-68 144h138z
" />
    <glyph glyph-name="eacute" unicode="&#xe9;" horiz-adv-x="463" 
d="M232 330h141c13 82 14 128 -43 128c-55 0 -83 -56 -94 -107zM488 248h-273l-9 -43c-13 -64 -9 -125 42 -125c47 0 71 34 94 101h124c-31 -125 -104 -195 -235 -195c-200 0 -176 154 -149 288c29 144 86 278 272 278c160 0 176 -108 141 -273zM309 602l84 144h138
l-128 -144h-94z" />
    <glyph glyph-name="ecircumflex" unicode="&#xea;" horiz-adv-x="463" 
d="M232 330h141c13 82 14 128 -43 128c-55 0 -83 -56 -94 -107zM488 248h-273l-9 -43c-13 -64 -9 -125 42 -125c47 0 71 34 94 101h124c-31 -125 -104 -195 -235 -195c-200 0 -176 154 -149 288c29 144 86 278 272 278c160 0 176 -108 141 -273zM216 602l108 144h144
l48 -144h-106l-28 85l-66 -85h-100z" />
    <glyph glyph-name="ecaron" unicode="&#x11b;" horiz-adv-x="463" 
d="M232 330h141c13 82 14 128 -43 128c-55 0 -83 -56 -94 -107zM488 248h-273l-9 -43c-13 -64 -9 -125 42 -125c47 0 71 34 94 101h124c-31 -125 -104 -195 -235 -195c-200 0 -176 154 -149 288c29 144 86 278 272 278c160 0 176 -108 141 -273zM283 602l-48 144h106l29 -85
l65 85h100l-108 -144h-144z" />
    <glyph glyph-name="edieresis" unicode="&#xeb;" horiz-adv-x="463" 
d="M232 330h141c13 82 14 128 -43 128c-55 0 -83 -56 -94 -107zM488 248h-273l-9 -43c-13 -64 -9 -125 42 -125c47 0 71 34 94 101h124c-31 -125 -104 -195 -235 -195c-200 0 -176 154 -149 288c29 144 86 278 272 278c160 0 176 -108 141 -273zM386 615l25 118h112
l-25 -118h-112zM214 615l25 118h112l-25 -118h-112z" />
    <glyph glyph-name="emacron" unicode="&#x113;" horiz-adv-x="463" 
d="M232 330h141c13 82 14 128 -43 128c-55 0 -83 -56 -94 -107zM488 248h-273l-9 -43c-13 -64 -9 -125 42 -125c47 0 71 34 94 101h124c-31 -125 -104 -195 -235 -195c-200 0 -176 154 -149 288c29 144 86 278 272 278c160 0 176 -108 141 -273zM229 712h294l-16 -76h-294z
" />
    <glyph glyph-name="ebreve" unicode="&#x115;" horiz-adv-x="463" 
d="M232 330h141c13 82 14 128 -43 128c-55 0 -83 -56 -94 -107zM488 248h-273l-9 -43c-13 -64 -9 -125 42 -125c47 0 71 34 94 101h124c-31 -125 -104 -195 -235 -195c-200 0 -176 154 -149 288c29 144 86 278 272 278c160 0 176 -108 141 -273zM236 745h65
c-4 -39 22 -65 61 -65s75 26 87 65h65c-13 -53 -59 -141 -168 -141c-108 0 -121 88 -110 141z" />
    <glyph glyph-name="uni0259" unicode="&#x259;" horiz-adv-x="463" 
d="M318 208h-141c-13 -82 -14 -128 43 -128c55 0 83 56 94 107zM62 290h273l9 43c13 64 9 125 -42 125c-47 0 -71 -34 -94 -101h-124c31 125 104 195 235 195c200 0 176 -154 149 -288c-29 -144 -86 -278 -272 -278c-160 0 -176 108 -141 273z" />
    <glyph glyph-name="uni0259" unicode="&#x4d9;" horiz-adv-x="463" 
d="M318 208h-141c-13 -82 -14 -128 43 -128c55 0 83 56 94 107zM62 290h273l9 43c13 64 9 125 -42 125c-47 0 -71 -34 -94 -101h-124c31 125 104 195 235 195c200 0 176 -154 149 -288c-29 -144 -86 -278 -272 -278c-160 0 -176 108 -141 273z" />
    <glyph glyph-name="eogonek" unicode="&#x119;" horiz-adv-x="463" 
d="M273 -132l36 -43c-48 -33 -79 -42 -124 -42c-74 0 -90 43 -82 83c15 54 63 87 110 121c-41 1 -73 10 -94 25c-75 49 -57 162 -37 262c29 144 86 278 272 278c160 0 176 -108 141 -273l-7 -31h-273l-9 -43c-13 -64 -9 -125 42 -125c47 0 71 34 94 101h124
c-15 -63 -42 -111 -80 -145c-27 -23 -60 -38 -99 -45c-31 -29 -52 -49 -61 -60c-20 -24 -29 -38 -33 -55c-5 -17 6 -28 25 -28c17 0 28 4 55 20zM232 330h141c13 82 14 128 -43 128c-55 0 -83 -56 -94 -107z" />
    <glyph glyph-name="gcircumflex" unicode="&#x11d;" 
d="M225 252c-16 -74 -18 -140 40 -140c57 0 88 63 107 154c27 131 20 180 -35 180c-61 0 -82 -49 -112 -194zM428 538h132l-106 -511c-29 -143 -107 -211 -268 -211c-117 0 -172 52 -153 144h132c-7 -33 23 -56 56 -56c56 0 84 41 96 97l14 71h-2c-36 -40 -84 -66 -128 -66
c-110 0 -149 76 -109 272c27 126 75 274 226 274c39 0 81 -18 96 -74h2zM234 602l108 144h144l48 -144h-106l-28 85l-66 -85h-100z" />
    <glyph glyph-name="gbreve" unicode="&#x11f;" 
d="M225 252c-16 -74 -18 -140 40 -140c57 0 88 63 107 154c27 131 20 180 -35 180c-61 0 -82 -49 -112 -194zM428 538h132l-106 -511c-29 -143 -107 -211 -268 -211c-117 0 -172 52 -153 144h132c-7 -33 23 -56 56 -56c56 0 84 41 96 97l14 71h-2c-36 -40 -84 -66 -128 -66
c-110 0 -149 76 -109 272c27 126 75 274 226 274c39 0 81 -18 96 -74h2zM265 745h65c-4 -39 22 -65 61 -65s75 26 87 65h65c-13 -53 -59 -141 -168 -141c-108 0 -121 88 -110 141z" />
    <glyph glyph-name="gdotaccent" unicode="&#x121;" 
d="M225 252c-16 -74 -18 -140 40 -140c57 0 88 63 107 154c27 131 20 180 -35 180c-61 0 -82 -49 -112 -194zM428 538h132l-106 -511c-29 -143 -107 -211 -268 -211c-117 0 -172 52 -153 144h132c-7 -33 23 -56 56 -56c56 0 84 41 96 97l14 71h-2c-36 -40 -84 -66 -128 -66
c-110 0 -149 76 -109 272c27 126 75 274 226 274c39 0 81 -18 96 -74h2zM342 733h112l-25 -118h-112z" />
    <glyph glyph-name="gcommaaccent" unicode="&#x123;" 
d="M225 252c-16 -74 -18 -140 40 -140c57 0 88 63 107 154c27 131 20 180 -35 180c-61 0 -82 -49 -112 -194zM428 538h132l-106 -511c-29 -143 -107 -211 -268 -211c-117 0 -172 52 -153 144h132c-7 -33 23 -56 56 -56c56 0 84 41 96 97l14 71h-2c-36 -40 -84 -66 -128 -66
c-110 0 -149 76 -109 272c27 126 75 274 226 274c39 0 81 -18 96 -74h2zM432 596h-112l21 97c17 88 72 104 119 106l-8 -36c-24 -7 -38 -18 -46 -49h51z" />
    <glyph glyph-name="hcircumflex" unicode="&#x125;" 
d="M46 0l148 714h138l-48 -231h2c35 47 86 69 145 69c87 0 127 -46 105 -153l-82 -399h-138l77 371c11 55 -3 75 -44 75c-49 0 -79 -30 -91 -89l-74 -357h-138zM255 756l108 144h144l48 -144h-106l-28 85l-66 -85h-100z" />
    <glyph glyph-name="hbar" unicode="&#x127;" 
d="M181 647l14 67h138l-14 -67h101l-13 -61h-101l-22 -103h2c37 47 87 69 146 69c87 0 127 -46 104 -153l-84 -399h-138l78 371c12 55 -2 75 -43 75c-49 0 -79 -30 -91 -89l-76 -357h-137l123 586h-56l13 61h56z" />
    <glyph glyph-name="dotlessi" unicode="&#x131;" horiz-adv-x="240" 
d="M51 0l111 538h138l-111 -538h-138z" />
    <glyph glyph-name="igrave" unicode="&#xec;" horiz-adv-x="240" 
d="M51 0l111 538h138l-111 -538h-138zM301 602h-94l-68 144h138z" />
    <glyph glyph-name="iacute" unicode="&#xed;" horiz-adv-x="240" 
d="M51 0l111 538h138l-111 -538h-138zM172 602l84 144h138l-128 -144h-94z" />
    <glyph glyph-name="ibreve" unicode="&#x12d;" horiz-adv-x="240" 
d="M51 0l111 538h138l-111 -538h-138zM139 745h65c-4 -39 22 -65 61 -65s75 26 87 65h65c-13 -53 -59 -141 -168 -141c-108 0 -121 88 -110 141z" />
    <glyph glyph-name="icircumflex" unicode="&#xee;" horiz-adv-x="240" 
d="M51 0l111 538h138l-111 -538h-138zM101 602l108 144h144l48 -144h-106l-28 85l-66 -85h-100z" />
    <glyph glyph-name="itilde" unicode="&#x129;" horiz-adv-x="240" 
d="M51 0l111 538h138l-111 -538h-138zM149 611h-70c28 79 68 124 119 124c41 0 72 -34 114 -34c19 0 33 23 36 36h72c-23 -71 -68 -124 -119 -124c-43 0 -80 34 -112 34c-16 0 -29 -12 -40 -36z" />
    <glyph glyph-name="idieresis" unicode="&#xef;" horiz-adv-x="240" 
d="M51 0l111 538h138l-111 -538h-138zM272 615l25 118h112l-25 -118h-112zM100 615l25 118h112l-25 -118h-112z" />
    <glyph glyph-name="imacron" unicode="&#x12b;" horiz-adv-x="240" 
d="M51 0l111 538h138l-111 -538h-138zM112 712h294l-16 -76h-294z" />
    <glyph glyph-name="iogonek" unicode="&#x12f;" horiz-adv-x="240" 
d="M144 -132l32 -43c-43 -33 -71 -42 -112 -42c-65 0 -82 43 -73 83c10 48 50 85 118 134h-58l111 538h138l-111 -538h-24c-33 -33 -80 -75 -93 -124c-5 -17 6 -28 22 -28s26 4 50 20zM176 604l25 118h138l-25 -118h-138z" />
    <glyph glyph-name="dotlessj" unicode="&#x237;" horiz-adv-x="240" 
d="M53 10l109 528h138l-119 -575c-19 -91 -63 -139 -186 -139c-16 0 -36 1 -56 2l21 100s8 -2 22 -2c48 0 57 26 71 86z" />
    <glyph glyph-name="jcircumflex" unicode="&#x135;" horiz-adv-x="240" 
d="M53 10l109 528h138l-119 -575c-19 -91 -63 -139 -186 -139c-16 0 -36 1 -56 2l21 100s8 -2 22 -2c48 0 57 26 71 86zM92 602l108 144h144l48 -144h-106l-28 85l-66 -85h-100z" />
    <glyph glyph-name="kcommaaccent" unicode="&#x137;" 
d="M199 714h138l-78 -377h2l180 201h152l-199 -212l111 -326h-152l-70 221l-62 -64l-32 -157h-138zM209 -50h112l-20 -97c-19 -88 -72 -104 -119 -106l7 36c24 7 39 18 47 49h-51z" />
    <glyph glyph-name="kgreenlandic" unicode="&#x138;" 
d="M163 538h138l-45 -206h2l182 206h154l-204 -227l112 -311h-145l-72 210l-70 -73l-29 -137h-137z" />
    <glyph glyph-name="lacute" unicode="&#x13a;" horiz-adv-x="240" 
d="M51 0l148 714h138l-148 -714h-138zM212 756l84 144h138l-128 -144h-94z" />
    <glyph glyph-name="lcaron" unicode="&#x13e;" horiz-adv-x="240" 
d="M51 0l148 714h138l-148 -714h-138zM375 570l60 144h122l-94 -144h-88z" />
    <glyph glyph-name="lcommaaccent" unicode="&#x13c;" horiz-adv-x="240" 
d="M51 0l148 714h138l-148 -714h-138zM55 -50h112l-20 -97c-19 -88 -72 -104 -119 -106l7 36c24 7 39 18 47 49h-51z" />
    <glyph glyph-name="lslash" unicode="&#x142;" horiz-adv-x="240" 
d="M51 0l58 282l-72 -42l19 88l71 42l72 344h138l-53 -253l72 41l-18 -88l-72 -41l-77 -373h-138z" />
    <glyph glyph-name="ldot" unicode="&#x140;" horiz-adv-x="370" 
d="M51 0l148 714h138l-148 -714h-138zM395 448h112l-25 -118h-112z" />
    <glyph glyph-name="nacute" unicode="&#x144;" 
d="M46 0l111 538h132l-13 -63h2c40 53 94 77 153 77c87 0 127 -46 105 -153l-82 -399h-138l77 371c11 55 -3 75 -44 75c-49 0 -79 -30 -91 -89l-74 -357h-138zM304 602l84 144h138l-128 -144h-94z" />
    <glyph glyph-name="ncaron" unicode="&#x148;" 
d="M46 0l111 538h132l-13 -63h2c40 53 94 77 153 77c87 0 127 -46 105 -153l-82 -399h-138l77 371c11 55 -3 75 -44 75c-49 0 -79 -30 -91 -89l-74 -357h-138zM284 602l-48 144h106l29 -85l65 85h100l-108 -144h-144z" />
    <glyph glyph-name="ntilde" unicode="&#xf1;" 
d="M46 0l111 538h132l-13 -63h2c40 53 94 77 153 77c87 0 127 -46 105 -153l-82 -399h-138l77 371c11 55 -3 75 -44 75c-49 0 -79 -30 -91 -89l-74 -357h-138zM274 611h-70c28 79 68 124 119 124c41 0 72 -34 114 -34c19 0 33 23 36 36h72c-23 -71 -68 -124 -119 -124
c-43 0 -80 34 -112 34c-16 0 -29 -12 -40 -36z" />
    <glyph glyph-name="ncommaaccent" unicode="&#x146;" 
d="M46 0l111 538h132l-13 -63h2c40 53 94 77 153 77c87 0 127 -46 105 -153l-82 -399h-138l77 371c11 55 -3 75 -44 75c-49 0 -79 -30 -91 -89l-74 -357h-138zM184 -50h112l-20 -97c-19 -88 -72 -104 -119 -106l7 36c24 7 39 18 47 49h-51z" />
    <glyph glyph-name="ograve" unicode="&#xf2;" horiz-adv-x="480" 
d="M221 269c-22 -110 -34 -189 35 -189c56 0 86 54 113 189c28 135 22 189 -34 189c-69 0 -90 -79 -114 -189zM83 269c40 184 113 283 271 283c166 3 193 -96 153 -283c-37 -184 -112 -283 -270 -283c-168 -3 -192 95 -154 283zM422 602h-94l-68 144h138z" />
    <glyph glyph-name="oacute" unicode="&#xf3;" horiz-adv-x="480" 
d="M221 269c-22 -110 -34 -189 35 -189c56 0 86 54 113 189c28 135 22 189 -34 189c-69 0 -90 -79 -114 -189zM83 269c40 184 113 283 271 283c166 3 193 -96 153 -283c-37 -184 -112 -283 -270 -283c-168 -3 -192 95 -154 283zM311 602l84 144h138l-128 -144h-94z" />
    <glyph glyph-name="ocircumflex" unicode="&#xf4;" horiz-adv-x="480" 
d="M221 269c-22 -110 -34 -189 35 -189c56 0 86 54 113 189c28 135 22 189 -34 189c-69 0 -90 -79 -114 -189zM83 269c40 184 113 283 271 283c166 3 193 -96 153 -283c-37 -184 -112 -283 -270 -283c-168 -3 -192 95 -154 283zM216 602l108 144h144l48 -144h-106l-28 85
l-66 -85h-100z" />
    <glyph glyph-name="otilde" unicode="&#xf5;" horiz-adv-x="480" 
d="M221 269c-22 -110 -34 -189 35 -189c56 0 86 54 113 189c28 135 22 189 -34 189c-69 0 -90 -79 -114 -189zM83 269c40 184 113 283 271 283c166 3 193 -96 153 -283c-37 -184 -112 -283 -270 -283c-168 -3 -192 95 -154 283zM266 611h-70c28 79 68 124 119 124
c41 0 72 -34 114 -34c19 0 33 23 36 36h72c-23 -71 -68 -124 -119 -124c-43 0 -80 34 -112 34c-16 0 -29 -12 -40 -36z" />
    <glyph glyph-name="odieresis" unicode="&#xf6;" horiz-adv-x="480" 
d="M221 269c-22 -110 -34 -189 35 -189c56 0 86 54 113 189c28 135 22 189 -34 189c-69 0 -90 -79 -114 -189zM83 269c40 184 113 283 271 283c166 3 193 -96 153 -283c-37 -184 -112 -283 -270 -283c-168 -3 -192 95 -154 283zM384 615l25 118h112l-25 -118h-112zM212 615
l25 118h112l-25 -118h-112z" />
    <glyph glyph-name="omacron" unicode="&#x14d;" horiz-adv-x="480" 
d="M221 269c-22 -110 -34 -189 35 -189c56 0 86 54 113 189c28 135 22 189 -34 189c-69 0 -90 -79 -114 -189zM83 269c40 184 113 283 271 283c166 3 193 -96 153 -283c-37 -184 -112 -283 -270 -283c-168 -3 -192 95 -154 283zM232 712h294l-16 -76h-294z" />
    <glyph glyph-name="obreve" unicode="&#x14f;" horiz-adv-x="480" 
d="M221 269c-22 -110 -34 -189 35 -189c56 0 86 54 113 189c28 135 22 189 -34 189c-69 0 -90 -79 -114 -189zM83 269c40 184 113 283 271 283c166 3 193 -96 153 -283c-37 -184 -112 -283 -270 -283c-168 -3 -192 95 -154 283zM247 745h65c-4 -39 22 -65 61 -65
s75 26 87 65h65c-13 -53 -59 -141 -168 -141c-108 0 -121 88 -110 141z" />
    <glyph glyph-name="ohungarumlaut" unicode="&#x151;" horiz-adv-x="480" 
d="M221 269c-22 -110 -34 -189 35 -189c56 0 86 54 113 189c28 135 22 189 -34 189c-69 0 -90 -79 -114 -189zM83 269c40 184 113 283 271 283c166 3 193 -96 153 -283c-37 -184 -112 -283 -270 -283c-168 -3 -192 95 -154 283zM397 602l84 144h138l-128 -144h-94zM231 602
l84 144h138l-128 -144h-94z" />
    <glyph glyph-name="oslash" unicode="&#xf8;" horiz-adv-x="480" 
d="M45 -35l52 70c-37 45 -37 123 -14 234c40 184 113 283 271 283c45 1 80 -6 105 -21l47 65l40 -23l-52 -70c37 -45 36 -123 13 -234c-37 -184 -112 -283 -270 -283c-46 -1 -81 6 -105 21l-48 -65zM382 351l-173 -238c6 -22 22 -33 47 -33c56 0 86 54 113 189
c7 33 12 60 15 82h-2zM208 186l173 238c-6 23 -21 34 -46 34c-69 0 -90 -79 -114 -189c-7 -31 -12 -59 -15 -83h2z" />
    <glyph glyph-name="oslashacute" unicode="&#x1ff;" horiz-adv-x="480" 
d="M45 -35l52 70c-37 45 -37 123 -14 234c40 184 113 283 271 283c45 1 80 -6 105 -21l47 65l40 -23l-52 -70c37 -45 36 -123 13 -234c-37 -184 -112 -283 -270 -283c-46 -1 -81 6 -105 21l-48 -65zM382 351l-173 -238c6 -22 22 -33 47 -33c56 0 86 54 113 189
c7 33 12 60 15 82h-2zM208 186l173 238c-6 23 -21 34 -46 34c-69 0 -90 -79 -114 -189c-7 -31 -12 -59 -15 -83h2zM311 602l84 144h138l-128 -144h-94z" />
    <glyph glyph-name="oe" unicode="&#x153;" horiz-adv-x="741" 
d="M507 330h141c13 82 14 128 -43 128c-55 0 -83 -56 -94 -107zM259 80c55 0 84 54 111 189c28 135 22 189 -34 189c-69 0 -90 -79 -114 -189c-22 -110 -33 -189 37 -189zM763 248h-273l-9 -43c-13 -64 -9 -125 42 -125c47 0 71 34 94 101h124c-31 -125 -104 -195 -227 -195
c-85 0 -116 39 -124 79c-31 -51 -95 -79 -164 -79c-154 0 -179 96 -142 283c40 184 113 283 271 283c75 0 111 -24 128 -75c37 49 93 75 146 75c160 0 176 -108 141 -273z" />
    <glyph glyph-name="racute" unicode="&#x155;" horiz-adv-x="333" 
d="M46 0l111 538h132l-15 -72h2c39 52 85 86 142 86c8 0 17 -1 25 -2l-28 -132c-13 1 -27 2 -42 2c-48 0 -106 -25 -122 -97l-67 -323h-138zM203 602l84 144h138l-128 -144h-94z" />
    <glyph glyph-name="rcaron" unicode="&#x159;" horiz-adv-x="333" 
d="M46 0l111 538h132l-15 -72h2c39 52 85 86 142 86c8 0 17 -1 25 -2l-28 -132c-13 1 -27 2 -42 2c-48 0 -106 -25 -122 -97l-67 -323h-138zM216 602l-48 144h106l29 -85l65 85h100l-108 -144h-144z" />
    <glyph glyph-name="rcommaaccent" unicode="&#x157;" horiz-adv-x="333" 
d="M46 0l111 538h132l-15 -72h2c39 52 85 86 142 86c8 0 17 -1 25 -2l-28 -132c-13 1 -27 2 -42 2c-48 0 -106 -25 -122 -97l-67 -323h-138zM51 -50h112l-20 -97c-19 -88 -72 -104 -119 -106l7 36c24 7 39 18 47 49h-51z" />
    <glyph glyph-name="sacute" unicode="&#x15b;" horiz-adv-x="444" 
d="M59 176h124l-4 -18c-9 -47 9 -78 56 -78c43 0 74 21 83 64c8 35 -12 51 -37 61l-90 35c-71 28 -99 74 -83 150c19 88 89 162 231 162c125 0 170 -55 152 -153l-4 -22h-124c11 55 1 81 -44 81c-35 0 -69 -19 -77 -58c-7 -27 4 -47 47 -63l77 -28c81 -29 104 -73 87 -154
c-24 -113 -119 -169 -235 -169c-156 0 -184 67 -163 171zM289 602l84 144h138l-128 -144h-94z" />
    <glyph glyph-name="scircumflex" unicode="&#x15d;" horiz-adv-x="444" 
d="M59 176h124l-4 -18c-9 -47 9 -78 56 -78c43 0 74 21 83 64c8 35 -12 51 -37 61l-90 35c-71 28 -99 74 -83 150c19 88 89 162 231 162c125 0 170 -55 152 -153l-4 -22h-124c11 55 1 81 -44 81c-35 0 -69 -19 -77 -58c-7 -27 4 -47 47 -63l77 -28c81 -29 104 -73 87 -154
c-24 -113 -119 -169 -235 -169c-156 0 -184 67 -163 171zM202 602l108 144h144l48 -144h-106l-28 85l-66 -85h-100z" />
    <glyph glyph-name="scaron" unicode="&#x161;" horiz-adv-x="444" 
d="M59 176h124l-4 -18c-9 -47 9 -78 56 -78c43 0 74 21 83 64c8 35 -12 51 -37 61l-90 35c-71 28 -99 74 -83 150c19 88 89 162 231 162c125 0 170 -55 152 -153l-4 -22h-124c11 55 1 81 -44 81c-35 0 -69 -19 -77 -58c-7 -27 4 -47 47 -63l77 -28c81 -29 104 -73 87 -154
c-24 -113 -119 -169 -235 -169c-156 0 -184 67 -163 171zM270 602l-48 144h106l29 -85l65 85h100l-108 -144h-144z" />
    <glyph glyph-name="scedilla" unicode="&#x15f;" horiz-adv-x="444" 
d="M59 176h124l-4 -18c-9 -47 9 -78 56 -78c43 0 74 21 83 64c8 35 -12 51 -37 61l-90 35c-71 27 -99 74 -83 150c19 88 89 162 231 162c125 0 170 -55 152 -153l-4 -22h-124c11 55 1 81 -44 81c-35 0 -69 -19 -77 -58c-7 -27 4 -48 47 -63l77 -28c81 -29 104 -73 87 -154
c-18 -84 -76 -138 -153 -158c-19 -5 -38 -9 -58 -10l-38 -45c13 4 21 5 37 5c42 0 73 -23 63 -72c-13 -56 -65 -92 -146 -92c-37 0 -64 6 -95 19l28 46c23 -12 41 -15 65 -15c28 0 53 16 58 32c5 20 -10 34 -37 34c-15 0 -23 -2 -35 -6l-18 20l64 74c-25 1 -47 5 -64 11
c-73 24 -85 81 -69 159z" />
    <glyph glyph-name="scommaaccent" unicode="&#x219;" horiz-adv-x="444" 
d="M59 176h124l-4 -18c-9 -47 9 -78 56 -78c43 0 74 21 83 64c8 35 -12 51 -37 61l-90 35c-71 28 -99 74 -83 150c19 88 89 162 231 162c125 0 170 -55 152 -153l-4 -22h-124c11 55 1 81 -44 81c-35 0 -69 -19 -77 -58c-7 -27 4 -47 47 -63l77 -28c81 -29 104 -73 87 -154
c-24 -113 -119 -169 -235 -169c-156 0 -184 67 -163 171zM156 -50h112l-20 -97c-19 -88 -72 -104 -119 -106l7 36c24 7 39 18 47 49h-51z" />
    <glyph glyph-name="germandbls" unicode="&#xdf;" 
d="M179 0h-138l109 527c29 140 109 201 254 201c127 0 184 -59 161 -171c-15 -75 -43 -116 -119 -147l-1 -2c79 -13 94 -84 71 -192c-21 -98 -73 -222 -225 -222c-23 0 -50 1 -65 4l20 94c7 -3 13 -4 20 -4c72 0 97 55 116 146c15 73 6 121 -55 121h-25l20 94h17
c48 0 74 39 86 95c8 47 4 90 -48 90c-55 0 -77 -46 -90 -110z" />
    <glyph glyph-name="tcaron" unicode="&#x165;" horiz-adv-x="296" 
d="M435 570l60 144h122l-94 -144h-88zM187 538l32 154h138l-32 -154h80l-19 -94h-80l-61 -291c-8 -43 -3 -59 37 -59c11 0 22 1 31 2l-19 -96c-31 -3 -60 -6 -92 -6c-108 0 -121 34 -98 142l64 308h-70l19 94h70z" />
    <glyph glyph-name="tcommaaccent" unicode="&#x163;" horiz-adv-x="296" 
d="M187 538l32 154h138l-32 -154h80l-19 -94h-80l-61 -291c-8 -43 -3 -59 37 -59c11 0 22 1 31 2l-19 -96c-31 -3 -60 -6 -92 -6c-108 0 -121 34 -98 142l64 308h-70l19 94h70zM125 -50h112l-20 -97c-19 -88 -72 -104 -119 -106l7 36c24 7 39 18 47 49h-51z" />
    <glyph glyph-name="uni021B" unicode="&#x21b;" horiz-adv-x="296" 
d="M187 538l32 154h138l-32 -154h80l-19 -94h-80l-61 -291c-8 -43 -3 -59 37 -59c11 0 22 1 31 2l-19 -96c-31 -3 -60 -6 -92 -6c-108 0 -121 34 -98 142l64 308h-70l19 94h70zM125 -50h112l-20 -97c-19 -88 -72 -104 -119 -106l7 36c24 7 39 18 47 49h-51z" />
    <glyph glyph-name="tbar" unicode="&#x167;" horiz-adv-x="296" 
d="M187 538l32 154h138l-32 -154h80l-19 -94h-80l-21 -98h88l-13 -61h-88l-27 -132c-8 -43 -3 -59 37 -59c11 0 22 1 31 2l-19 -96c-31 -3 -60 -6 -92 -6c-108 0 -122 34 -98 142l31 149h-79l13 61h78l21 98h-70l19 94h70z" />
    <glyph glyph-name="thorn" unicode="&#xfe;" 
d="M9 -176l185 890h138l-48 -233h2c35 51 75 71 130 71c113 0 147 -83 106 -283s-110 -283 -223 -283c-52 0 -83 21 -103 64h-2l-47 -226h-138zM239 269c-24 -117 -24 -177 37 -177c60 0 84 60 108 177c25 117 25 177 -35 177c-61 0 -85 -60 -110 -177z" />
    <glyph glyph-name="ugrave" unicode="&#xf9;" 
d="M322 0l13 63h-2c-40 -53 -94 -77 -153 -77c-87 0 -129 46 -106 153l83 399h138l-77 -371c-11 -55 3 -75 44 -75c49 0 79 30 91 89l74 357h138l-111 -538h-132zM430 602h-94l-68 144h138z" />
    <glyph glyph-name="uacute" unicode="&#xfa;" 
d="M322 0l13 63h-2c-40 -53 -94 -77 -153 -77c-87 0 -129 46 -106 153l83 399h138l-77 -371c-11 -55 3 -75 44 -75c49 0 79 30 91 89l74 357h138l-111 -538h-132zM321 602l84 144h138l-128 -144h-94z" />
    <glyph glyph-name="ucircumflex" unicode="&#xfb;" 
d="M322 0l13 63h-2c-40 -53 -94 -77 -153 -77c-87 0 -129 46 -106 153l83 399h138l-77 -371c-11 -55 3 -75 44 -75c49 0 79 30 91 89l74 357h138l-111 -538h-132zM226 602l108 144h144l48 -144h-106l-28 85l-66 -85h-100z" />
    <glyph glyph-name="utilde" unicode="&#x169;" 
d="M322 0l13 63h-2c-40 -53 -94 -77 -153 -77c-87 0 -129 46 -106 153l83 399h138l-77 -371c-11 -55 3 -75 44 -75c49 0 79 30 91 89l74 357h138l-111 -538h-132zM281 611h-70c28 79 68 124 119 124c41 0 72 -34 114 -34c19 0 33 23 36 36h72c-23 -71 -68 -124 -119 -124
c-43 0 -80 34 -112 34c-16 0 -29 -12 -40 -36z" />
    <glyph glyph-name="udieresis" unicode="&#xfc;" 
d="M322 0l13 63h-2c-40 -53 -94 -77 -153 -77c-87 0 -129 46 -106 153l83 399h138l-77 -371c-11 -55 3 -75 44 -75c49 0 79 30 91 89l74 357h138l-111 -538h-132zM403 615l25 118h112l-25 -118h-112zM231 615l25 118h112l-25 -118h-112z" />
    <glyph glyph-name="umacron" unicode="&#x16b;" 
d="M322 0l13 63h-2c-40 -53 -94 -77 -153 -77c-87 0 -129 46 -106 153l83 399h138l-77 -371c-11 -55 3 -75 44 -75c49 0 79 30 91 89l74 357h138l-111 -538h-132zM243 712h294l-16 -76h-294z" />
    <glyph glyph-name="ubreve" unicode="&#x16d;" 
d="M322 0l13 63h-2c-40 -53 -94 -77 -153 -77c-87 0 -129 46 -106 153l83 399h138l-77 -371c-11 -55 3 -75 44 -75c49 0 79 30 91 89l74 357h138l-111 -538h-132zM252 745h65c-4 -39 22 -65 61 -65s75 26 87 65h65c-13 -53 -59 -141 -168 -141c-108 0 -121 88 -110 141z" />
    <glyph glyph-name="uring" unicode="&#x16f;" 
d="M322 0l13 63h-2c-40 -53 -94 -77 -153 -77c-87 0 -129 46 -106 153l83 399h138l-77 -371c-11 -55 3 -75 44 -75c49 0 79 30 91 89l74 357h138l-111 -538h-132zM330 690c-7 -39 10 -58 46 -58c32 0 63 26 70 58c7 40 -10 58 -46 58c-32 0 -63 -26 -70 -58zM274 690
c14 66 75 110 138 110c61 0 104 -42 90 -110c-13 -65 -77 -108 -138 -108s-105 42 -90 108z" />
    <glyph glyph-name="uhungarumlaut" unicode="&#x171;" 
d="M322 0l13 63h-2c-40 -53 -94 -77 -153 -77c-87 0 -129 46 -106 153l83 399h138l-77 -371c-11 -55 3 -75 44 -75c49 0 79 30 91 89l74 357h138l-111 -538h-132zM406 602l84 144h138l-128 -144h-94zM240 602l84 144h138l-128 -144h-94z" />
    <glyph glyph-name="uogonek" unicode="&#x173;" 
d="M357 -132l32 -43c-43 -33 -71 -42 -112 -42c-65 0 -82 43 -73 83c10 48 50 85 118 134l13 63h-2c-40 -53 -94 -77 -153 -77c-87 0 -129 46 -106 153l83 399h138l-77 -371c-11 -55 3 -75 44 -75c49 0 79 30 91 89l74 357h138l-111 -538h-76c-33 -33 -80 -75 -93 -124
c-5 -17 6 -28 22 -28s26 4 50 20z" />
    <glyph glyph-name="wacute" unicode="&#x1e83;" horiz-adv-x="704" 
d="M124 0l-6 538h138l-16 -382h2l146 382h150l-8 -382h2l144 382h132l-227 -538h-157l8 382h-2l-146 -382h-160zM418 602l84 144h138l-128 -144h-94z" />
    <glyph glyph-name="wcircumflex" unicode="&#x175;" horiz-adv-x="704" 
d="M124 0l-6 538h138l-16 -382h2l146 382h150l-8 -382h2l144 382h132l-227 -538h-157l8 382h-2l-146 -382h-160zM324 602l108 144h144l48 -144h-106l-28 85l-66 -85h-100z" />
    <glyph glyph-name="wdieresis" unicode="&#x1e85;" horiz-adv-x="704" 
d="M124 0l-6 538h138l-16 -382h2l146 382h150l-8 -382h2l144 382h132l-227 -538h-157l8 382h-2l-146 -382h-160zM511 615l25 118h112l-25 -118h-112zM339 615l25 118h112l-25 -118h-112z" />
    <glyph glyph-name="wgrave" unicode="&#x1e81;" horiz-adv-x="704" 
d="M124 0l-6 538h138l-16 -382h2l146 382h150l-8 -382h2l144 382h132l-227 -538h-157l8 382h-2l-146 -382h-160zM530 602h-94l-68 144h138z" />
    <glyph glyph-name="yacute" unicode="&#xfd;" horiz-adv-x="444" 
d="M9 -176l21 103c12 -2 24 -3 36 -3c51 0 75 28 90 76l-40 538h144l3 -372h2l147 372h138l-234 -502c-87 -186 -123 -212 -251 -212h-56zM306 602l84 144h138l-128 -144h-94z" />
    <glyph glyph-name="ycircumflex" unicode="&#x177;" horiz-adv-x="444" 
d="M9 -176l21 103c12 -2 24 -3 36 -3c51 0 75 28 90 76l-40 538h144l3 -372h2l147 372h138l-234 -502c-87 -186 -123 -212 -251 -212h-56zM201 602l108 144h144l48 -144h-106l-28 85l-66 -85h-100z" />
    <glyph glyph-name="ydieresis" unicode="&#xff;" horiz-adv-x="444" 
d="M9 -176l21 103c12 -2 24 -3 36 -3c51 0 75 28 90 76l-40 538h144l3 -372h2l147 372h138l-234 -502c-87 -186 -123 -212 -251 -212h-56zM377 615l25 118h112l-25 -118h-112zM205 615l25 118h112l-25 -118h-112z" />
    <glyph glyph-name="ygrave" unicode="&#x1ef3;" horiz-adv-x="444" 
d="M9 -176l21 103c12 -2 24 -3 36 -3c51 0 75 28 90 76l-40 538h144l3 -372h2l147 372h138l-234 -502c-87 -186 -123 -212 -251 -212h-56zM400 602h-94l-68 144h138z" />
    <glyph glyph-name="zacute" unicode="&#x17a;" horiz-adv-x="426" 
d="M24 0l22 106l281 320h-205l23 112h368l-22 -106l-281 -320h215l-23 -112h-378zM277 602l84 144h138l-128 -144h-94z" />
    <glyph glyph-name="zcaron" unicode="&#x17e;" horiz-adv-x="426" 
d="M24 0l22 106l281 320h-205l23 112h368l-22 -106l-281 -320h215l-23 -112h-378zM259 602l-48 144h106l29 -85l65 85h100l-108 -144h-144z" />
    <glyph glyph-name="zdotaccent" unicode="&#x17c;" horiz-adv-x="426" 
d="M24 0l22 106l281 320h-205l23 112h368l-22 -106l-281 -320h215l-23 -112h-378zM301 733h112l-25 -118h-112z" />
    <glyph glyph-name="grave.cap" horiz-adv-x="222" 
d="M299 756h-94l-68 144h138z" />
    <glyph glyph-name="acute" unicode="&#xb4;" horiz-adv-x="222" 
d="M169 602l84 144h138l-128 -144h-94z" />
    <glyph glyph-name="acute.cap" horiz-adv-x="222" 
d="M169 756l84 144h138l-128 -144h-94z" />
    <glyph glyph-name="circumflex" unicode="&#x2c6;" horiz-adv-x="222" 
d="M84 602l108 144h144l48 -144h-106l-28 85l-66 -85h-100z" />
    <glyph glyph-name="circumflex.cap" horiz-adv-x="222" 
d="M84 756l108 144h144l48 -144h-106l-28 85l-66 -85h-100z" />
    <glyph glyph-name="caron" unicode="&#x2c7;" horiz-adv-x="222" 
d="M162 602l-48 144h106l29 -85l65 85h100l-108 -144h-144z" />
    <glyph glyph-name="caron.cap" horiz-adv-x="222" 
d="M162 756l-48 144h106l29 -85l65 85h100l-108 -144h-144z" />
    <glyph glyph-name="caron.alt" horiz-adv-x="222" 
d="M194 570l60 144h122l-94 -144h-88z" />
    <glyph glyph-name="tilde" unicode="&#x2dc;" horiz-adv-x="222" 
d="M149 611h-70c28 79 68 124 119 124c41 0 72 -34 114 -34c19 0 33 23 36 36h72c-23 -71 -68 -124 -119 -124c-43 0 -80 34 -112 34c-16 0 -29 -12 -40 -36z" />
    <glyph glyph-name="tilde.cap" horiz-adv-x="222" 
d="M149 765h-70c28 79 68 124 119 124c41 0 72 -34 114 -34c19 0 33 23 36 36h72c-23 -71 -68 -124 -119 -124c-43 0 -80 34 -112 34c-16 0 -29 -12 -40 -36z" />
    <glyph glyph-name="dieresis" unicode="&#xa8;" horiz-adv-x="222" 
d="M266 615l25 118h112l-25 -118h-112zM94 615l25 118h112l-25 -118h-112z" />
    <glyph glyph-name="dieresis.cap" horiz-adv-x="222" 
d="M266 769l25 118h112l-25 -118h-112zM94 769l25 118h112l-25 -118h-112z" />
    <glyph glyph-name="macron" unicode="&#xaf;" horiz-adv-x="222" 
d="M111 712h294l-16 -76h-294z" />
    <glyph glyph-name="macron.cap" horiz-adv-x="222" 
d="M111 866h294l-16 -76h-294z" />
    <glyph glyph-name="uni02C9" unicode="&#x2c9;" horiz-adv-x="222" 
d="M111 712h294l-16 -76h-294z" />
    <glyph glyph-name="breve" unicode="&#x2d8;" horiz-adv-x="222" 
d="M125 745h65c-4 -39 22 -65 61 -65s75 26 87 65h65c-13 -53 -59 -141 -168 -141c-108 0 -121 88 -110 141z" />
    <glyph glyph-name="breve.cap" horiz-adv-x="222" 
d="M125 899h65c-4 -39 22 -65 61 -65s75 26 87 65h65c-13 -53 -59 -141 -168 -141c-108 0 -121 88 -110 141z" />
    <glyph glyph-name="ring" unicode="&#x2da;" horiz-adv-x="222" 
d="M197 690c-7 -39 10 -58 46 -58c32 0 63 26 70 58c7 40 -10 58 -46 58c-32 0 -63 -26 -70 -58zM141 690c14 66 75 110 138 110c61 0 104 -42 90 -110c-13 -65 -77 -108 -138 -108s-105 42 -90 108z" />
    <glyph glyph-name="ring.cap" horiz-adv-x="222" 
d="M197 844c-7 -39 10 -58 46 -58c32 0 63 26 70 58c7 40 -10 58 -46 58c-32 0 -63 -26 -70 -58zM141 844c14 66 75 110 138 110c61 0 104 -42 90 -110c-13 -65 -77 -108 -138 -108s-105 42 -90 108z" />
    <glyph glyph-name="hungarumlaut" unicode="&#x2dd;" horiz-adv-x="222" 
d="M252 602l84 144h138l-128 -144h-94zM86 602l84 144h138l-128 -144h-94z" />
    <glyph glyph-name="hungarumlaut.cap" horiz-adv-x="222" 
d="M252 756l84 144h138l-128 -144h-94zM86 756l84 144h138l-128 -144h-94z" />
    <glyph glyph-name="dotaccent" unicode="&#x2d9;" horiz-adv-x="222" 
d="M205 733h112l-25 -118h-112z" />
    <glyph glyph-name="dotaccent.cap" horiz-adv-x="222" 
d="M205 829h112l-25 -118h-112z" />
    <glyph glyph-name="cedilla" unicode="&#xb8;" horiz-adv-x="222" 
d="M92 0h54l-50 -58c13 4 21 5 37 5c42 0 74 -23 63 -72c-12 -56 -65 -92 -146 -92c-37 0 -64 6 -95 19l28 46c23 -12 41 -15 65 -15c28 0 53 16 58 32c6 20 -10 34 -37 34c-15 0 -23 -2 -35 -6l-18 20z" />
    <glyph glyph-name="ogonek" unicode="&#x2db;" horiz-adv-x="222" 
d="M163 -132l36 -43c-48 -33 -79 -42 -124 -42c-74 0 -91 43 -82 83c11 48 56 85 131 134h63c-35 -32 -92 -73 -104 -124c-5 -17 6 -28 25 -28c17 0 28 4 55 20z" />
    <glyph glyph-name="commaaccent" horiz-adv-x="240" 
d="M40 -50h112l-20 -97c-19 -88 -72 -104 -119 -106l7 36c24 7 39 18 47 49h-51z" />
    <glyph glyph-name="commaaccent.alt" horiz-adv-x="240" 
d="M298 596h-112l21 97c17 88 72 104 119 106l-8 -36c-24 -7 -38 -18 -46 -49h51z" />
    <glyph glyph-name="ellipsis" unicode="&#x2026;" horiz-adv-x="1000" 
d="M799 156h132l-32 -156h-132zM466 156h132l-32 -156h-132zM133 156h132l-32 -156h-132z" />
    <glyph glyph-name="uni00AD" unicode="&#xad;" horiz-adv-x="370" 
d="M116 348h282l-25 -118h-282z" />
    <glyph glyph-name="exclamdown" unicode="&#xa1;" horiz-adv-x="296" 
d="M163 406l27 132h138l-27 -132h-138zM42 -176l48 232l78 283h100l-40 -283l-48 -232h-138z" />
    <glyph glyph-name="questiondown" unicode="&#xbf;" horiz-adv-x="481" 
d="M403 406h-138l27 132h138zM322 45h132l-5 -23c-24 -120 -110 -206 -241 -206c-140 0 -195 76 -171 193c12 55 36 101 96 156l49 45c43 39 62 64 73 115l3 15h124l-8 -39c-13 -66 -40 -107 -95 -157l-47 -43c-35 -31 -51 -66 -60 -106c-11 -51 6 -85 51 -85
c51 0 79 45 94 110z" />
    <glyph glyph-name="quoteleft" unicode="&#x2018;" horiz-adv-x="260" 
d="M145 393l27 130c21 107 63 180 172 191l-15 -70c-36 -7 -60 -42 -68 -79l-3 -16h52l-33 -156h-132z" />
    <glyph glyph-name="quoteright" unicode="&#x2019;" horiz-adv-x="260" 
d="M344 714l-27 -130c-21 -107 -63 -180 -172 -191l15 70c36 7 60 42 68 79l4 16h-52l32 156h132z" />
    <glyph glyph-name="quotedblleft" unicode="&#x201c;" horiz-adv-x="463" 
d="M149 393l27 130c21 107 63 180 172 191l-15 -70c-36 -7 -60 -42 -68 -79l-3 -16h52l-33 -156h-132zM344 393l27 130c21 107 63 180 172 191l-15 -70c-36 -7 -60 -42 -68 -79l-3 -16h52l-33 -156h-132z" />
    <glyph glyph-name="quotedblright" unicode="&#x201d;" horiz-adv-x="463" 
d="M379 558l32 156h132l-27 -130c-21 -107 -63 -180 -172 -191l15 70c36 7 60 42 68 79l4 16h-52zM184 558l32 156h132l-27 -130c-21 -107 -63 -180 -172 -191l15 70c36 7 60 42 68 79l4 16h-52z" />
    <glyph glyph-name="quotesinglbase" unicode="&#x201a;" horiz-adv-x="260" 
d="M96 156h132l-27 -130c-21 -107 -63 -180 -172 -191l15 70c36 7 60 42 68 79l4 16h-52z" />
    <glyph glyph-name="quotedblbase" unicode="&#x201e;" horiz-adv-x="463" 
d="M68 0l32 156h132l-27 -130c-21 -107 -63 -180 -172 -191l15 70c36 7 60 42 68 79l4 16h-52zM263 0l32 156h132l-27 -130c-21 -107 -63 -180 -172 -191l15 70c36 7 60 42 68 79l4 16h-52z" />
    <glyph glyph-name="guilsinglleft" unicode="&#x2039;" horiz-adv-x="241" 
d="M89 208l33 162l174 120l-27 -132l-93 -69l64 -69l-27 -132z" />
    <glyph glyph-name="guilsinglright" unicode="&#x203a;" horiz-adv-x="241" 
d="M64 88l27 132l94 69l-65 69l27 132l124 -120l-33 -162z" />
    <glyph glyph-name="guillemotleft" unicode="&#xab;" horiz-adv-x="426" 
d="M95 208l33 162l174 120l-27 -132l-93 -69l64 -69l-27 -132zM268 208l33 162l174 120l-27 -132l-93 -69l64 -69l-27 -132z" />
    <glyph glyph-name="guillemotright" unicode="&#xbb;" horiz-adv-x="426" 
d="M243 88l27 132l94 69l-65 69l27 132l124 -120l-33 -162zM70 88l27 132l94 69l-65 69l27 132l124 -120l-33 -162z" />
    <glyph glyph-name="endash" unicode="&#x2013;" 
d="M48 233l23 112h500l-23 -112h-500z" />
    <glyph glyph-name="emdash" unicode="&#x2014;" horiz-adv-x="1000" 
d="M128 233l23 112h840l-23 -112h-840z" />
    <glyph glyph-name="bullet" unicode="&#x2022;" 
d="M146 357c19 99 117 178 215 178c100 0 160 -79 141 -178c-21 -99 -117 -178 -215 -178s-162 79 -141 178z" />
    <glyph glyph-name="periodcentered" unicode="&#xb7;" horiz-adv-x="240" 
d="M81 282c11 54 63 97 117 97c55 0 88 -42 77 -97c-11 -54 -63 -97 -117 -97c-55 0 -88 42 -77 97z" />
    <glyph glyph-name="uni2219" unicode="&#x2219;" horiz-adv-x="240" 
d="M81 282c11 54 63 97 117 97c55 0 88 -42 77 -97c-11 -54 -63 -97 -117 -97c-55 0 -88 42 -77 97z" />
    <glyph glyph-name="dagger" unicode="&#x2020;" horiz-adv-x="480" 
d="M278 516l41 198h138l-41 -198h168l-24 -112h-168l-112 -542h-138l112 542h-168l24 112h168z" />
    <glyph glyph-name="daggerdbl" unicode="&#x2021;" horiz-adv-x="480" 
d="M142 -138l39 190h-168l24 112h168l51 248h-168l23 112h168l40 190h138l-40 -190h168l-23 -112h-168l-51 -248h168l-24 -112h-168l-39 -190h-138z" />
    <glyph glyph-name="section" unicode="&#xa7;" horiz-adv-x="481" 
d="M221 272c38 -22 116 -63 126 -72c41 29 54 47 58 68c7 35 -5 54 -51 82l-85 51c-43 -23 -66 -50 -71 -75c-4 -19 4 -43 23 -54zM45 37h132l-3 -15c-11 -51 13 -80 53 -80c47 0 73 34 80 67c8 37 -3 61 -46 84l-111 64c-66 38 -87 85 -74 149c13 63 59 115 120 143
c-34 30 -46 68 -36 114c24 119 126 165 239 165c137 0 175 -68 156 -162h-132c4 19 4 36 -4 49c-7 13 -24 19 -51 19c-39 0 -67 -25 -74 -57c-4 -23 7 -46 50 -69l107 -56c55 -29 96 -75 77 -163c-10 -49 -60 -117 -108 -142c28 -27 40 -65 28 -124
c-24 -120 -111 -175 -240 -175c-137 0 -189 67 -166 174z" />
    <glyph glyph-name="paragraph" unicode="&#xb6;" horiz-adv-x="480" 
d="M153 -138l98 473c-119 0 -167 65 -142 186c32 153 120 193 238 193h268l-177 -852h-106l157 758h-73l-157 -758h-106z" />
    <glyph glyph-name="brokenbar" unicode="&#xa6;" horiz-adv-x="222" 
d="M144 457l56 271h124l-56 -271h-124zM46 -14l56 271h124l-56 -271h-124z" />
    <glyph glyph-name="copyright" unicode="&#xa9;" horiz-adv-x="800" 
d="M103 357c43 205 243 371 448 371s337 -166 294 -371s-244 -371 -448 -371c-205 0 -337 166 -294 371zM215 357c-30 -145 55 -265 204 -265c150 0 284 120 314 265s-55 265 -204 265c-150 0 -284 -120 -314 -265zM556 298h100c-34 -101 -128 -156 -212 -156
c-128 0 -186 97 -162 218c27 123 121 218 250 218c89 0 155 -53 147 -153h-96c-3 39 -23 67 -74 67c-69 0 -117 -56 -133 -132c-16 -72 14 -132 77 -132c49 0 88 27 103 70z" />
    <glyph glyph-name="registered" unicode="&#xae;" horiz-adv-x="800" 
d="M215 357c-30 -145 55 -265 204 -265c150 0 284 120 314 265s-55 265 -204 265c-150 0 -284 -120 -314 -265zM103 357c43 205 243 371 448 371s337 -166 294 -371s-244 -371 -448 -371c-205 0 -337 166 -294 371zM444 487l-21 -99h67c39 0 69 7 78 50c8 44 -32 49 -66 49
h-58zM287 157l83 400h156c104 0 145 -44 129 -124c-15 -67 -66 -104 -123 -111l65 -165h-96l-60 161h-32l-34 -161h-88z" />
    <glyph glyph-name="trademark" unicode="&#x2122;" horiz-adv-x="990" 
d="M205 300l66 320h-112l20 94h336l-20 -94h-112l-66 -320h-112zM904 300l59 284h-2l-154 -284h-100l-36 284h-2l-59 -284h-106l86 414h169l31 -250h2l135 250h169l-86 -414h-106z" />
    <glyph glyph-name="currency" unicode="&#xa4;" horiz-adv-x="480" 
d="M189 347c-17 -80 21 -129 96 -129s133 49 150 129c16 80 -22 129 -97 129s-133 -49 -149 -129zM83 107l-48 62l60 50c-16 36 -23 80 -12 128c9 47 33 91 65 128l-39 50l74 62l40 -50c43 25 89 39 136 39c48 0 89 -15 120 -39l62 50l48 -62l-61 -50c18 -37 22 -79 13 -128
c-10 -47 -32 -90 -66 -128l40 -50l-74 -62l-41 51c-41 -25 -88 -40 -136 -40c-47 0 -87 13 -120 40z" />
    <glyph glyph-name="Euro" unicode="&#x20ac;" horiz-adv-x="480" 
d="M616 661l-67 -100c-25 34 -55 51 -88 51c-39 0 -68 -16 -88 -49c-12 -19 -25 -51 -38 -98h168l-45 -78h-142l-11 -51h132l-45 -78h-101c-8 -51 -12 -87 -9 -108c4 -41 25 -61 63 -61c35 0 82 22 143 67l-26 -125c-57 -30 -111 -45 -160 -45c-135 0 -186 91 -154 272h-69
l45 78h38l12 51h-68l46 78h41c48 164 141 246 279 246c59 0 107 -17 144 -50z" />
    <glyph glyph-name="cent" unicode="&#xa2;" horiz-adv-x="480" 
d="M200 -102l19 88c-104 5 -179 57 -131 279c32 151 87 274 248 287l16 76h52l-16 -76c86 -5 163 -42 131 -204h-132c8 41 13 91 -20 104l-76 -366c43 24 59 82 67 123h132c-27 -133 -94 -208 -219 -223l-19 -88h-52zM239 86l76 366c-47 -16 -67 -77 -88 -181
c-16 -80 -37 -169 12 -185z" />
    <glyph glyph-name="sterling" unicode="&#xa3;" horiz-adv-x="480" 
d="M72 306l17 82h67c-18 58 -23 105 -15 142c19 99 108 178 251 178c137 0 202 -60 175 -207h-132c3 15 5 30 5 43c0 41 -16 70 -60 70c-63 0 -92 -39 -100 -79c-3 -15 -4 -51 7 -90l16 -57h167l-17 -82h-141c2 -9 1 -22 -3 -39c-13 -59 -44 -100 -122 -156l3 -2
c8 3 32 7 47 7c28 0 72 -30 107 -30c21 0 62 13 113 42l25 -94c-56 -31 -110 -48 -159 -48c-47 0 -115 36 -175 36c-33 0 -60 -8 -104 -28l-23 86c79 44 139 109 154 177c3 16 3 32 -1 49h-102z" />
    <glyph glyph-name="florin" unicode="&#x192;" horiz-adv-x="480" 
d="M135 346l33 82h105l36 89c56 142 115 197 239 197c24 0 51 0 74 -3l-38 -94c-11 3 -19 3 -28 3c-64 0 -83 -26 -120 -119l-31 -73h110l-32 -82h-111l-136 -342c-46 -113 -95 -180 -236 -180c-31 0 -57 2 -70 7l39 91c11 -3 22 -4 33 -4c59 0 77 27 106 98l132 330h-105z
" />
    <glyph glyph-name="yen" unicode="&#xa5;" horiz-adv-x="480" 
d="M178 0l33 159h-142l17 82h142l9 43l-7 23h-131l17 82h92l-81 305h149l51 -269h2l168 269h144l-209 -305h92l-17 -82h-131l-15 -23l-9 -43h142l-17 -82h-142l-33 -159h-124z" />
    <glyph glyph-name="ordfeminine" unicode="&#xaa;" horiz-adv-x="314" 
d="M292 478l12 59c-13 -8 -27 -12 -38 -15l-27 -8c-19 -6 -27 -22 -31 -41c-5 -23 0 -42 23 -42c21 0 54 12 61 47zM419 609l-36 -172c-7 -31 -7 -43 -2 -63h-100c-3 11 -3 24 -3 35c-29 -34 -56 -42 -103 -42c-64 0 -78 49 -70 92c13 63 43 89 110 102l61 12
c28 6 40 17 43 34c5 23 -5 37 -30 37c-27 0 -44 -16 -49 -39l-2 -9h-94l3 13c16 75 77 99 158 99c116 0 125 -41 114 -99z" />
    <glyph glyph-name="ordmasculine" unicode="&#xba;" horiz-adv-x="314" 
d="M223 537c-13 -61 -17 -106 23 -106c33 0 52 30 67 106c16 76 10 107 -23 107c-42 0 -54 -46 -67 -107zM123 537c24 112 70 171 181 171c116 3 133 -57 109 -171c-23 -111 -71 -170 -180 -170c-118 -2 -131 66 -110 170z" />
    <glyph glyph-name="onesuperior" unicode="&#xb9;" horiz-adv-x="360" 
d="M155 400l60 290h-91l15 70h8c61 0 104 21 123 68h86l-89 -428h-112z" />
    <glyph glyph-name="twosuperior" unicode="&#xb2;" horiz-adv-x="360" 
d="M352 400h-312c16 76 55 135 140 188l57 36c44 28 59 50 66 81c7 27 -6 47 -33 47c-44 0 -58 -41 -66 -73h-106l5 25c16 80 70 124 186 124c107 0 142 -43 129 -108c-11 -55 -32 -90 -93 -130l-66 -44c-41 -27 -59 -48 -66 -64h176z" />
    <glyph glyph-name="threesuperior" unicode="&#xb3;" horiz-adv-x="360" 
d="M62 536h106c-7 -37 -2 -67 35 -67c32 0 49 24 56 53c5 34 -5 63 -47 63h-28l15 70h28c39 0 59 26 65 53c6 25 -8 44 -32 44c-37 0 -52 -28 -59 -60h-100c10 46 29 80 58 103c28 22 67 33 116 33c100 0 141 -33 125 -109c-11 -52 -43 -86 -90 -95v-2
c57 -11 72 -47 61 -100c-14 -57 -51 -129 -196 -129c-100 0 -132 49 -115 133z" />
    <glyph glyph-name="fraction" unicode="&#x2044;" horiz-adv-x="167" 
d="M-170 -31l562 756h89l-562 -756h-89z" />
    <glyph glyph-name="uni2215" unicode="&#x2215;" horiz-adv-x="167" 
d="M-170 -31l562 756h89l-562 -756h-89z" />
    <glyph glyph-name="onehalf" unicode="&#xbd;" horiz-adv-x="850" 
d="M758 0h-312c15 76 55 135 140 188l57 36c44 28 59 50 66 81c5 27 -6 47 -33 47c-44 0 -58 -41 -66 -73h-106l5 25c16 80 69 124 185 124c107 0 144 -43 130 -108c-12 -55 -33 -90 -93 -130l-66 -44c-41 -27 -59 -48 -66 -64h176zM186 280l60 290h-91l15 70h8
c61 0 104 21 123 68h86l-89 -428h-112zM102 -31l563 756h89l-563 -756h-89z" />
    <glyph glyph-name="onethird" unicode="&#x2153;" horiz-adv-x="850" 
d="M192 280l60 290h-91l15 70h8c61 0 104 21 123 68h86l-89 -428h-112zM108 -31l563 756h89l-563 -756h-89zM479 138h106c-7 -37 -2 -67 35 -67c32 0 50 24 56 53c7 34 -5 63 -47 63h-28l15 70h28c39 0 59 26 65 53c6 25 -8 44 -32 44c-37 0 -52 -28 -59 -60h-100
c10 46 29 80 58 103c28 22 67 33 116 33c100 0 141 -33 125 -109c-11 -52 -43 -86 -90 -95v-2c57 -11 72 -47 61 -100c-14 -57 -51 -129 -196 -129c-100 0 -132 49 -115 133z" />
    <glyph glyph-name="onequarter" unicode="&#xbc;" horiz-adv-x="850" 
d="M187 280l60 290h-91l15 70h8c61 0 104 21 123 68h86l-89 -428h-112zM127 -31l563 756h89l-563 -756h-89zM455 77l18 91l206 260h124l-55 -269h44l-17 -82h-44l-16 -77h-106l16 77h-170zM642 159l30 145h-2l-116 -145h88z" />
    <glyph glyph-name="oneeighth" unicode="&#x215b;" horiz-adv-x="850" 
d="M163 280l60 290h-91l15 70h8c61 0 104 21 123 68h86l-89 -428h-112zM103 -31l563 756h89l-563 -756h-89zM472 127c9 47 37 85 81 102c-24 15 -36 48 -31 79c15 85 82 120 174 120c83 0 143 -32 127 -124c-5 -26 -25 -60 -64 -77c38 -21 47 -63 39 -104
c-10 -49 -48 -131 -188 -131c-87 0 -157 38 -138 135zM583 125c-7 -30 -3 -59 37 -59c43 0 58 28 66 63c7 30 2 58 -36 58c-43 0 -59 -28 -67 -62zM630 306c-5 -24 1 -45 31 -45c27 0 47 16 55 49c6 25 -1 45 -31 45c-31 0 -48 -16 -55 -49z" />
    <glyph glyph-name="twothirds" unicode="&#x2154;" horiz-adv-x="850" 
d="M168 -31l563 756h89l-563 -756h-89zM539 138h106c-7 -37 -2 -67 35 -67c32 0 50 24 56 53c7 34 -5 63 -47 63h-28l15 70h28c39 0 59 26 65 53c6 25 -8 44 -32 44c-37 0 -52 -28 -59 -60h-100c10 46 29 80 58 103c28 22 67 33 116 33c100 0 141 -33 125 -109
c-11 -52 -43 -86 -90 -95v-2c57 -11 72 -47 61 -100c-14 -57 -51 -129 -196 -129c-100 0 -132 49 -115 133zM361 280h-312c15 76 55 135 140 188l57 36c44 28 59 50 66 81c5 27 -6 47 -33 47c-44 0 -58 -41 -66 -73h-106l5 25c16 80 69 124 185 124c107 0 144 -43 130 -108
c-12 -55 -33 -90 -93 -130l-66 -44c-41 -27 -59 -48 -66 -64h176z" />
    <glyph glyph-name="threequarters" unicode="&#xbe;" horiz-adv-x="850" 
d="M121 416h106c-7 -37 -2 -67 35 -67c32 0 50 24 56 53c7 34 -5 63 -47 63h-28l15 70h28c39 0 59 26 65 53c6 25 -8 44 -32 44c-37 0 -52 -28 -59 -60h-100c10 46 29 80 58 103c28 22 67 33 116 33c100 0 141 -33 125 -109c-11 -52 -43 -86 -90 -95v-2
c57 -11 72 -47 61 -100c-14 -57 -51 -129 -196 -129c-100 0 -132 49 -115 133zM163 -31l563 756h89l-563 -756h-89zM551 159h88l30 145h-2zM452 77l18 91l206 260h124l-55 -269h44l-17 -82h-44l-16 -77h-106l16 77h-170z" />
    <glyph glyph-name="threeeighths" unicode="&#x215c;" horiz-adv-x="850" 
d="M95 416h106c-7 -37 -2 -67 35 -67c32 0 50 24 56 53c7 34 -5 63 -47 63h-28l15 70h28c39 0 59 26 65 53c6 25 -8 44 -32 44c-37 0 -52 -28 -59 -60h-100c10 46 29 80 58 103c28 22 67 33 116 33c100 0 141 -33 125 -109c-11 -52 -43 -86 -90 -95v-2
c57 -11 72 -47 61 -100c-14 -57 -51 -129 -196 -129c-100 0 -132 49 -115 133zM137 -31l563 756h89l-563 -756h-89zM487 127c9 47 37 85 81 102c-24 15 -36 48 -31 79c15 85 82 120 174 120c83 0 143 -32 127 -124c-5 -26 -25 -60 -64 -77c38 -21 47 -63 39 -104
c-10 -49 -48 -131 -188 -131c-87 0 -157 38 -138 135zM598 125c-7 -30 -3 -59 37 -59c43 0 58 28 66 63c7 30 2 58 -36 58c-43 0 -59 -28 -67 -62zM645 306c-5 -24 1 -45 31 -45c27 0 47 16 55 49c6 25 -1 45 -31 45c-31 0 -48 -16 -55 -49z" />
    <glyph glyph-name="fiveeighths" unicode="&#x215d;" horiz-adv-x="850" 
d="M137 -31l563 756h89l-563 -756h-89zM487 127c9 47 37 85 81 102c-24 15 -36 48 -31 79c15 85 82 120 174 120c83 0 143 -32 127 -124c-5 -26 -25 -60 -64 -77c38 -21 47 -63 39 -104c-10 -49 -48 -131 -188 -131c-87 0 -157 38 -138 135zM598 125c-7 -30 -3 -59 37 -59
c43 0 58 28 66 63c7 30 2 58 -36 58c-43 0 -59 -28 -67 -62zM645 306c-5 -24 1 -45 31 -45c27 0 47 16 55 49c6 25 -1 45 -31 45c-31 0 -48 -16 -55 -49zM450 700l-17 -84h-183l-20 -64c23 14 50 21 84 21c89 0 117 -60 101 -142c-18 -94 -66 -159 -195 -159
c-98 0 -129 43 -131 86c-1 14 0 28 5 58h108c-2 -25 -13 -67 27 -67c38 0 61 25 71 72c7 33 16 75 -34 75c-27 0 -44 -14 -52 -37h-103l70 241h269z" />
    <glyph glyph-name="seveneighths" unicode="&#x215e;" horiz-adv-x="850" 
d="M108 -31l563 756h89l-563 -756h-89zM468 127c9 47 37 85 81 102c-24 15 -36 48 -31 79c15 85 82 120 174 120c83 0 143 -32 127 -124c-5 -26 -25 -60 -64 -77c38 -21 47 -63 39 -104c-10 -49 -48 -131 -188 -131c-87 0 -157 38 -138 135zM579 125c-7 -30 -3 -59 37 -59
c43 0 58 28 66 63c7 30 2 58 -36 58c-43 0 -59 -28 -67 -62zM626 306c-5 -24 1 -45 31 -45c27 0 47 16 55 49c6 25 -1 45 -31 45c-31 0 -48 -16 -55 -49zM158 700h316l-17 -79c-102 -96 -175 -224 -215 -341h-119c37 103 100 224 210 329h-194z" />
    <glyph glyph-name="perthousand" unicode="&#x2030;" horiz-adv-x="1093" 
d="M121 -31l563 756h89l-563 -756h-89zM571 181c-16 -80 -21 -119 19 -119s53 39 69 119c15 72 19 111 -21 111s-52 -39 -67 -111zM464 177c27 129 66 191 190 191s137 -62 110 -191s-65 -191 -189 -191s-138 62 -111 191zM241 521c-17 -80 -21 -119 19 -119s52 39 69 119
c15 72 19 111 -21 111s-52 -39 -67 -111zM134 517c27 129 66 191 190 191s137 -62 110 -191s-66 -191 -190 -191s-137 62 -110 191zM802 177c27 129 66 191 190 191s137 -62 110 -191s-65 -191 -189 -191s-138 62 -111 191zM909 181c-16 -80 -21 -119 19 -119s53 39 69 119
c15 72 19 111 -21 111s-52 -39 -67 -111z" />
    <glyph glyph-name="minus" unicode="&#x2212;" horiz-adv-x="600" 
d="M86 191l26 124h506l-26 -124h-506z" />
    <glyph glyph-name="plusminus" unicode="&#xb1;" horiz-adv-x="600" 
d="M47 0l25 124h506l-25 -124h-506zM320 398l23 108h124l-23 -108h191l-26 -124h-191l-22 -108h-124l22 108h-191l26 124h191z" />
    <glyph glyph-name="multiply" unicode="&#xd7;" horiz-adv-x="600" 
d="M79 98l188 155l-124 155l104 86l123 -156l187 156l68 -86l-188 -155l124 -155l-104 -86l-123 156l-187 -156z" />
    <glyph glyph-name="divide" unicode="&#xf7;" horiz-adv-x="600" 
d="M211 41c11 54 63 97 117 97c55 0 88 -42 77 -97c-11 -54 -63 -97 -117 -97c-55 0 -88 42 -77 97zM299 465c11 54 63 97 117 97c55 0 88 -42 77 -97c-11 -54 -63 -97 -117 -97c-55 0 -88 42 -77 97zM86 191l26 124h506l-26 -124h-506z" />
    <glyph glyph-name="notequal" unicode="&#x2260;" horiz-adv-x="593" 
d="M551 94h-285l-111 -155l-88 50l75 105h-116l24 113h173l80 112h-229l24 113h286l111 153l88 -49l-75 -104h115l-24 -113h-172l-80 -112h228z" />
    <glyph glyph-name="approxequal" unicode="&#x2248;" horiz-adv-x="593" 
d="M638 457c-29 -93 -89 -176 -195 -176c-74 0 -172 66 -233 66c-37 0 -64 -33 -76 -66h-75c26 89 87 175 188 175c80 0 165 -63 240 -63c38 0 62 30 76 64h75zM590 244c-28 -91 -86 -176 -189 -176c-77 0 -181 67 -238 67c-36 0 -64 -35 -76 -67h-74c26 88 88 177 188 177
c83 0 157 -64 240 -64c37 0 61 29 74 63h75z" />
    <glyph glyph-name="lessequal" unicode="&#x2264;" horiz-adv-x="593" 
d="M554 106l-489 170l24 113l562 174l-25 -118l-394 -112l347 -109zM523 -38h-524l23 113h525z" />
    <glyph glyph-name="greaterequal" unicode="&#x2265;" horiz-adv-x="593" 
d="M590 276l-561 -170l25 118l393 109l-346 112l25 118l488 -174zM523 -38h-524l23 113h525z" />
    <glyph glyph-name="logicalnot" unicode="&#xac;" horiz-adv-x="600" 
d="M449 98l42 202h-382l26 124h506l-68 -326h-124z" />
    <glyph glyph-name="Delta" unicode="&#x2206;" horiz-adv-x="552" 
d="M552 0h-552l339 714h184zM402 585l-205 -472h208l-1 472h-2z" />
    <glyph glyph-name="uni0394" unicode="&#x394;" horiz-adv-x="552" 
d="M552 0h-552l339 714h184zM402 585l-205 -472h208l-1 472h-2z" />
    <glyph glyph-name="Omega" unicode="&#x2126;" horiz-adv-x="556" 
d="M311 0l25 118c69 51 119 168 144 283c28 132 14 226 -68 226c-80 0 -144 -87 -175 -236c-25 -116 -20 -220 28 -271c-8 -40 -17 -80 -25 -120h-230l25 121c24 0 93 0 110 2h1c-57 74 -70 144 -44 267c47 217 147 339 331 339c183 0 222 -134 181 -329
c-27 -124 -70 -202 -155 -278h1v-1h111l-25 -121h-235z" />
    <glyph glyph-name="uni03A9" unicode="&#x3a9;" horiz-adv-x="556" 
d="M311 0l25 118c69 51 119 168 144 283c28 132 14 226 -68 226c-80 0 -144 -87 -175 -236c-25 -116 -20 -220 28 -271c-8 -40 -17 -80 -25 -120h-230l25 121c24 0 93 0 110 2h1c-57 74 -70 144 -44 267c47 217 147 339 331 339c183 0 222 -134 181 -329
c-27 -124 -70 -202 -155 -278h1v-1h111l-25 -121h-235z" />
    <glyph glyph-name="mu" unicode="&#xb5;" horiz-adv-x="509" 
d="M564 538l-83 -390c-12 -54 -12 -68 7 -68c9 0 17 2 31 7l-17 -82c-19 -12 -46 -19 -74 -19c-53 0 -89 22 -91 82h-2c-35 -61 -84 -82 -119 -82c-14 0 -29 4 -35 12l-37 -174h-138l152 714h139l-79 -370c-11 -51 2 -74 35 -74c46 0 85 37 99 103l73 341h139z" />
    <glyph glyph-name="uni03BC" unicode="&#x3bc;" horiz-adv-x="509" 
d="M564 538l-83 -390c-12 -54 -12 -68 7 -68c9 0 17 2 31 7l-17 -82c-19 -12 -46 -19 -74 -19c-53 0 -89 22 -91 82h-2c-35 -61 -84 -82 -119 -82c-14 0 -29 4 -35 12l-37 -174h-138l152 714h139l-79 -370c-11 -51 2 -74 35 -74c46 0 85 37 99 103l73 341h139z" />
    <glyph glyph-name="pi" unicode="&#x3c0;" horiz-adv-x="551" 
d="M542 99l-19 -89c-31 -15 -55 -23 -86 -23c-75 0 -109 46 -92 126l66 313h-106l-90 -426h-139l90 426h-67l24 112h527l-24 -112h-79l-58 -271c-7 -33 -17 -65 14 -65c13 0 22 3 39 9z" />
    <glyph glyph-name="degree" unicode="&#xb0;" horiz-adv-x="400" 
d="M244 560c-8 -40 17 -72 57 -72s79 32 87 72s-17 72 -57 72s-79 -32 -87 -72zM168 560c16 83 97 148 179 148c83 0 133 -65 117 -148s-97 -148 -179 -148c-83 0 -133 65 -117 148z" />
    <glyph glyph-name="afii61289" unicode="&#x2113;" 
d="M496 597c0 -113 -89 -216 -257 -330c-27 -111 -28 -128 -28 -141c0 -33 20 -46 44 -46c26 0 53 11 98 40h2l32 -75c-58 -41 -110 -59 -170 -59c-86 0 -135 47 -135 117c0 11 2 26 13 80l-61 -47h-2l-35 73l121 83l50 239c25 120 93 190 203 190c75 0 125 -55 125 -124z
M389 591c0 25 -13 45 -32 45c-24 0 -44 -21 -55 -74l-39 -182c64 54 126 138 126 211z" />
    <glyph glyph-name="estimated" unicode="&#x212e;" horiz-adv-x="600" 
d="M561 259h-404v-181c39 -39 87 -59 145 -59c83 0 143 36 193 120l35 -21c-61 -95 -123 -135 -228 -135c-157 0 -258 122 -258 276c0 155 101 276 258 276c154 0 258 -114 259 -276zM157 295h291v145c-42 40 -91 60 -147 60c-57 0 -105 -21 -144 -60v-145z" />
    <glyph glyph-name="eng" unicode="&#x14b;" 
d="M318 10l75 361c11 55 -3 75 -44 75c-49 0 -79 -30 -91 -89l-74 -357h-138l111 538h132l-13 -63h2c40 53 94 77 153 77c87 0 128 -46 105 -153l-90 -436c-19 -91 -63 -139 -186 -139c-16 0 -36 1 -56 2l21 100s8 -2 22 -2c48 0 58 26 71 86z" />
    <glyph glyph-name="Eng" unicode="&#x14a;" horiz-adv-x="574" 
d="M198 714h166l80 -471h1l95 471h132l-155 -751c-19 -91 -63 -139 -186 -139c-16 0 -36 1 -56 2l21 100s8 -2 22 -2c47 0 59 26 72 83l-103 493h-2l-103 -500h-132z" />
    <glyph glyph-name="infinity" unicode="&#x221e;" horiz-adv-x="823" 
d="M742 265c0 -104 -65 -187 -173 -187c-83 0 -141 54 -193 113c-56 -59 -104 -112 -192 -112c-108 0 -175 80 -175 184c0 103 64 183 171 183c88 0 144 -56 196 -119c51 62 108 120 194 120c107 0 172 -79 172 -182zM647 262c0 47 -30 85 -79 85c-52 0 -100 -51 -132 -87
c35 -39 80 -81 135 -81c49 0 76 37 76 83zM315 260c-33 36 -84 86 -135 86c-47 0 -76 -41 -76 -85c0 -48 30 -81 79 -81c52 0 100 43 132 80z" />
    <glyph glyph-name="partialdiff" unicode="&#x2202;" horiz-adv-x="560" 
d="M494 358c0 -171 -46 -371 -256 -371c-134 0 -221 97 -221 229c0 128 88 221 217 221c54 0 99 -19 141 -53v27c2 93 -34 219 -148 219c-48 0 -85 -20 -121 -49l-63 72c56 43 105 68 178 68c207 0 273 -187 273 -363zM374 264l-1 25c-32 38 -71 61 -122 61
c-82 0 -121 -65 -121 -140c0 -70 34 -136 112 -136c94 0 134 112 132 190z" />
    <glyph glyph-name="integral" unicode="&#x222b;" horiz-adv-x="614" 
d="M493 708c0 -30 -23 -55 -54 -55c-64 0 -47 76 -75 76c-15 0 -18 -16 -18 -28c0 -48 4 -97 4 -145l1 -470c0 -114 16 -300 -150 -300c-46 0 -113 23 -113 79c0 31 24 53 54 53c64 0 46 -76 74 -76c17 0 18 21 18 33c0 37 -4 74 -4 112l-1 529c0 68 -6 168 43 222
c29 32 67 47 110 47c46 0 111 -22 111 -77z" />
    <glyph glyph-name="radical" unicode="&#x221a;" horiz-adv-x="545" 
d="M533 786l-213 -1000h-110l-151 313l-51 -24l-44 93l155 71l126 -269l166 816h122z" />
    <glyph glyph-name="summation" unicode="&#x2211;" horiz-adv-x="654" 
d="M629 -214h-604v95l301 411l-288 400v94h579v-109h-421l272 -384l-290 -398h451v-109z" />
    <glyph glyph-name="product" unicode="&#x220f;" horiz-adv-x="743" 
d="M683 -214h-119v891h-385v-891h-119v1000h623v-1000z" />
    <glyph glyph-name="lozenge" unicode="&#x25ca;" horiz-adv-x="593" 
d="M528 356l-180 -391h-105l-178 391l179 391h104zM413 356l-117 279l-116 -279l116 -280z" />
    <glyph glyph-name="f_i" horiz-adv-x="537" 
d="M473 604l25 118h138l-25 -118h-138zM348 0l111 538h138l-111 -538h-138zM76 0l92 444h-70l19 94h70l13 61c20 97 82 129 171 129c25 0 49 -1 73 -3l-20 -98s-13 1 -27 1c-39 0 -55 -12 -62 -43l-10 -47h80l-19 -94h-80l-92 -444h-138z" />
    <glyph glyph-name="f_l" horiz-adv-x="537" 
d="M348 0l150 722h138l-150 -722h-138zM76 0l92 444h-70l19 94h70l13 61c20 97 82 129 171 129c25 0 49 -1 73 -3l-20 -98s-13 1 -27 1c-39 0 -55 -12 -62 -43l-10 -47h80l-19 -94h-80l-92 -444h-138z" />
    <glyph glyph-name="uniF8FF" unicode="&#xf8ff;" horiz-adv-x="512" 
d="M278 117h-56v67h56v-67zM271 234h-46l-2 17c0 37 4 64 13 81s24 37 46 59c43 41 50 58 50 83c0 48 -35 85 -76 85s-74 -27 -82 -95l-50 8c9 95 63 137 135 137c71 0 124 -52 124 -131c0 -43 -12 -73 -63 -120c-25 -22 -39 -39 -43 -52s-6 -37 -6 -72zM50 50h412v617h-412
v-617zM0 718h512v-718h-512v718z" />
    <glyph glyph-name="uni2010" unicode="&#x2010;" horiz-adv-x="370" 
d="M116 348h282l-25 -118h-282z" />
    <glyph glyph-name="afii00208" unicode="&#x2015;" horiz-adv-x="1000" 
d="M48 233l23 112h1000l-23 -112h-1000z" />
    <glyph glyph-name="interrobang" unicode="&#x203d;" horiz-adv-x="481" 
d="M327 199h-105l77 367c-21 -17 -36 -45 -43 -78l-4 -22h-122l4 20c19 92 85 162 186 181l10 47h101l-9 -45c106 -14 147 -79 127 -171c-10 -49 -34 -91 -92 -140l-49 -41c-42 -35 -68 -57 -78 -103zM189 132h138l-28 -132h-138zM421 492c7 31 -1 60 -21 78l-41 -194
c36 36 53 75 62 116z" />
    <glyph glyph-name="zero.superior" unicode="&#x2070;" horiz-adv-x="360" 
d="M67 602c24 118 56 226 206 226c140 0 142 -90 119 -210c-24 -117 -55 -226 -205 -226c-89 0 -128 31 -131 107c-1 28 3 62 11 103zM185 625c-17 -84 -22 -113 -21 -131c1 -22 12 -28 33 -28c41 0 58 33 87 174c9 40 13 68 11 86s-11 29 -33 29c-41 0 -57 -34 -77 -130z
" />
    <glyph glyph-name="four.superior" unicode="&#x2074;" horiz-adv-x="360" 
d="M135 559h88l30 145h-2zM36 477l18 91l206 260h124l-55 -269h44l-17 -82h-44l-16 -77h-106l16 77h-170z" />
    <glyph glyph-name="five.superior" unicode="&#x2075;" horiz-adv-x="360" 
d="M411 820l-17 -84h-183l-20 -64c23 14 50 21 84 21c89 0 117 -60 101 -142c-18 -94 -66 -159 -195 -159c-98 0 -129 43 -131 86c-1 14 0 28 5 58h108c-2 -25 -13 -67 27 -67c38 0 61 25 71 72c7 33 16 75 -34 75c-27 0 -44 -14 -52 -37h-103l70 241h269z" />
    <glyph glyph-name="six.superior" unicode="&#x2076;" horiz-adv-x="360" 
d="M402 705h-109c5 26 10 50 -26 50c-50 0 -64 -42 -77 -97c23 17 54 27 91 27c89 0 115 -57 100 -139c-18 -100 -82 -154 -195 -154c-127 0 -143 89 -122 203c22 120 51 233 218 233c65 0 124 -21 124 -86c0 -9 -1 -21 -4 -37zM168 535c-4 -31 -12 -69 33 -69
c40 0 55 31 65 73c7 29 7 66 -31 66c-37 0 -56 -20 -67 -70z" />
    <glyph glyph-name="seven.superior" unicode="&#x2077;" horiz-adv-x="360" 
d="M118 820h316l-17 -79c-102 -96 -175 -224 -215 -341h-119c37 103 100 224 210 329h-194z" />
    <glyph glyph-name="eight.superior" unicode="&#x2078;" horiz-adv-x="360" 
d="M54 527c9 47 37 85 81 102c-24 15 -36 48 -31 79c15 85 82 120 174 120c83 0 143 -32 127 -124c-5 -26 -25 -60 -64 -77c38 -21 47 -63 39 -104c-10 -49 -48 -131 -188 -131c-87 0 -157 38 -138 135zM165 525c-7 -30 -3 -59 37 -59c43 0 58 28 66 63c7 30 2 58 -36 58
c-43 0 -59 -28 -67 -62zM212 706c-5 -24 1 -45 31 -45c27 0 47 16 55 49c6 25 -1 45 -31 45c-31 0 -48 -16 -55 -49z" />
    <glyph glyph-name="nine.superior" unicode="&#x2079;" horiz-adv-x="360" 
d="M57 515h108c-5 -26 -8 -49 27 -49c50 0 66 40 78 96c-23 -16 -55 -27 -92 -27c-86 0 -114 59 -99 140c18 99 82 153 195 153c125 0 147 -81 121 -202c-25 -120 -50 -234 -218 -234c-64 0 -121 22 -124 86c0 9 1 21 4 37zM192 682c-6 -30 -11 -66 32 -66c37 0 56 20 67 69
c4 31 12 70 -33 70c-44 0 -58 -32 -66 -73z" />
    <glyph glyph-name="plus.superior" unicode="&#x207a;" horiz-adv-x="360" 
d="M149 400l22 111h-113l19 90h113l23 111h99l-23 -111h113l-19 -90h-113l-23 -111h-98z" />
    <glyph glyph-name="minus.superior" unicode="&#x207b;" horiz-adv-x="360" 
d="M383 511h-325l19 90h325z" />
    <glyph glyph-name="equal.superior" unicode="&#x207c;" horiz-adv-x="360" 
d="M46 448l18 91h325l-19 -91h-324zM71 573l19 91h325l-19 -91h-325z" />
    <glyph glyph-name="parenleft.superior" unicode="&#x207d;" horiz-adv-x="360" 
d="M265 872h93c-84 -99 -124 -176 -144 -271c-10 -41 -13 -77 -12 -112c2 -47 16 -97 42 -155h-87c-35 64 -52 125 -54 182c-2 31 0 60 7 89c18 84 66 174 155 267z" />
    <glyph glyph-name="parenright.superior" unicode="&#x207e;" horiz-adv-x="360" 
d="M215 872h87c36 -64 53 -125 55 -182c2 -30 -1 -61 -7 -89c-19 -83 -67 -175 -156 -267h-93c87 99 126 176 146 271c8 41 13 77 11 111c-2 47 -16 96 -43 156z" />
    <glyph glyph-name="n.superior" unicode="&#x207f;" horiz-adv-x="380" 
d="M55 400l71 326h103l-8 -43h1c32 36 75 53 124 53c70 0 104 -31 87 -114l-50 -222h-108l44 198c8 38 -6 56 -40 56c-40 0 -64 -25 -73 -66l-43 -188h-108z" />
    <glyph glyph-name="zero.inferior" unicode="&#x2080;" horiz-adv-x="360" 
d="M-33 32c24 118 56 226 206 226c140 0 142 -90 119 -210c-24 -117 -55 -226 -205 -226c-89 0 -128 31 -131 107c-1 28 3 62 11 103zM85 55c-17 -84 -22 -113 -21 -131c1 -22 12 -28 33 -28c41 0 57 33 87 174c9 40 13 68 11 86s-11 29 -33 29c-41 0 -58 -34 -77 -130z" />
    <glyph glyph-name="one.inferior" unicode="&#x2081;" horiz-adv-x="360" 
d="M171 -170h-112l60 289h-99l15 74h13c65 0 107 20 128 65h84z" />
    <glyph glyph-name="two.inferior" unicode="&#x2082;" horiz-adv-x="360" 
d="M252 -170h-312c15 76 55 135 140 188l57 36c44 28 59 50 66 81c5 27 -6 47 -33 47c-44 0 -58 -41 -66 -73h-106l5 25c16 80 69 124 185 124c107 0 144 -43 130 -108c-12 -55 -33 -90 -93 -130l-66 -44c-41 -27 -59 -48 -66 -64h176z" />
    <glyph glyph-name="three.inferior" unicode="&#x2083;" horiz-adv-x="360" 
d="M-38 -35h106c-7 -37 -2 -67 35 -67c32 0 50 24 56 53c7 34 -5 63 -47 63h-28l15 70h28c39 0 59 26 65 53c6 25 -8 44 -32 44c-37 0 -52 -28 -59 -60h-100c10 46 29 80 58 103c28 22 67 33 116 33c100 0 141 -33 125 -109c-11 -52 -43 -86 -90 -95v-2
c57 -11 72 -47 61 -100c-14 -57 -51 -129 -196 -129c-100 0 -132 49 -115 133z" />
    <glyph glyph-name="four.inferior" unicode="&#x2084;" horiz-adv-x="360" 
d="M44 -11h88l30 145h-2zM-55 -93l18 91l206 260h124l-55 -269h44l-17 -82h-44l-16 -77h-106l16 77h-170z" />
    <glyph glyph-name="five.inferior" unicode="&#x2085;" horiz-adv-x="360" 
d="M311 250l-17 -84h-183l-20 -64c23 14 50 21 84 21c89 0 117 -60 101 -142c-18 -94 -66 -159 -195 -159c-98 0 -129 43 -131 86c-1 14 0 28 5 58h108c-2 -25 -13 -67 27 -67c38 0 61 25 71 72c7 33 16 75 -34 75c-27 0 -44 -14 -52 -37h-103l70 241h269z" />
    <glyph glyph-name="six.inferior" unicode="&#x2086;" horiz-adv-x="360" 
d="M302 135h-109c5 26 10 50 -26 50c-50 0 -64 -42 -77 -97c23 17 54 27 91 27c89 0 115 -57 100 -139c-18 -100 -82 -154 -195 -154c-127 0 -143 89 -122 203c22 120 51 233 218 233c65 0 124 -21 124 -86c0 -9 -1 -21 -4 -37zM68 -35c-4 -31 -12 -69 33 -69
c40 0 55 31 65 73c7 29 7 66 -31 66c-37 0 -56 -20 -67 -70z" />
    <glyph glyph-name="seven.inferior" unicode="&#x2087;" horiz-adv-x="360" 
d="M18 250h316l-17 -79c-102 -96 -175 -224 -215 -341h-119c37 103 100 224 210 329h-194z" />
    <glyph glyph-name="eight.inferior" unicode="&#x2088;" horiz-adv-x="360" 
d="M-46 -43c9 47 37 85 81 102c-24 15 -36 48 -31 79c15 85 82 120 174 120c83 0 143 -32 127 -124c-5 -26 -25 -60 -64 -77c38 -21 47 -63 39 -104c-10 -49 -48 -131 -188 -131c-87 0 -157 38 -138 135zM65 -45c-7 -30 -3 -59 37 -59c43 0 58 28 66 63c7 30 2 58 -36 58
c-43 0 -59 -28 -67 -62zM112 136c-5 -24 1 -45 31 -45c27 0 47 16 55 49c6 25 -1 45 -31 45c-31 0 -48 -16 -55 -49z" />
    <glyph glyph-name="nine.inferior" unicode="&#x2089;" horiz-adv-x="360" 
d="M-43 -55h108c-5 -26 -8 -49 27 -49c50 0 66 40 78 96c-23 -16 -55 -27 -92 -27c-86 0 -114 59 -99 140c18 99 82 153 195 153c125 0 147 -81 121 -202c-25 -120 -50 -234 -218 -234c-64 0 -121 22 -124 86c0 9 1 21 4 37zM92 112c-6 -30 -11 -66 32 -66c37 0 56 20 67 69
c4 31 12 70 -33 70c-44 0 -58 -32 -66 -73z" />
    <glyph glyph-name="plus.inferior" unicode="&#x208a;" horiz-adv-x="360" 
d="M49 -170l22 111h-113l19 90h113l23 111h99l-23 -111h113l-19 -90h-113l-23 -111h-98z" />
    <glyph glyph-name="minus.inferior" unicode="&#x208b;" horiz-adv-x="360" 
d="M283 -59h-325l19 90h325z" />
    <glyph glyph-name="equal.inferior" unicode="&#x208c;" horiz-adv-x="360" 
d="M-54 -122l18 91h325l-19 -91h-324zM-29 3l19 91h325l-19 -91h-325z" />
    <glyph glyph-name="parenleft.inferior" unicode="&#x208d;" horiz-adv-x="360" 
d="M165 302h93c-84 -99 -124 -176 -144 -271c-10 -41 -13 -77 -12 -112c2 -47 16 -97 42 -155h-87c-35 64 -52 125 -54 182c-2 31 0 60 7 89c18 84 66 174 155 267z" />
    <glyph glyph-name="parenright.inferior" unicode="&#x208e;" horiz-adv-x="360" 
d="M115 302h87c36 -64 53 -125 55 -182c2 -30 -1 -61 -7 -89c-19 -83 -67 -175 -156 -267h-93c87 99 126 176 146 271c8 41 13 77 11 111c-2 47 -16 96 -43 156z" />
    <glyph glyph-name="afii61248" unicode="&#x2105;" horiz-adv-x="850" 
d="M149 -31l563 756h89l-563 -756h-89zM426 541h-113c8 35 25 86 -30 86c-48 0 -68 -39 -96 -151c-12 -44 -17 -75 -17 -96c0 -32 14 -39 38 -39c34 0 63 15 85 104h113c-25 -100 -74 -185 -208 -185c-153 0 -153 99 -122 226c34 130 74 222 229 222c106 0 131 -49 131 -101
c0 -20 -5 -44 -10 -66zM640 214c-11 -45 -18 -79 -18 -102c0 -27 12 -39 43 -39c56 0 75 40 102 145c11 45 18 78 18 101c0 28 -13 40 -43 40c-57 0 -76 -40 -102 -145zM528 218c34 130 74 222 229 222c145 0 156 -95 121 -226c-33 -130 -74 -222 -228 -222
c-153 0 -153 99 -122 226z" />
    <glyph glyph-name="afii61352" unicode="&#x2116;" horiz-adv-x="868" 
d="M426 0h-170l-55 486c-2 -28 -20 -124 -29 -165l-68 -321h-135l148 698h171l57 -472c4 32 16 100 23 134l71 338h135zM719 289c7 32 11 53 11 70c0 28 -11 41 -32 41c-33 0 -48 -21 -67 -114c-5 -24 -29 -112 22 -112c33 0 47 23 66 115zM748 0h-267l19 88h267zM750 151
c-27 -24 -65 -33 -105 -33c-73 0 -112 42 -112 100c0 63 24 178 83 216c23 15 53 24 88 24c74 0 114 -39 114 -99c0 -64 -18 -163 -68 -208z" />
    <glyph glyph-name="published" unicode="&#x2117;" horiz-adv-x="800" 
d="M215 357c-30 -145 55 -265 204 -265c150 0 284 120 314 265s-55 265 -204 265c-150 0 -284 -120 -314 -265zM103 357c43 205 243 371 448 371s337 -166 294 -371s-244 -371 -448 -371c-205 0 -337 166 -294 371zM300 156l85 401h156c96 0 148 -43 130 -127
c-17 -79 -86 -126 -170 -126h-83l-31 -148h-87zM457 487l-24 -113h70c41 0 68 20 76 58c8 36 -10 55 -53 55h-69z" />
    <glyph glyph-name="uni0374" unicode="&#x374;" horiz-adv-x="225" 
d="M164 572l62 174h138l-101 -174h-99z" />
    <glyph glyph-name="uni0375" unicode="&#x375;" horiz-adv-x="225" 
d="M137 -29l-62 -174h-138l101 174h99z" />
    <glyph glyph-name="uni037E" unicode="&#x37e;" horiz-adv-x="240" 
d="M162 521h132l-33 -156h-132zM86 156h132l-27 -130c-21 -107 -63 -180 -172 -191l15 70c36 7 60 42 68 79l4 16h-52z" />
    <glyph glyph-name="tonos" unicode="&#x384;" horiz-adv-x="225" 
d="M173 602l56 144h138l-95 -144h-99z" />
    <glyph glyph-name="tonos.cap" horiz-adv-x="225" 
d="M158 570l56 144h138l-95 -144h-99z" />
    <glyph glyph-name="dieresistonos" unicode="&#x385;" horiz-adv-x="382" 
d="M431 615l25 118h112l-25 -118h-112zM99 615l25 118h112l-25 -118h-112zM242 602l56 144h138l-95 -144h-99z" />
    <glyph glyph-name="Alphatonos" unicode="&#x386;" horiz-adv-x="611" 
d="M454 590l-136 -321h140l-2 321h-2zM55 0l337 714h178l41 -714h-150l-2 151h-190l-64 -151h-150zM121 570l56 144h138l-95 -144h-99z" />
    <glyph glyph-name="anoteleia" unicode="&#x387;" horiz-adv-x="240" 
d="M129 365l33 156h132l-33 -156h-132z" />
    <glyph glyph-name="Epsilontonos" unicode="&#x388;" horiz-adv-x="651" 
d="M368 714h399l-25 -118h-255l-35 -168h240l-24 -118h-240l-40 -192h265l-24 -118h-409zM121 570l56 144h138l-95 -144h-99z" />
    <glyph glyph-name="Etatonos" unicode="&#x389;" horiz-adv-x="736" 
d="M230 0l148 714h144l-57 -273h168l57 273h144l-148 -714h-144l65 317h-168l-65 -317h-144zM121 570l56 144h138l-95 -144h-99z" />
    <glyph glyph-name="Iotatonos" unicode="&#x38a;" horiz-adv-x="428" 
d="M371 0h-144l148 714h144zM121 570l56 144h138l-95 -144h-99z" />
    <glyph glyph-name="Omicrontonos" unicode="&#x38c;" horiz-adv-x="682" 
d="M379 357c-40 -192 -41 -265 44 -265s114 73 154 265c40 191 41 265 -44 265c-86 0 -114 -74 -154 -265zM235 357c46 217 103 371 320 371c216 0 212 -154 166 -371s-103 -371 -320 -371c-216 0 -212 154 -166 371zM121 570l56 144h138l-95 -144h-99z" />
    <glyph glyph-name="Upsilontonos" unicode="&#x38e;" horiz-adv-x="740" 
d="M371 714h162l37 -276h2l157 276h156l-275 -433l-58 -281h-144l58 281zM121 570l56 144h138l-95 -144h-99z" />
    <glyph glyph-name="Omegatonos" unicode="&#x38f;" horiz-adv-x="681" 
d="M436 0l25 118c69 51 119 168 144 283c28 132 14 226 -68 226c-80 0 -144 -87 -175 -236c-25 -116 -20 -220 28 -271l-25 -120h-230l25 121c24 0 93 0 110 2h1c-57 74 -70 144 -44 267c47 217 147 339 331 339c183 0 222 -134 181 -329c-27 -124 -70 -202 -155 -278h1v-1
h111l-25 -121h-235zM120 569l56 144h138l-95 -144h-99z" />
    <glyph glyph-name="iotadieresistonos" unicode="&#x390;" horiz-adv-x="258" 
d="M70 117l90 421h139l-82 -384c-4 -19 -6 -33 -6 -43c0 -16 6 -22 18 -22s23 3 39 9l-19 -89c-30 -15 -54 -23 -87 -23c-60 0 -97 28 -97 89c0 13 2 26 5 42zM375 615l25 118h112l-25 -118h-112zM43 615l25 118h112l-25 -118h-112zM186 602l56 144h138l-95 -144h-99z" />
    <glyph glyph-name="Alpha" unicode="&#x391;" horiz-adv-x="556" 
d="M399 590l-136 -321h140l-2 321h-2zM0 0l337 714h178l41 -714h-150l-2 151h-190l-64 -151h-150z" />
    <glyph glyph-name="Beta" unicode="&#x392;" horiz-adv-x="556" 
d="M260 321l-44 -215h56c69 0 121 25 138 108c16 83 -24 107 -88 107h-62zM320 608l-39 -187h41c80 0 120 26 135 94s-13 93 -85 93h-52zM50 0l148 714h241c117 0 195 -44 165 -181c-16 -77 -64 -136 -140 -156l-1 -2c77 -11 116 -70 96 -166c-24 -112 -98 -209 -266 -209
h-243z" />
    <glyph glyph-name="Gamma" unicode="&#x393;" horiz-adv-x="439" 
d="M50 0l151 714h377l-24 -116h-232l-127 -598h-145z" />
    <glyph glyph-name="Epsilon" unicode="&#x395;" horiz-adv-x="481" 
d="M198 714h399l-25 -118h-255l-35 -168h240l-24 -118h-240l-40 -192h265l-24 -118h-409z" />
    <glyph glyph-name="Zeta" unicode="&#x396;" horiz-adv-x="481" 
d="M24 0l21 105l365 491h-245l25 118h411l-23 -109l-368 -487h271l-24 -118h-433z" />
    <glyph glyph-name="Eta" unicode="&#x397;" horiz-adv-x="556" 
d="M50 0l148 714h144l-57 -273h168l57 273h144l-148 -714h-144l65 317h-168l-65 -317h-144z" />
    <glyph glyph-name="Theta" unicode="&#x398;" horiz-adv-x="556" 
d="M277 329l19 89h140l-19 -89h-140zM253 357c-40 -192 -41 -265 44 -265s114 73 154 265c40 191 41 265 -44 265c-86 0 -114 -74 -154 -265zM109 357c46 217 103 371 320 371c216 0 212 -154 166 -371s-103 -371 -320 -371c-216 0 -212 154 -166 371z" />
    <glyph glyph-name="Iota" unicode="&#x399;" horiz-adv-x="258" 
d="M201 0h-144l148 714h144z" />
    <glyph glyph-name="Kappa" unicode="&#x39a;" horiz-adv-x="537" 
d="M198 714h144l-60 -286h2l242 286h156l-258 -306l132 -408h-162l-87 293l-69 -81l-44 -212h-144z" />
    <glyph glyph-name="Lambda" unicode="&#x39b;" horiz-adv-x="552" 
d="M403 0l1 585h-2l-253 -585h-149l339 714h184l29 -714h-149z" />
    <glyph glyph-name="Mu" unicode="&#x39c;" horiz-adv-x="740" 
d="M53 0l148 714h214l-3 -504h2l208 504h213l-148 -714h-132l118 570h-2l-245 -570h-112l-9 570h-2l-118 -570h-132z" />
    <glyph glyph-name="Nu" unicode="&#x39d;" horiz-adv-x="574" 
d="M198 714h166l72 -489h2l102 489h132l-148 -714h-164l-73 500h-2l-103 -500h-132z" />
    <glyph glyph-name="Xi" unicode="&#x39e;" horiz-adv-x="426" 
d="M12 -1l26 119h398l-26 -119h-398zM138 595l25 119h402l-25 -119h-402zM113 309l26 120h330l-26 -120h-330z" />
    <glyph glyph-name="Omicron" unicode="&#x39f;" horiz-adv-x="556" 
d="M253 357c-40 -192 -41 -265 44 -265s114 73 154 265c40 191 41 265 -44 265c-86 0 -114 -74 -154 -265zM109 357c46 217 103 371 320 371c216 0 212 -154 166 -371s-103 -371 -320 -371c-216 0 -212 154 -166 371z" />
    <glyph glyph-name="Pi" unicode="&#x3a0;" horiz-adv-x="556" 
d="M50 0l151 714h456l-151 -714h-144l126 595h-168l-126 -595h-144z" />
    <glyph glyph-name="Rho" unicode="&#x3a1;" horiz-adv-x="519" 
d="M320 608l-45 -217h64c57 0 103 34 118 107c15 71 -5 110 -77 110h-60zM50 0l148 714h252c146 0 175 -107 151 -214c-29 -149 -136 -215 -271 -215h-77l-59 -285h-144z" />
    <glyph glyph-name="Sigma" unicode="&#x3a3;" horiz-adv-x="489" 
d="M473 0h-454l22 104l241 266l-125 240l22 104h432l-25 -119h-260l121 -222l-227 -255h278z" />
    <glyph glyph-name="Tau" unicode="&#x3a4;" horiz-adv-x="480" 
d="M160 714h456l-25 -118h-156l-123 -596h-144l123 596h-156z" />
    <glyph glyph-name="Upsilon" unicode="&#x3a5;" horiz-adv-x="520" 
d="M151 714h162l37 -276h2l157 276h156l-275 -433l-58 -281h-144l58 281z" />
    <glyph glyph-name="Phi" unicode="&#x3a6;" horiz-adv-x="652" 
d="M297 193l75 353c-60 -6 -104 -74 -126 -178c-23 -106 -7 -168 51 -175zM511 545l-74 -352c63 8 104 71 127 179c21 103 6 169 -53 173zM412 737h141l-16 -76c138 -8 206 -111 169 -289c-38 -179 -147 -278 -293 -293l-16 -79h-141l16 77c-139 13 -208 109 -169 291
c39 185 155 281 293 293z" />
    <glyph glyph-name="Chi" unicode="&#x3a7;" horiz-adv-x="537" 
d="M259 361l-91 353h159l44 -231l139 231h157l-239 -353l103 -361h-162l-53 242l-152 -242h-158z" />
    <glyph glyph-name="Psi" unicode="&#x3a8;" horiz-adv-x="671" 
d="M321 272l94 442h143l-94 -442c60 8 97 72 117 168l58 274h143l-58 -276c-36 -169 -134 -262 -283 -280l-33 -158h-144l33 157c-153 12 -202 105 -164 281l58 276h143l-58 -274c-21 -98 -12 -159 45 -168z" />
    <glyph glyph-name="Iotadieresis" unicode="&#x3aa;" horiz-adv-x="258" 
d="M201 0h-144l148 714h144zM317 769l25 118h112l-25 -118h-112zM145 769l25 118h112l-25 -118h-112z" />
    <glyph glyph-name="Upsilondieresis" unicode="&#x3ab;" horiz-adv-x="520" 
d="M151 714h162l37 -276h2l157 276h156l-275 -433l-58 -281h-144l58 281zM447 769l25 118h112l-25 -118h-112zM275 769l25 118h112l-25 -118h-112z" />
    <glyph glyph-name="alphatonos" unicode="&#x3ac;" horiz-adv-x="525" 
d="M369 267c10 47 15 83 15 111c0 47 -15 68 -48 68c-59 0 -86 -80 -106 -177c-10 -46 -16 -84 -16 -112c0 -43 13 -65 45 -65c56 0 82 42 110 175zM335 55h-2c-26 -40 -74 -69 -134 -69c-87 0 -127 50 -127 144c0 40 6 87 18 142c40 187 107 280 223 280
c60 0 91 -36 100 -66h2l11 52h139l-82 -384c-3 -16 -8 -32 -8 -44c0 -13 5 -21 21 -21c13 0 23 3 39 9l-19 -89c-30 -15 -54 -23 -85 -23c-57 0 -90 25 -96 69zM311 602l56 144h138l-95 -144h-99z" />
    <glyph glyph-name="epsilontonos" unicode="&#x3ad;" horiz-adv-x="438" 
d="M502 392h-132v6c0 35 -16 54 -48 54c-41 0 -72 -34 -72 -90c0 -24 12 -33 44 -33h58l-18 -89h-55c-56 0 -81 -59 -81 -111c0 -31 15 -49 42 -49c35 0 64 16 85 92h134c-45 -147 -114 -186 -242 -186c-98 0 -161 49 -161 136c0 68 31 143 111 174c-26 13 -44 40 -44 74
c0 115 88 182 213 182c101 0 172 -46 167 -141zM302 602l56 144h138l-95 -144h-99z" />
    <glyph glyph-name="etatonos" unicode="&#x3ae;" 
d="M46 0l111 538h132l-13 -63h2c40 53 94 77 153 77c87 0 127 -46 105 -153l-119 -575h-138l114 547c11 55 -3 75 -44 75c-49 0 -79 -30 -91 -89l-74 -357h-138zM289 602l56 144h138l-95 -144h-99z" />
    <glyph glyph-name="iotatonos" unicode="&#x3af;" horiz-adv-x="258" 
d="M70 117l90 421h139l-82 -384c-3 -14 -18 -65 12 -65c12 0 23 3 39 9l-19 -89c-30 -15 -54 -23 -87 -23c-82 0 -108 54 -92 131zM191 602l56 144h138l-95 -144h-99z" />
    <glyph glyph-name="upsilondieresistonos" unicode="&#x3b0;" horiz-adv-x="484" 
d="M160 538h138l-76 -359c-14 -65 -3 -87 39 -87c51 0 81 40 111 183c15 69 31 189 17 263h135c16 -79 -1 -196 -15 -261c-46 -219 -119 -291 -280 -291c-119 0 -176 50 -145 194zM484 615l25 118h112l-25 -118h-112zM152 615l25 118h112l-25 -118h-112zM295 602l56 144h138
l-95 -144h-99z" />
    <glyph glyph-name="alpha" unicode="&#x3b1;" horiz-adv-x="525" 
d="M369 267c8 37 44 179 -33 179c-59 0 -86 -80 -106 -177c-10 -46 -16 -84 -16 -112c0 -43 13 -65 45 -65c56 0 82 42 110 175zM335 55h-2c-26 -40 -74 -69 -134 -69c-87 0 -127 50 -127 144c0 40 6 87 18 142c40 187 107 280 223 280c60 0 91 -36 100 -66h2l11 52h139
l-82 -384c-6 -36 -11 -65 13 -65c13 0 23 3 39 9l-19 -89c-30 -15 -54 -23 -85 -23c-57 0 -90 25 -96 69z" />
    <glyph glyph-name="beta" unicode="&#x3b2;" horiz-adv-x="502" 
d="M8 -176l147 689c32 151 113 225 244 225c93 0 156 -35 156 -141c0 -90 -46 -154 -106 -168c58 -14 77 -66 77 -125c0 -25 -3 -52 -9 -78c-38 -174 -119 -240 -218 -240c-61 0 -88 31 -105 65l-47 -227h-139zM294 358l19 90h24c48 0 83 71 83 156c0 28 -11 43 -40 43
c-48 0 -66 -36 -90 -146l-46 -218c-25 -121 -19 -191 42 -191c34 0 69 37 89 133c7 34 11 60 11 79c0 46 -20 54 -51 54h-41z" />
    <glyph glyph-name="gamma" unicode="&#x3b3;" horiz-adv-x="437" 
d="M402 538h141c-75 -231 -192 -436 -274 -544c-11 -61 -21 -109 -34 -170h-135l28 130c13 60 19 153 19 250c0 124 -10 255 -28 334h140c8 -38 11 -95 11 -154c0 -87 -6 -181 -11 -236c28 33 121 301 143 390z" />
    <glyph glyph-name="delta" unicode="&#x3b4;" horiz-adv-x="479" 
d="M81 250c20 112 91 200 193 236c-41 42 -54 74 -54 105c0 73 56 147 191 147c41 0 101 -10 137 -39l-24 -112c-58 46 -106 49 -125 49c-26 0 -48 -9 -48 -33c0 -14 9 -30 41 -64c61 -65 118 -131 118 -229c0 -19 -2 -40 -7 -62c-38 -179 -97 -262 -246 -262
c-133 0 -184 71 -184 180c0 26 2 54 8 84zM219 250c-9 -40 -14 -73 -14 -100c0 -45 15 -70 51 -70c60 0 85 59 108 168c5 22 8 43 8 62c0 45 -15 85 -54 124c-48 -24 -79 -90 -99 -184z" />
    <glyph glyph-name="epsilon" unicode="&#x3b5;" horiz-adv-x="438" 
d="M502 392h-132v6c0 35 -16 54 -48 54c-41 0 -72 -34 -72 -90c0 -24 12 -33 44 -33h58l-18 -89h-55c-56 0 -81 -59 -81 -111c0 -31 15 -49 42 -49c35 0 64 16 85 92h134c-45 -147 -114 -186 -242 -186c-98 0 -161 49 -161 136c0 68 31 143 111 174c-26 13 -44 40 -44 74
c0 115 88 182 213 182c101 0 172 -46 167 -141z" />
    <glyph glyph-name="zeta" unicode="&#x3b6;" horiz-adv-x="376" 
d="M540 714l-21 -102c-192 -100 -260 -195 -291 -349c-7 -35 -11 -66 -11 -91c0 -51 17 -80 60 -80c57 0 96 -40 96 -99c0 -32 -10 -63 -34 -121h-128c22 50 30 85 30 101c0 15 -7 27 -32 27c-83 0 -132 62 -132 168c0 29 4 60 11 95c33 156 101 255 268 339h-162l24 112
h322z" />
    <glyph glyph-name="eta" unicode="&#x3b7;" 
d="M46 0l111 538h132l-13 -63h2c40 53 94 77 153 77c87 0 127 -46 105 -153l-119 -575h-138l114 547c11 55 -3 75 -44 75c-49 0 -79 -30 -91 -89l-74 -357h-138z" />
    <glyph glyph-name="theta" unicode="&#x3b8;" horiz-adv-x="492" 
d="M262 417h145c14 68 20 118 20 153c0 52 -14 72 -42 72c-52 0 -85 -58 -123 -225zM265 82c52 0 85 60 125 254h-144c-17 -81 -25 -139 -25 -180c0 -52 14 -74 44 -74zM405 738c114 0 158 -73 158 -173c0 -53 -10 -119 -26 -196c-67 -313 -138 -383 -291 -383
c-108 0 -160 65 -160 186c0 53 8 118 25 197c55 261 119 369 294 369z" />
    <glyph glyph-name="iota" unicode="&#x3b9;" horiz-adv-x="258" 
d="M70 117l90 421h139l-82 -384c-4 -19 -6 -33 -6 -43c0 -16 6 -22 18 -22s23 3 39 9l-19 -89c-30 -15 -54 -23 -87 -23c-60 0 -97 28 -97 89c0 13 2 26 5 42z" />
    <glyph glyph-name="kappa" unicode="&#x3ba;" 
d="M164 538h138l-43 -201h2l180 201h152l-199 -212l111 -326h-152l-70 221l-62 -64l-32 -157h-138z" />
    <glyph glyph-name="lambda" unicode="&#x3bb;" horiz-adv-x="462" 
d="M293 94l-2 222h-1l-146 -316h-142l275 492l-3 87c-2 44 -14 58 -33 58c-11 0 -24 -2 -53 -10l19 89c30 14 60 22 93 22c71 0 99 -26 104 -142l16 -364c5 -112 2 -143 26 -143c10 0 20 2 38 9l-19 -89c-31 -15 -53 -23 -85 -23c-69 0 -87 34 -87 108z" />
    <glyph glyph-name="nu" unicode="&#x3bd;" horiz-adv-x="435" 
d="M403 538h138c-57 -172 -155 -373 -253 -538h-152l-19 538h146l-15 -394c32 35 136 336 155 394z" />
    <glyph glyph-name="xi" unicode="&#x3be;" horiz-adv-x="376" 
d="M75 200c20 99 63 174 152 209c-41 12 -69 47 -69 91c0 162 114 238 239 238c38 0 77 -5 114 -28l-22 -107c-31 21 -61 34 -92 34c-73 0 -101 -52 -101 -140c0 -38 18 -58 63 -58h81l-25 -115h-80c-61 0 -99 -26 -120 -123c-4 -20 -6 -36 -6 -49c0 -53 32 -63 78 -63
c55 0 74 -39 74 -82c0 -37 -13 -78 -35 -135h-122c18 43 30 83 30 103c0 18 -10 25 -41 25c-80 0 -126 44 -126 131c0 21 3 44 8 69z" />
    <glyph glyph-name="omicron" unicode="&#x3bf;" horiz-adv-x="480" 
d="M221 269c-22 -110 -34 -189 35 -189c56 0 86 54 113 189c28 135 22 189 -34 189c-69 0 -90 -79 -114 -189zM83 269c40 184 113 283 271 283c166 3 193 -96 153 -283c-37 -184 -112 -283 -270 -283c-168 -3 -192 95 -154 283z" />
    <glyph glyph-name="rho" unicode="&#x3c1;" horiz-adv-x="494" 
d="M2 -176l94 444c35 165 103 284 272 284c123 0 165 -66 165 -163c0 -33 -5 -69 -13 -108c-29 -138 -78 -295 -227 -295c-26 0 -85 6 -102 66h-2l-49 -228h-138zM381 274c9 43 15 79 15 107c0 43 -14 65 -49 65c-64 0 -88 -64 -112 -177c-21 -98 -19 -176 38 -176
c58 0 82 61 108 181z" />
    <glyph glyph-name="sigma1" unicode="&#x3c2;" horiz-adv-x="444" 
d="M299 92c78 0 112 -50 95 -125c-5 -24 -13 -54 -31 -95h-122c16 41 22 61 27 83s8 45 -23 45c-107 0 -173 48 -173 167c0 28 3 60 11 96c37 172 93 289 278 289c96 0 156 -45 156 -146v-14h-132v8c0 39 -22 52 -50 52c-55 0 -84 -52 -114 -189c-7 -31 -10 -58 -10 -80
c0 -64 28 -91 88 -91z" />
    <glyph glyph-name="sigma" unicode="&#x3c3;" horiz-adv-x="490" 
d="M83 259c38 180 143 279 294 279h214l-24 -113h-88c23 -22 37 -51 37 -97c0 -20 -3 -43 -8 -69c-36 -169 -103 -273 -262 -273c-122 0 -176 54 -176 164c0 32 4 68 13 109zM222 259c-10 -48 -15 -84 -15 -111c0 -49 16 -68 50 -68c53 0 84 51 112 179c12 55 18 95 18 124
c0 18 -3 32 -8 43h-32c-62 0 -101 -51 -125 -167z" />
    <glyph glyph-name="tau" unicode="&#x3c4;" horiz-adv-x="398" 
d="M95 427l24 111h385l-24 -111h-130l-57 -269c-8 -38 -13 -66 19 -66c13 0 29 4 47 11l-20 -94c-31 -15 -67 -23 -100 -23c-76 0 -110 47 -93 129l66 312h-117z" />
    <glyph glyph-name="upsilon" unicode="&#x3c5;" horiz-adv-x="484" 
d="M160 538h138l-76 -359c-14 -65 -3 -87 39 -87c51 0 81 40 111 183c15 69 31 189 17 263h135c16 -79 -1 -196 -15 -261c-46 -219 -119 -291 -280 -291c-119 0 -176 50 -145 194z" />
    <glyph glyph-name="phi" unicode="&#x3c6;" horiz-adv-x="643" 
d="M271 84l80 374c-72 -5 -103 -80 -127 -194c-9 -42 -14 -76 -14 -103c0 -50 18 -74 61 -77zM387 -13l-35 -163h-137l35 163c-110 4 -178 51 -178 174c0 30 4 64 12 103c40 192 138 282 287 287l24 114h135l-24 -114c117 -4 177 -61 177 -181c0 -31 -4 -66 -12 -106
c-42 -198 -147 -274 -284 -277zM487 458l-80 -374c68 4 99 59 125 180c9 42 15 79 15 109c0 51 -17 82 -60 85z" />
    <glyph glyph-name="chi" unicode="&#x3c7;" horiz-adv-x="406" 
d="M274 321l111 217h143l-208 -350l62 -364h-141l-26 225l-122 -225h-144l218 363l-54 351h141z" />
    <glyph glyph-name="psi" unicode="&#x3c8;" horiz-adv-x="650" 
d="M160 538h137l-62 -289c-7 -34 -13 -67 -13 -94c0 -40 12 -67 49 -68l123 577h140l-123 -577c62 3 103 80 128 197c9 44 20 119 20 185c0 25 -1 49 -5 69h136c4 -23 6 -48 6 -75c0 -67 -11 -140 -21 -186c-53 -248 -155 -275 -285 -290l-34 -163h-141l35 165
c-107 10 -165 50 -165 156c0 29 5 62 13 101z" />
    <glyph glyph-name="omega" unicode="&#x3c9;" horiz-adv-x="665" 
d="M455 83c37 0 69 71 89 163c11 52 19 106 19 158c0 47 -6 92 -23 134h140c16 -47 22 -93 22 -138c0 -55 -9 -109 -20 -161c-43 -200 -141 -252 -228 -252c-67 0 -104 29 -109 79c-33 -52 -67 -80 -144 -80c-72 0 -128 54 -128 163c0 118 54 296 140 389h140
c-79 -95 -142 -264 -142 -393c0 -38 9 -63 31 -63c27 0 51 39 65 107l47 225h130c-15 -75 -31 -150 -47 -225c-4 -21 -23 -106 18 -106z" />
    <glyph glyph-name="iotadieresis" unicode="&#x3ca;" horiz-adv-x="258" 
d="M70 117l90 421h139l-82 -384c-10 -46 -5 -65 12 -65c12 0 23 3 39 9l-19 -89c-30 -15 -54 -23 -87 -23c-82 0 -106 54 -92 131zM283 615l25 118h112l-25 -118h-112zM111 615l25 118h112l-25 -118h-112z" />
    <glyph glyph-name="upsilondieresis" unicode="&#x3cb;" horiz-adv-x="484" 
d="M160 538h138l-76 -359c-14 -65 -3 -87 39 -87c51 0 81 40 111 183c15 69 31 189 17 263h135c16 -79 -1 -196 -15 -261c-46 -219 -119 -291 -280 -291c-119 0 -176 50 -145 194zM378 615l25 118h112l-25 -118h-112zM206 615l25 118h112l-25 -118h-112z" />
    <glyph glyph-name="omicrontonos" unicode="&#x3cc;" horiz-adv-x="480" 
d="M221 269c-22 -110 -34 -189 35 -189c56 0 86 54 113 189c28 135 22 189 -34 189c-69 0 -90 -79 -114 -189zM83 269c40 184 113 283 271 283c166 3 193 -96 153 -283c-37 -184 -112 -283 -270 -283c-168 -3 -192 95 -154 283zM312 602l56 144h138l-95 -144h-99z" />
    <glyph glyph-name="upsilontonos" unicode="&#x3cd;" horiz-adv-x="473" 
d="M306 602l56 144h138l-95 -144h-99zM155 538h138l-76 -359c-14 -65 -3 -87 39 -87c51 0 81 40 111 183c15 69 31 189 17 263h135c16 -79 -1 -196 -15 -261c-46 -219 -119 -291 -280 -291c-119 0 -176 50 -145 194z" />
    <glyph glyph-name="omegatonos" unicode="&#x3ce;" horiz-adv-x="665" 
d="M455 83c37 0 69 71 89 163c11 52 19 106 19 158c0 47 -6 92 -23 134h140c16 -47 22 -93 22 -138c0 -55 -9 -109 -20 -161c-43 -200 -141 -252 -228 -252c-67 0 -104 29 -109 79c-33 -52 -67 -80 -144 -80c-72 0 -128 54 -128 163c0 118 54 296 140 389h140
c-79 -95 -142 -264 -142 -393c0 -38 9 -63 31 -63c27 0 51 39 65 107l47 225h130c-15 -75 -31 -150 -47 -225c-4 -21 -23 -106 18 -106zM412 602l56 144h138l-95 -144h-99z" />
    <glyph glyph-name="uni0400" unicode="&#x400;" horiz-adv-x="481" 
d="M125 712h397l-24 -116h-255l-37 -172h240l-24 -113h-240l-41 -195h265l-25 -116h-408zM396 778h-94l-68 144h138z" />
    <glyph glyph-name="afii10023" unicode="&#x401;" horiz-adv-x="481" 
d="M208 887h114l-26 -121h-113zM381 887h113l-26 -121h-113zM125 712h397l-24 -116h-255l-37 -172h240l-24 -113h-240l-41 -195h265l-25 -116h-408z" />
    <glyph glyph-name="afii10051" unicode="&#x402;" horiz-adv-x="677" 
d="M217 0h-145l127 596h-148l25 116h480l-25 -116h-187l-33 -156c-3 -13 -9 -38 -15 -57c34 46 93 81 154 81c108 0 155 -69 155 -176c0 -113 -55 -313 -131 -390c-50 -50 -115 -66 -212 -66h-14l23 118c49 0 80 6 103 28c44 42 83 233 83 302c0 55 -19 83 -71 83
c-93 0 -117 -120 -131 -185z" />
    <glyph glyph-name="afii10052" unicode="&#x403;" horiz-adv-x="444" 
d="M121 0h-145l151 712h381l-25 -118h-236zM471 897l-132 -144h-91l85 144h138z" />
    <glyph glyph-name="afii10053" unicode="&#x404;" horiz-adv-x="537" 
d="M354 424l-25 -113h-158c-11 -55 -19 -106 -19 -136c0 -62 24 -92 72 -92c77 0 98 98 111 155l142 1c-26 -145 -91 -255 -265 -255c-134 0 -202 66 -202 194c0 105 55 387 134 474c45 50 107 74 190 74c128 0 196 -57 196 -166c0 -14 0 -35 -4 -59h-139c2 21 4 45 4 59
c0 43 -23 66 -65 66c-81 0 -93 -77 -130 -202h158z" />
    <glyph glyph-name="afii10054" unicode="&#x405;" horiz-adv-x="519" 
d="M-5 223h136c-3 -24 -4 -32 -4 -49c0 -61 27 -91 83 -91c58 0 96 44 96 112c0 67 -44 86 -97 113c-83 43 -141 79 -141 186c0 149 93 229 241 229c133 0 201 -60 201 -175c0 -13 0 -19 -2 -37h-137c2 14 3 19 3 30c0 54 -25 83 -72 83c-52 0 -90 -43 -90 -103
c0 -55 44 -82 88 -105c88 -46 158 -77 158 -191c0 -58 -19 -115 -52 -158c-43 -57 -105 -82 -198 -82c-143 0 -217 64 -217 190c0 18 0 26 4 48z" />
    <glyph glyph-name="afii10055" unicode="&#x406;" horiz-adv-x="258" 
d="M120 712h146l-151 -712h-145z" />
    <glyph glyph-name="afii10056" unicode="&#x407;" horiz-adv-x="258" 
d="M120 712h146l-151 -712h-145zM87 887h114l-26 -121h-113zM260 887h113l-26 -121h-113z" />
    <glyph glyph-name="afii10057" unicode="&#x408;" horiz-adv-x="463" 
d="M-20 217h134l-2 -9c-5 -23 -11 -47 -11 -71c0 -34 19 -55 52 -55c57 0 67 39 96 176l97 454h144l-106 -496c-30 -142 -63 -231 -235 -231c-117 0 -180 50 -180 143c0 35 1 46 11 89z" />
    <glyph glyph-name="afii10058" unicode="&#x409;" horiz-adv-x="851" 
d="M805 264c0 -47 -10 -94 -30 -134c-59 -120 -158 -130 -272 -130h-205l126 596h-114l-75 -316c-45 -191 -80 -286 -251 -286c-19 0 -40 3 -61 7l26 124c10 -2 29 -4 38 -4c51 0 75 12 117 193l93 398h397l-58 -276h40c145 0 229 -34 229 -172zM659 248
c0 76 -58 80 -117 80h-31l-46 -221h56c85 0 138 47 138 141z" />
    <glyph glyph-name="afii10059" unicode="&#x40a;" horiz-adv-x="837" 
d="M791 264c0 -47 -10 -94 -30 -134c-59 -120 -158 -130 -272 -130h-205l67 317h-167l-67 -317h-145l151 712h145l-59 -276h168l58 276h145l-58 -276h40c145 0 229 -34 229 -172zM645 248c0 76 -58 80 -117 80h-31l-46 -221h56c85 0 138 47 138 141z" />
    <glyph glyph-name="afii10060" unicode="&#x40b;" horiz-adv-x="644" 
d="M404 448c138 0 194 -73 166 -206l-52 -242h-145l52 244c12 59 -9 92 -73 92c-16 0 -42 -2 -65 -6l-70 -330h-145l127 596h-148l25 116h480l-25 -116h-187l-34 -158c30 6 65 10 94 10z" />
    <glyph glyph-name="afii10061" unicode="&#x40c;" horiz-adv-x="537" 
d="M123 712h141l-44 -210c-8 -37 -17 -73 -27 -109c21 32 46 71 65 94l187 225h164l-273 -322l134 -390h-155l-90 286l-68 -79l-44 -207h-142zM501 897l-132 -144h-91l85 144h138z" />
    <glyph glyph-name="uni040D" unicode="&#x40d;" horiz-adv-x="574" 
d="M596 712l-151 -712h-142l70 329c9 44 35 136 48 167c-13 -29 -37 -72 -59 -109l-232 -387h-157l151 712h142l-70 -330c-11 -53 -35 -136 -48 -167c14 29 37 72 59 109l232 388h157zM446 778h-94l-68 144h138z" />
    <glyph glyph-name="afii10062" unicode="&#x40e;" horiz-adv-x="520" 
d="M64 712h153l26 -195c5 -34 12 -99 10 -147c15 44 37 93 69 152l103 190h155l-280 -515c-89 -164 -125 -203 -257 -203c-24 0 -26 0 -64 4l23 111c14 -2 29 -3 42 -3c46 0 64 23 89 69l15 27zM199 898h68v-5c0 -42 25 -63 68 -63s75 23 89 68h71
c-23 -96 -79 -146 -164 -146c-81 0 -133 49 -133 127c0 5 1 9 1 19z" />
    <glyph glyph-name="afii10145" unicode="&#x40f;" horiz-adv-x="556" 
d="M428 0h-161l-34 -161h-133l34 161h-162l151 712h145l-126 -596h166l126 596h145z" />
    <glyph glyph-name="afii10017" unicode="&#x410;" horiz-adv-x="556" 
d="M256 712h183l31 -712h-146l-3 152h-183l-66 -152h-154zM322 264l-2 177c-1 70 3 131 7 174c-20 -63 -48 -123 -74 -184l-71 -167h140z" />
    <glyph glyph-name="afii10018" unicode="&#x411;" horiz-adv-x="548" 
d="M530 712l-24 -114h-263l-34 -159h49c145 0 226 -41 226 -177c0 -47 -11 -94 -30 -133c-59 -119 -156 -129 -270 -129h-212l151 712h407zM338 250c0 74 -55 82 -114 82h-36l-47 -221h61c17 0 34 0 50 4c57 13 86 81 86 135z" />
    <glyph glyph-name="afii10019" unicode="&#x412;" horiz-adv-x="556" 
d="M125 712h187c80 0 101 -3 132 -14c53 -19 87 -72 87 -138c0 -102 -65 -179 -163 -187c73 -17 115 -54 115 -137c0 -72 -36 -148 -90 -191c-55 -44 -109 -45 -213 -45h-207zM204 418h50c33 0 64 2 91 25c24 21 39 55 39 93c0 63 -48 71 -99 71h-40zM137 103h53
c39 0 76 2 104 28c24 23 41 64 41 107c0 61 -30 85 -105 85h-45z" />
    <glyph glyph-name="afii10020" unicode="&#x413;" horiz-adv-x="444" 
d="M121 0h-145l151 712h381l-25 -118h-236z" />
    <glyph glyph-name="afii10021" unicode="&#x414;" horiz-adv-x="611" 
d="M492 -161h-133l34 161h-337l-34 -161h-133l59 277h57c100 135 140 255 176 422l37 174h393l-127 -596h67zM342 116l102 482h-113l-25 -120c-39 -185 -92 -286 -147 -362h183z" />
    <glyph glyph-name="afii10022" unicode="&#x415;" horiz-adv-x="481" 
d="M125 712h397l-24 -116h-255l-37 -172h240l-24 -113h-240l-41 -195h265l-25 -116h-408z" />
    <glyph glyph-name="afii10024" unicode="&#x416;" horiz-adv-x="811" 
d="M267 290l-189 -290h-162l293 428l-108 284h142l103 -298l63 298h140l-44 -208c-5 -23 -15 -70 -22 -91l235 299h155l-253 -312l116 -400h-150l-72 288l-77 -100l-39 -188h-140l42 198z" />
    <glyph glyph-name="afii10025" unicode="&#x417;" horiz-adv-x="523" 
d="M510 564c0 -93 -62 -180 -159 -190c75 -14 116 -56 116 -142c0 -75 -34 -153 -90 -198c-57 -45 -138 -49 -172 -49c-130 0 -213 61 -213 168c0 20 4 54 6 66h138c-3 -14 -4 -38 -4 -56c0 -43 20 -82 76 -82c70 0 112 92 112 158c0 53 -31 79 -89 79c-8 0 -42 -1 -50 -2
l20 106c7 -1 33 -2 40 -2c78 0 127 53 127 139c0 37 -26 68 -71 68c-63 0 -95 -39 -103 -113h-138c18 150 123 209 252 209c124 0 202 -55 202 -159z" />
    <glyph glyph-name="afii10026" unicode="&#x418;" horiz-adv-x="574" 
d="M596 712l-151 -712h-142l70 329c9 44 35 136 48 167c-13 -29 -37 -72 -59 -109l-232 -387h-157l151 712h142l-70 -330c-11 -53 -35 -136 -48 -167c14 29 37 72 59 109l232 388h157z" />
    <glyph glyph-name="afii10027" unicode="&#x419;" horiz-adv-x="574" 
d="M596 712l-151 -712h-142l70 329c9 44 35 136 48 167c-13 -29 -37 -72 -59 -109l-232 -387h-157l151 712h142l-70 -330c-11 -53 -35 -136 -48 -167c14 29 37 72 59 109l232 388h157zM232 898h68v-5c0 -42 25 -63 68 -63s75 23 89 68h71c-23 -96 -79 -146 -164 -146
c-81 0 -133 49 -133 127c0 5 1 9 1 19z" />
    <glyph glyph-name="afii10028" unicode="&#x41a;" horiz-adv-x="537" 
d="M123 712h141l-44 -210c-8 -37 -17 -73 -27 -109c21 32 46 71 65 94l187 225h164l-273 -322l134 -390h-155l-90 286l-68 -79l-44 -207h-142z" />
    <glyph glyph-name="afii10029" unicode="&#x41b;" horiz-adv-x="574" 
d="M443 0h-145l126 596h-114l-75 -316c-45 -191 -80 -286 -251 -286c-19 0 -40 3 -61 7l26 124c10 -2 29 -4 38 -4c51 0 75 12 117 193l93 398h397z" />
    <glyph glyph-name="afii10030" unicode="&#x41c;" horiz-adv-x="740" 
d="M123 712h208l3 -316c1 -81 -3 -147 -10 -211c19 68 44 132 81 221l128 306h215l-152 -712h-133l81 368c18 82 35 163 59 247c-31 -71 -59 -139 -89 -209l-175 -406h-108l-10 421c-2 75 1 133 1 191c-9 -64 -21 -127 -34 -190l-85 -422h-132z" />
    <glyph glyph-name="afii10031" unicode="&#x41d;" horiz-adv-x="556" 
d="M209 436h168l58 276h145l-152 -712h-145l68 317h-167l-67 -317h-145l151 712h145z" />
    <glyph glyph-name="afii10032" unicode="&#x41e;" horiz-adv-x="556" 
d="M542 528c0 -87 -33 -246 -63 -337c-44 -134 -108 -207 -255 -207c-138 0 -212 71 -212 205c0 57 9 121 31 215c39 164 88 323 291 323c129 0 208 -67 208 -199zM331 626c-49 0 -71 -18 -92 -63c-18 -38 -33 -83 -55 -186c-14 -64 -32 -139 -32 -204c0 -60 25 -91 74 -91
c94 0 114 117 151 297c17 84 24 127 24 163c0 54 -23 84 -70 84z" />
    <glyph glyph-name="afii10033" unicode="&#x41f;" horiz-adv-x="556" 
d="M428 0h-145l126 596h-166l-126 -596h-145l151 712h456z" />
    <glyph glyph-name="afii10034" unicode="&#x420;" horiz-adv-x="519" 
d="M125 712h183c144 0 220 -40 220 -171c0 -46 -10 -92 -29 -130c-57 -116 -151 -126 -265 -126h-57l-61 -285h-143zM199 389h49c36 0 65 0 93 28c25 25 42 69 42 110c0 73 -54 81 -113 81h-25z" />
    <glyph glyph-name="afii10035" unicode="&#x421;" horiz-adv-x="537" 
d="M342 267h140c-23 -159 -85 -283 -270 -283c-134 0 -202 66 -202 194c0 105 55 387 134 474c45 50 107 74 190 74c128 0 196 -57 196 -166c0 -17 -1 -46 -7 -78l-2 -10h-139c5 25 9 67 9 88c0 43 -23 66 -65 66c-57 0 -79 -40 -96 -88c-31 -84 -78 -288 -78 -363
c0 -62 24 -92 72 -92c71 0 95 85 108 141z" />
    <glyph glyph-name="afii10036" unicode="&#x422;" horiz-adv-x="480" 
d="M76 712h459l-25 -119h-157l-126 -593h-145l126 593h-158z" />
    <glyph glyph-name="afii10037" unicode="&#x423;" horiz-adv-x="520" 
d="M64 712h153l26 -195c5 -34 12 -99 10 -147c15 44 37 93 69 152l103 190h155l-280 -515c-89 -164 -125 -203 -257 -203c-24 0 -26 0 -64 4l23 111c14 -2 29 -3 42 -3c46 0 64 23 89 69l15 27z" />
    <glyph glyph-name="afii10038" unicode="&#x424;" horiz-adv-x="767" 
d="M739 408c0 -92 -42 -178 -89 -231c-71 -80 -171 -95 -252 -95l-20 -92h-145l20 92c-191 8 -226 136 -226 222c0 92 42 178 89 231c71 80 172 95 253 95l20 92h143l-18 -92c187 -9 225 -136 225 -222zM593 408c0 71 -33 113 -108 113l-69 -327c124 7 177 104 177 214z
M352 521c-124 -7 -179 -104 -179 -214c0 -71 35 -113 109 -113z" />
    <glyph glyph-name="afii10039" unicode="&#x425;" horiz-adv-x="537" 
d="M85 712h156l27 -147c3 -15 10 -71 10 -108c13 38 46 96 53 108l90 147h161l-240 -351l100 -361h-157l-31 147c-3 15 -14 72 -14 114c-16 -36 -43 -83 -54 -101l-102 -160h-162l253 364z" />
    <glyph glyph-name="afii10040" unicode="&#x426;" horiz-adv-x="579" 
d="M453 116h67l-59 -277h-133l34 161h-390l151 712h145l-126 -596h166l126 596h145z" />
    <glyph glyph-name="afii10041" unicode="&#x427;" horiz-adv-x="537" 
d="M322 283c-30 -6 -66 -10 -96 -10c-119 0 -174 49 -174 141c0 20 3 41 8 65l50 233h145l-50 -235c-12 -59 9 -92 73 -92c17 0 44 2 67 6l69 321h145l-152 -712h-145z" />
    <glyph glyph-name="afii10042" unicode="&#x428;" horiz-adv-x="833" 
d="M-28 0l151 712h145l-126 -596h149l126 596h145l-126 -596h149l126 596h145l-151 -712h-733z" />
    <glyph glyph-name="afii10043" unicode="&#x429;" horiz-adv-x="856" 
d="M-28 0l151 712h145l-126 -596h149l126 596h145l-126 -596h149l126 596h145l-126 -596h67l-59 -277h-133l34 161h-667z" />
    <glyph glyph-name="afii10044" unicode="&#x42a;" horiz-adv-x="630" 
d="M585 264c0 -47 -10 -94 -30 -134c-59 -120 -158 -130 -272 -130h-205l127 596h-154l25 116h298l-57 -269h40c145 0 228 -41 228 -179zM439 252c0 76 -57 84 -116 84h-30l-47 -225h55c85 0 138 47 138 141z" />
    <glyph glyph-name="afii10045" unicode="&#x42b;" horiz-adv-x="753" 
d="M478 264c0 -47 -10 -94 -30 -134c-59 -120 -158 -130 -272 -130h-205l151 712h145l-57 -269h40c145 0 228 -41 228 -179zM332 252c0 76 -57 84 -116 84h-30l-47 -225h55c17 0 34 0 51 4c58 13 87 82 87 137zM632 712h145l-152 -712h-145z" />
    <glyph glyph-name="afii10046" unicode="&#x42c;" horiz-adv-x="523" 
d="M478 264c0 -47 -10 -94 -30 -134c-59 -120 -158 -130 -272 -130h-205l151 712h145l-57 -269h40c145 0 228 -41 228 -179zM332 252c0 76 -57 84 -116 84h-30l-47 -225h55c17 0 34 0 51 4c58 13 87 82 87 137z" />
    <glyph glyph-name="afii10047" unicode="&#x42d;" horiz-adv-x="537" 
d="M530 534c0 -105 -55 -387 -134 -474c-45 -50 -107 -74 -190 -74c-128 0 -196 57 -196 166c0 17 1 46 7 78l2 10h139c-5 -25 -9 -67 -9 -88c0 -43 23 -66 65 -66c57 0 79 40 96 88c12 33 27 84 40 139h-159l25 113h158c9 45 14 86 14 111c0 62 -24 92 -72 92
c-65 0 -91 -71 -104 -126h-143c30 130 97 225 259 225c134 0 202 -66 202 -194z" />
    <glyph glyph-name="afii10048" unicode="&#x42e;" horiz-adv-x="800" 
d="M786 529c0 -87 -33 -246 -63 -337c-44 -134 -108 -206 -255 -206c-138 0 -212 70 -212 204c0 36 4 75 12 123h-85l-66 -313h-145l151 713h145l-61 -284h86c38 155 92 299 285 299c129 0 208 -67 208 -199zM575 627c-49 0 -72 -18 -93 -63c-18 -38 -32 -83 -54 -186
c-14 -64 -32 -139 -32 -204c0 -60 25 -91 74 -91c94 0 114 117 151 297c17 84 24 127 24 163c0 54 -23 84 -70 84z" />
    <glyph glyph-name="afii10049" unicode="&#x42f;" horiz-adv-x="548" 
d="M285 275l-187 -275h-166l212 294c-61 23 -93 71 -93 157c0 98 45 202 140 240c46 18 100 21 159 21h220l-151 -712h-144l58 275h-48zM405 606h-67c-17 0 -34 0 -51 -4c-58 -13 -87 -82 -87 -137c0 -76 57 -84 116 -84h42z" />
    <glyph glyph-name="afii10065" unicode="&#x430;" horiz-adv-x="481" 
d="M251 163l22 110c-21 -15 -35 -21 -59 -29l-29 -10c-46 -15 -64 -41 -72 -79c-9 -41 -1 -75 38 -75s88 23 100 83zM167 373h-124l3 13c27 124 119 166 223 166c165 0 181 -68 161 -165l-59 -283c-10 -50 -12 -73 -4 -104h-132c-7 17 -6 37 -6 56h-2
c-41 -53 -86 -70 -151 -70c-95 0 -114 82 -98 154c22 102 70 141 171 168l82 21c43 11 61 27 68 63c9 41 -3 66 -50 66c-43 0 -70 -27 -79 -70z" />
    <glyph glyph-name="afii10066" unicode="&#x431;" horiz-adv-x="480" 
d="M497 741c-25 -114 -89 -126 -189 -143c-113 -19 -175 -52 -205 -174h3c36 72 101 114 159 114c104 0 173 -40 173 -159c0 -86 -36 -228 -76 -301c-38 -68 -103 -92 -180 -92c-121 0 -182 55 -182 173c0 110 35 371 152 483c35 33 77 56 131 65c60 10 100 15 111 34h103z
M304 386c0 41 -17 59 -51 59c-61 0 -84 -92 -103 -190c-8 -39 -17 -78 -17 -117c0 -42 18 -61 53 -61c53 0 72 71 83 112c15 57 35 141 35 197z" />
    <glyph glyph-name="afii10067" unicode="&#x432;" horiz-adv-x="490" 
d="M441 422c0 -77 -49 -135 -122 -141c55 -13 86 -40 86 -103c0 -54 -27 -112 -68 -144c-39 -32 -82 -34 -160 -34h-211l114 537h196c61 0 77 -3 100 -11c40 -15 65 -54 65 -104zM307 399c0 36 -26 42 -65 42h-49l-26 -118h52c24 0 44 2 62 16c15 13 26 35 26 60zM270 183
c0 37 -16 52 -70 52h-51l-30 -141h51c30 0 52 1 72 18c16 14 28 41 28 71z" />
    <glyph glyph-name="afii10068" unicode="&#x433;" horiz-adv-x="382" 
d="M195 430l-91 -430h-137l114 537h329l-23 -107h-192z" />
    <glyph glyph-name="afii10069" unicode="&#x434;" horiz-adv-x="519" 
d="M401 -145h-125l31 145h-262l-31 -145h-125l54 253h45c48 71 91 161 122 307l26 122h348l-91 -429h62zM259 108l69 325h-85l-11 -49c-19 -84 -64 -215 -109 -276h136z" />
    <glyph glyph-name="afii10070" unicode="&#x435;" horiz-adv-x="463" 
d="M397 180c-32 -124 -85 -195 -225 -195c-118 0 -175 54 -175 166c0 80 24 195 56 267c41 92 111 133 209 133c114 0 175 -56 175 -162c0 -37 -7 -81 -22 -141h-273c-9 -36 -15 -78 -15 -107c0 -43 21 -68 58 -68c43 0 70 34 85 107h127zM159 329h141c8 36 11 56 11 71
c0 41 -20 62 -57 62c-68 0 -83 -82 -95 -133z" />
    <glyph glyph-name="afii10072" unicode="&#x436;" horiz-adv-x="704" 
d="M724 537l-190 -224l85 -313h-132l-55 213l-63 -77l-29 -136h-132l30 141l-31 74l-134 -215h-153l230 340l-79 197h130l78 -216c2 17 7 46 11 65l32 151h132l-33 -154c-3 -13 -11 -47 -17 -66l174 220h146z" />
    <glyph glyph-name="afii10073" unicode="&#x437;" horiz-adv-x="453" 
d="M405 429c0 -71 -54 -137 -128 -145c56 -7 95 -39 95 -105c0 -119 -94 -192 -213 -192s-184 53 -184 151c0 15 1 22 4 42h122c-2 -14 -3 -22 -3 -33c0 -47 21 -70 56 -70c50 0 83 51 83 107c0 34 -18 51 -59 51c-6 0 -25 0 -46 -3l19 88c6 -1 23 -1 34 -1
c55 0 89 39 89 98c0 25 -16 44 -45 44c-42 0 -71 -22 -78 -82h-121c16 125 106 171 211 171c108 0 164 -42 164 -121z" />
    <glyph glyph-name="afii10074" unicode="&#x438;" horiz-adv-x="519" 
d="M503 537l-114 -537h-133l47 220c7 34 23 93 32 116l-222 -336h-149l114 537h132l-47 -221c-5 -25 -20 -88 -33 -117l223 338h150z" />
    <glyph glyph-name="afii10075" unicode="&#x439;" horiz-adv-x="519" 
d="M458 727c-22 -92 -76 -140 -157 -140c-78 0 -128 47 -128 122c0 5 1 9 1 18h65v-5c0 -40 24 -62 65 -62c42 0 73 24 86 67h68zM503 537l-114 -537h-133l47 220c7 34 23 93 32 116l-222 -336h-149l114 537h132l-47 -221c-5 -25 -20 -88 -33 -117l223 338h150z" />
    <glyph glyph-name="afii10076" unicode="&#x43a;" 
d="M413 0h-143l-68 222l-68 -71l-33 -151h-132l114 537h134l-37 -173l-14 -50c10 16 34 46 43 57l143 166h159l-205 -224z" />
    <glyph glyph-name="afii10077" unicode="&#x43b;" 
d="M369 0h-137l91 430h-94l-52 -217c-51 -214 -128 -221 -190 -221c-23 0 -59 5 -72 8l23 108c6 -2 20 -5 27 -5c26 0 53 -1 80 111l79 323h359z" />
    <glyph glyph-name="afii10078" unicode="&#x43c;" horiz-adv-x="660" 
d="M528 0h-129l64 300c4 18 20 76 26 93h-3l-182 -393h-114l-15 393h-3c-1 -20 -10 -77 -17 -109l-60 -284h-129l114 537h195l8 -359l160 359h199z" />
    <glyph glyph-name="afii10079" unicode="&#x43d;" 
d="M281 227h-132l-48 -227h-137l114 537h137l-42 -196h132l42 196h137l-114 -537h-137z" />
    <glyph glyph-name="afii10080" unicode="&#x43e;" horiz-adv-x="480" 
d="M441 386c0 -87 -36 -230 -77 -304c-39 -71 -107 -96 -186 -96c-124 0 -189 58 -189 170c0 85 32 231 78 303c42 66 97 93 184 93c114 0 190 -42 190 -166zM249 459c-68 0 -91 -101 -110 -196c-7 -37 -17 -81 -17 -118c0 -45 20 -68 60 -68c66 0 84 90 106 187
c12 54 19 99 19 129c0 44 -19 66 -58 66z" />
    <glyph glyph-name="afii10081" unicode="&#x43f;" 
d="M370 0h-137l91 430h-132l-91 -430h-137l114 537h406z" />
    <glyph glyph-name="afii10082" unicode="&#x440;" 
d="M77 537h130l-18 -76c38 59 84 88 140 88c83 0 127 -51 127 -146c0 -70 -23 -182 -53 -261c-41 -108 -96 -156 -179 -156c-61 0 -92 25 -114 79c0 -19 -14 -86 -17 -99l-31 -143h-138zM136 162c0 -38 10 -74 55 -74c41 0 66 31 91 112c19 64 33 140 33 180
c0 44 -17 66 -51 66c-72 0 -97 -111 -110 -164c-11 -46 -18 -89 -18 -120z" />
    <glyph glyph-name="afii10083" unicode="&#x441;" horiz-adv-x="463" 
d="M273 205h127c-8 -52 -25 -98 -50 -137c-37 -57 -89 -82 -175 -82c-109 0 -182 43 -182 167c0 96 34 231 75 300c43 71 112 99 193 99c112 0 174 -53 174 -147c0 -23 -1 -33 -5 -60h-127c5 25 6 39 6 52c0 39 -19 62 -53 62c-55 0 -77 -55 -91 -99
c-19 -61 -39 -146 -39 -209c0 -50 19 -75 56 -75c61 0 82 81 91 129z" />
    <glyph glyph-name="afii10084" unicode="&#x442;" horiz-adv-x="419" 
d="M419 430h-137l-91 -430h-137l91 430h-137l23 107h411z" />
    <glyph glyph-name="afii10085" unicode="&#x443;" horiz-adv-x="444" 
d="M42 537h141l1 -252c0 -55 -2 -109 -8 -164c18 54 35 107 56 160l101 256h144l-232 -491c-31 -66 -66 -131 -87 -162c-33 -48 -75 -65 -160 -65c-26 0 -43 2 -68 6l21 97c21 -4 28 -5 41 -5c49 0 65 26 84 68l4 9z" />
    <glyph glyph-name="afii10086" unicode="&#x444;" horiz-adv-x="722" 
d="M683 391c0 -43 -19 -162 -53 -248c-35 -90 -77 -156 -185 -156c-50 0 -78 24 -93 61c0 -11 -4 -35 -7 -48l-38 -176h-135l38 176c3 14 9 36 13 46c-33 -38 -69 -59 -119 -59c-99 0 -119 84 -119 160c0 49 19 158 52 246c35 94 83 157 186 157c49 0 80 -24 93 -60
c2 13 6 40 9 53l36 169h135l-36 -169c-3 -12 -9 -43 -14 -55c29 40 68 61 117 61c101 0 120 -82 120 -158zM545 384c0 31 -12 61 -48 61c-30 0 -54 -19 -70 -49l-56 -261c3 -33 21 -47 47 -47c37 0 61 22 80 71c26 65 47 173 47 225zM296 396c-2 29 -14 49 -47 49
c-40 0 -58 -23 -78 -70c-21 -51 -48 -159 -48 -223c0 -33 13 -64 50 -64c26 0 53 20 67 47z" />
    <glyph glyph-name="afii10087" unicode="&#x445;" horiz-adv-x="462" 
d="M48 537h140l21 -99c5 -21 10 -55 14 -78c10 20 23 42 46 77l64 100h148l-194 -262l85 -275h-140l-25 99c-7 29 -13 61 -15 91c-13 -30 -37 -66 -55 -93l-65 -97h-148l205 278z" />
    <glyph glyph-name="afii10088" unicode="&#x446;" horiz-adv-x="519" 
d="M393 108h62l-54 -253h-125l31 145h-343l114 537h137l-91 -429h132l91 429h137z" />
    <glyph glyph-name="afii10089" unicode="&#x447;" horiz-adv-x="478" 
d="M211 0l42 202c-19 -3 -73 -6 -92 -6c-94 0 -137 45 -137 119c0 15 2 32 6 50l36 172h137l-38 -180c-7 -34 5 -58 47 -58c11 0 49 2 63 4l50 234h137l-114 -537h-137z" />
    <glyph glyph-name="afii10090" unicode="&#x448;" horiz-adv-x="735" 
d="M-36 0l114 537h135l-91 -429h118l91 429h135l-91 -429h118l91 429h135l-114 -537h-641z" />
    <glyph glyph-name="afii10091" unicode="&#x449;" horiz-adv-x="754" 
d="M-36 0l114 537h135l-91 -429h118l91 429h135l-91 -429h118l91 429h135l-91 -429h62l-54 -253h-125l31 145h-578z" />
    <glyph glyph-name="afii10092" unicode="&#x44a;" horiz-adv-x="530" 
d="M466 208c0 -37 -8 -74 -24 -105c-49 -96 -133 -103 -219 -103h-191l90 430h-114l23 107h251l-40 -184h36c113 0 188 -32 188 -145zM330 197c0 49 -37 56 -81 56h-32l-33 -153h48c13 0 25 0 37 3c40 8 61 55 61 94z" />
    <glyph glyph-name="afii10093" unicode="&#x44b;" horiz-adv-x="660" 
d="M643 537l-114 -537h-137l114 537h137zM392 208c0 -37 -9 -74 -25 -105c-49 -96 -133 -103 -219 -103h-184l114 537h137l-40 -184h29c112 0 188 -32 188 -145zM255 197c0 49 -36 56 -81 56h-23l-33 -153h39c13 0 25 0 37 3c40 8 61 55 61 94z" />
    <glyph glyph-name="afii10094" unicode="&#x44c;" horiz-adv-x="463" 
d="M403 208c0 -37 -9 -74 -25 -105c-49 -96 -133 -103 -219 -103h-195l114 537h137l-40 -184h40c112 0 188 -32 188 -145zM266 197c0 49 -36 56 -81 56h-33l-33 -153h49c13 0 25 0 37 3c40 8 61 55 61 94z" />
    <glyph glyph-name="afii10095" unicode="&#x44d;" horiz-adv-x="463" 
d="M425 385c0 -96 -34 -231 -75 -300c-43 -71 -112 -99 -193 -99c-112 0 -174 53 -174 147c0 21 3 43 4 54h127c-3 -15 -5 -34 -5 -46c0 -39 19 -62 53 -62c71 0 88 87 106 152h-130l20 93h129c3 22 5 44 5 63c0 50 -19 75 -56 75c-46 0 -72 -44 -82 -87h-128
c33 124 99 177 217 177c109 0 182 -43 182 -167z" />
    <glyph glyph-name="afii10096" unicode="&#x44e;" horiz-adv-x="696" 
d="M658 386c0 -87 -36 -230 -77 -304c-39 -71 -107 -96 -186 -96c-124 0 -189 58 -189 170c0 21 2 45 5 71h-62l-48 -227h-137l114 537h137l-43 -202h62c13 48 30 93 50 124c42 66 97 93 184 93c114 0 190 -42 190 -166zM466 459c-68 0 -91 -101 -110 -196
c-7 -37 -17 -81 -17 -118c0 -45 20 -68 60 -68c66 0 84 90 106 187c12 54 19 99 19 129c0 44 -19 66 -58 66z" />
    <glyph glyph-name="afii10097" unicode="&#x44f;" horiz-adv-x="486" 
d="M233 198l-127 -198h-159l155 212c-50 18 -76 55 -76 124c0 56 20 115 60 153c41 40 95 48 164 48h219l-114 -537h-136l44 198h-30zM235 294h50l30 146h-63c-59 0 -91 -32 -91 -90c0 -45 29 -56 74 -56z" />
    <glyph glyph-name="uni0450" unicode="&#x450;" horiz-adv-x="463" 
d="M397 180c-32 -124 -85 -195 -225 -195c-118 0 -175 54 -175 166c0 80 24 195 56 267c41 92 111 133 209 133c114 0 175 -56 175 -162c0 -37 -7 -81 -22 -141h-273c-9 -36 -15 -78 -15 -107c0 -43 21 -68 58 -68c43 0 70 34 85 107h127zM159 329h141c8 36 11 56 11 71
c0 41 -20 62 -57 62c-68 0 -83 -82 -95 -133zM342 602h-94l-68 144h138z" />
    <glyph glyph-name="afii10071" unicode="&#x451;" horiz-adv-x="463" 
d="M397 180c-32 -124 -85 -195 -225 -195c-118 0 -175 54 -175 166c0 80 24 195 56 267c41 92 111 133 209 133c114 0 175 -56 175 -162c0 -37 -7 -81 -22 -141h-273c-9 -36 -15 -78 -15 -107c0 -43 21 -68 58 -68c43 0 70 34 85 107h127zM159 329h141c8 36 11 56 11 71
c0 41 -20 62 -57 62c-68 0 -83 -82 -95 -133zM412 599h-112l25 118h112zM240 599h-112l25 118h112z" />
    <glyph glyph-name="afii10099" unicode="&#x452;" 
d="M430 297c0 -36 -10 -75 -18 -110l-34 -153c-33 -148 -91 -214 -231 -214c-19 0 -45 4 -54 7l20 95c11 -1 24 -4 32 -4c48 0 77 28 102 145l29 137c4 17 10 46 10 64c0 27 -17 44 -44 44c-32 0 -66 -21 -79 -50c-8 -17 -18 -58 -22 -79l-38 -179h-137l98 457h-50l20 94h50
l35 161h137l-35 -161h181l-20 -94h-182l-12 -55c-7 -30 -10 -39 -17 -64c33 48 83 75 140 75c73 0 119 -45 119 -116z" />
    <glyph glyph-name="afii10100" unicode="&#x453;" horiz-adv-x="382" 
d="M195 430l-91 -430h-137l114 537h329l-23 -107h-192zM258 730h133l-134 -143h-90z" />
    <glyph glyph-name="afii10101" unicode="&#x454;" horiz-adv-x="463" 
d="M283 324l-20 -93h-129c-5 -28 -8 -56 -8 -80c0 -50 19 -75 56 -75c54 0 77 63 87 111h128c-9 -45 -25 -85 -47 -119c-37 -57 -89 -82 -175 -82c-109 0 -182 43 -182 167c0 96 34 231 75 300c43 71 112 99 193 99c112 0 174 -53 174 -147c0 -12 0 -21 -1 -30h-126
c1 8 1 15 1 22c0 39 -19 62 -53 62c-67 0 -87 -83 -102 -135h129z" />
    <glyph glyph-name="afii10102" unicode="&#x455;" horiz-adv-x="444" 
d="M402 375h-121c2 12 3 16 3 26c0 40 -21 62 -60 62c-40 0 -69 -27 -69 -65c0 -41 40 -56 71 -69c71 -30 146 -61 146 -151c0 -128 -91 -192 -214 -192c-119 0 -184 53 -184 151c0 15 1 22 4 42h122c-2 -14 -3 -22 -3 -33c0 -47 23 -72 67 -72s75 31 75 76
c0 44 -29 52 -87 80c-66 31 -125 63 -125 146c0 117 90 174 200 174c98 0 177 -38 177 -144c0 -12 0 -18 -2 -31z" />
    <glyph glyph-name="afii10103" unicode="&#x456;" horiz-adv-x="240" 
d="M81 537h137l-114 -537h-137zM119 717h138l-25 -118h-138z" />
    <glyph glyph-name="afii10104" unicode="&#x457;" horiz-adv-x="240" 
d="M81 537h137l-114 -537h-137zM305 599h-112l25 118h112zM133 599h-112l25 118h112z" />
    <glyph glyph-name="afii10105" unicode="&#x458;" horiz-adv-x="240" 
d="M85 537h137l-111 -527c-25 -118 -45 -189 -191 -189c-25 0 -34 1 -57 6l20 95c11 -3 19 -4 30 -4c41 0 45 19 67 124zM122 717h138l-25 -118h-138z" />
    <glyph glyph-name="afii10106" unicode="&#x459;" horiz-adv-x="733" 
d="M665 202c0 -36 -9 -72 -24 -102c-47 -93 -127 -100 -214 -100h-195l91 430h-94l-52 -217c-51 -214 -128 -221 -190 -221c-23 0 -59 5 -72 8l23 108c6 -2 20 -5 27 -5c26 0 53 -1 80 111l79 323h359l-42 -196h42c111 0 182 -31 182 -139zM529 197c0 43 -30 50 -76 50h-33
l-30 -141h47c12 0 24 1 35 3c36 8 57 50 57 88z" />
    <glyph glyph-name="afii10107" unicode="&#x45a;" horiz-adv-x="733" 
d="M666 202c0 -36 -9 -72 -24 -102c-47 -93 -128 -100 -214 -100h-195l48 227h-132l-48 -227h-137l114 537h137l-42 -196h132l42 196h137l-42 -196h42c111 0 182 -31 182 -139zM530 197c0 43 -31 50 -76 50h-33l-30 -141h46c13 0 25 1 36 3c36 8 57 50 57 88z" />
    <glyph glyph-name="afii10108" unicode="&#x45b;" 
d="M430 297c0 -36 -11 -75 -18 -110l-39 -187h-139l42 200c4 17 10 46 10 64c0 27 -17 44 -44 44c-32 0 -65 -21 -78 -50c-8 -17 -18 -58 -22 -79l-38 -179h-138l98 457h-50l20 94h50l35 161h137l-35 -161h181l-20 -94h-182l-12 -55c-7 -30 -10 -39 -17 -64
c33 48 83 75 140 75c73 0 119 -45 119 -116z" />
    <glyph glyph-name="afii10109" unicode="&#x45c;" 
d="M413 0h-143l-68 222l-68 -71l-33 -151h-132l114 537h134l-37 -173l-14 -50c10 16 34 46 43 57l143 166h159l-205 -224zM298 730h133l-134 -143h-90z" />
    <glyph glyph-name="uni045D" unicode="&#x45d;" horiz-adv-x="519" 
d="M503 537l-114 -537h-133l47 220c7 34 23 93 32 116l-222 -336h-149l114 537h132l-47 -221c-5 -25 -20 -88 -33 -117l223 338h150zM367 602h-94l-68 144h138z" />
    <glyph glyph-name="afii10110" unicode="&#x45e;" horiz-adv-x="444" 
d="M42 537h141l1 -252c0 -55 -2 -109 -8 -164c18 54 35 107 56 160l101 256h144l-232 -491c-31 -66 -66 -131 -87 -162c-33 -48 -75 -65 -160 -65c-26 0 -43 2 -68 6l21 97c21 -4 28 -5 41 -5c49 0 65 26 84 68l4 9zM422 727c-22 -92 -76 -140 -157 -140
c-78 0 -128 47 -128 122c0 5 1 9 1 18h65v-5c0 -40 24 -62 65 -62c42 0 73 24 86 67h68z" />
    <glyph glyph-name="afii10193" unicode="&#x45f;" 
d="M370 0h-141l-31 -145h-125l31 145h-140l114 537h137l-91 -429h132l91 429h137z" />
    <glyph glyph-name="afii10146" unicode="&#x462;" horiz-adv-x="571" 
d="M39 530l24 110h92l16 74h144l-16 -74h133l-24 -110h-132l-21 -101h77c136 0 209 -66 181 -215c-22 -116 -87 -214 -241 -214h-252l112 530h-93zM232 323l-46 -217h60c72 0 109 39 124 110c16 73 -17 107 -74 107h-64z" />
    <glyph glyph-name="afii10194" unicode="&#x463;" horiz-adv-x="505" 
d="M25 457l21 94h78l35 163h137l-34 -163h153l-21 -94h-152l-27 -127h72c104 0 171 -43 149 -162c-22 -118 -96 -168 -215 -168h-213l96 457h-79zM301 162c11 53 -9 66 -59 66h-49l-28 -132h46c56 0 79 13 90 66z" />
    <glyph glyph-name="afii10147" unicode="&#x472;" horiz-adv-x="556" 
d="M109 357c46 217 103 371 320 371c216 0 212 -154 166 -371s-103 -371 -320 -371c-216 0 -212 154 -166 371zM407 622c-78 0 -109 -61 -144 -215h198c29 154 23 215 -54 215zM297 92c77 0 108 60 143 214h-198c-29 -154 -22 -214 55 -214z" />
    <glyph glyph-name="afii10195" unicode="&#x473;" horiz-adv-x="480" 
d="M83 269c40 184 113 283 271 283c166 3 193 -96 153 -283c-37 -184 -112 -283 -270 -283c-168 -3 -192 95 -154 283zM256 80c49 0 78 42 103 144h-147c-15 -86 -15 -144 44 -144zM335 458c-58 0 -82 -56 -103 -139h146c16 98 5 139 -43 139z" />
    <glyph glyph-name="afii10148" unicode="&#x474;" horiz-adv-x="537" 
d="M595 552l-246 -552h-185l-12 714h154l-11 -528h3l178 423c39 91 96 119 160 119c22 0 42 -2 61 -8l-27 -130c-11 4 -21 6 -30 6c-19 0 -31 -14 -45 -44z" />
    <glyph glyph-name="afii10196" unicode="&#x475;" horiz-adv-x="468" 
d="M492 408l-190 -408h-160l-25 538h144l-5 -385h2l118 290c33 81 86 109 152 109c21 0 34 -2 50 -8l-22 -104c-7 3 -17 5 -26 5c-14 0 -27 -12 -38 -37z" />
    <glyph glyph-name="afii10050" unicode="&#x490;" horiz-adv-x="444" 
d="M483 594h-236l-126 -594h-145l151 712h248l30 141h133z" />
    <glyph glyph-name="afii10098" unicode="&#x491;" horiz-adv-x="382" 
d="M387 430h-192l-91 -430h-137l114 537h204l31 145h125z" />
    </font>
</defs>
</svg>
