<?xml version="1.0" encoding="utf-8"?>
<!-- Generator: Adobe Illustrator 16.0.2, SVG Export Plug-In . SVG Version: 6.00 Build 0)  -->
<!DOCTYPE svg PUBLIC "-//W3C//DTD SVG 1.1//EN" "http://www.w3.org/Graphics/SVG/1.1/DTD/svg11.dtd">
<svg version="1.1" id="Layer_1" xmlns="http://www.w3.org/2000/svg" xmlns:xlink="http://www.w3.org/1999/xlink" x="0px" y="0px"
	 width="45px" height="50px" viewBox="0 0 45 50" enable-background="new 0 0 45 50" xml:space="preserve">
<g>
	<path d="M38.879,1.197H6.118c-2.416,0-4.381,1.966-4.381,4.383v38.84c0,2.417,1.965,4.383,4.381,4.383h32.763
		c2.416,0,4.383-1.966,4.383-4.383V5.58C43.262,3.164,41.297,1.197,38.879,1.197z M40.262,44.42c0,0.764-0.619,1.383-1.383,1.383
		H6.118c-0.762,0-1.381-0.619-1.381-1.383V5.58c0-0.763,0.619-1.383,1.381-1.383h32.763c0.762,0,1.383,0.62,1.383,1.383v38.84
		H40.262z"/>
	<circle cx="22.5" cy="36.714" r="3.185"/>
	<path d="M34.34,10.328H10.659c-0.828,0-1.5,0.671-1.5,1.5s0.672,1.5,1.5,1.5H34.34c0.828,0,1.5-0.671,1.5-1.5
		S35.168,10.328,34.34,10.328z"/>
	<path d="M34.34,17.145H10.659c-0.828,0-1.5,0.671-1.5,1.5s0.672,1.5,1.5,1.5H34.34c0.828,0,1.5-0.671,1.5-1.5
		S35.168,17.145,34.34,17.145z"/>
	<path d="M34.34,23.961H10.659c-0.828,0-1.5,0.672-1.5,1.5s0.672,1.5,1.5,1.5H34.34c0.828,0,1.5-0.672,1.5-1.5
		S35.168,23.961,34.34,23.961z"/>
</g>
</svg>
