<?xml version="1.0" encoding="utf-8"?>
<!-- Generator: Adobe Illustrator 16.0.2, SVG Export Plug-In . SVG Version: 6.00 Build 0)  -->
<!DOCTYPE svg PUBLIC "-//W3C//DTD SVG 1.1//EN" "http://www.w3.org/Graphics/SVG/1.1/DTD/svg11.dtd">
<svg version="1.1" id="Layer_1" xmlns="http://www.w3.org/2000/svg" xmlns:xlink="http://www.w3.org/1999/xlink" x="0px" y="0px"
	 width="50px" height="50px" viewBox="0 0 50 50" enable-background="new 0 0 50 50" xml:space="preserve">
<g>
	<path fill="#FFFFFF" d="M41.616,18.608H8.382c-2.495,0-4.525,2.03-4.525,4.525l4.037,20.878L8,44.372
		c0.948,2.368,2.757,3.782,4.839,3.782h24.205c2.072,0,3.867-1.351,4.925-3.707l0.094-0.21l4.044-20.721l0.037-0.383
		C46.144,20.638,44.112,18.608,41.616,18.608z M38.229,43c-0.296,0.588-0.737,1.154-1.185,1.154H12.839
		c-0.338,0-0.761-0.45-1.06-1.112l-3.909-20.03c0.055-0.231,0.263-0.404,0.511-0.404h33.234c0.249,0,0.458,0.173,0.514,0.404
		L38.229,43z"/>
	<path fill="#FFFFFF" d="M15.419,17.67c0.256,0.109,0.522,0.161,0.784,0.161c0.777,0,1.517-0.456,1.841-1.216l5.113-11.984
		c0.434-1.016-0.039-2.191-1.055-2.624c-1.017-0.435-2.192,0.038-2.625,1.055l-5.113,11.984
		C13.931,16.062,14.403,17.237,15.419,17.67z"/>
	<path fill="#FFFFFF" d="M31.724,16.615c0.324,0.76,1.063,1.216,1.841,1.216c0.262,0,0.528-0.052,0.784-0.161
		c1.016-0.433,1.488-1.608,1.055-2.624L30.29,3.062c-0.434-1.017-1.608-1.489-2.625-1.055c-1.016,0.433-1.488,1.608-1.055,2.624
		L31.724,16.615z"/>
	<path fill="#FFFFFF" d="M17.289,26.328c-1.104,0-2,0.896-2,2v9.828c0,1.104,0.896,2,2,2s2-0.896,2-2v-9.828
		C19.289,27.224,18.394,26.328,17.289,26.328z"/>
	<path fill="#FFFFFF" d="M24.813,26.328c-1.104,0-2,0.896-2,2v9.828c0,1.104,0.896,2,2,2s2-0.896,2-2v-9.828
		C26.813,27.224,25.918,26.328,24.813,26.328z"/>
	<path fill="#FFFFFF" d="M32.339,26.328c-1.104,0-2,0.896-2,2v9.828c0,1.104,0.896,2,2,2s2-0.896,2-2v-9.828
		C34.339,27.224,33.443,26.328,32.339,26.328z"/>
</g>
</svg>
