<?xml version="1.0" encoding="utf-8"?>
<!-- Generator: Adobe Illustrator 16.0.2, SVG Export Plug-In . SVG Version: 6.00 Build 0)  -->
<!DOCTYPE svg PUBLIC "-//W3C//DTD SVG 1.1//EN" "http://www.w3.org/Graphics/SVG/1.1/DTD/svg11.dtd">
<svg version="1.1" id="Layer_1" xmlns="http://www.w3.org/2000/svg" xmlns:xlink="http://www.w3.org/1999/xlink" x="0px" y="0px"
	 width="50px" height="50px" viewBox="0 0 50 50" enable-background="new 0 0 50 50" xml:space="preserve">
<path fill="#E6003C" d="M41.633,45.25c-0.965,0-1.873-0.376-2.556-1.059L25,30.114L10.923,44.191
	c-0.683,0.683-1.591,1.059-2.557,1.059c-0.966,0-1.875-0.377-2.559-1.06c-0.681-0.682-1.057-1.589-1.056-2.555
	c0-0.965,0.376-1.873,1.059-2.555l14.079-14.082L5.809,10.922C4.401,9.513,4.401,7.218,5.81,5.807
	C6.491,5.126,7.398,4.75,8.363,4.75c0.966,0,1.874,0.376,2.556,1.059L25,19.888L39.08,5.811c0.683-0.683,1.591-1.059,2.556-1.059
	s1.871,0.375,2.553,1.057c0.684,0.683,1.061,1.591,1.061,2.557c0,0.965-0.376,1.873-1.06,2.555L30.111,25L44.188,39.08
	c0.683,0.683,1.059,1.59,1.059,2.556c0,0.965-0.376,1.873-1.059,2.556S42.599,45.25,41.633,45.25z"/>
</svg>
