<?xml version="1.0" encoding="utf-8"?>
<!-- Generator: Adobe Illustrator 16.0.2, SVG Export Plug-In . SVG Version: 6.00 Build 0)  -->
<!DOCTYPE svg PUBLIC "-//W3C//DTD SVG 1.1//EN" "http://www.w3.org/Graphics/SVG/1.1/DTD/svg11.dtd">
<svg version="1.1" id="Layer_1" xmlns="http://www.w3.org/2000/svg" xmlns:xlink="http://www.w3.org/1999/xlink" x="0px" y="0px"
	 width="50px" height="50px" viewBox="0 0 50 50" enable-background="new 0 0 50 50" xml:space="preserve">
<g>
	<path d="M24.999,48.425c-12.916,0-23.424-10.509-23.424-23.426c0-12.916,10.508-23.424,23.424-23.424
		c12.917,0,23.426,10.508,23.426,23.424C48.425,37.916,37.916,48.425,24.999,48.425z M24.999,4.575
		c-11.262,0-20.424,9.162-20.424,20.424c0,11.263,9.162,20.426,20.424,20.426c11.263,0,20.426-9.163,20.426-20.426
		C45.425,13.737,36.262,4.575,24.999,4.575z"/>
</g>
<g>
	<path d="M25.827,37.583v-12.6h4.156l0.656-4.176h-4.813v-2.094c0-1.09,0.357-2.129,1.92-2.129h3.125v-4.168h-4.438
		c-3.73,0-4.748,2.457-4.748,5.861v2.529h-2.559v4.176h2.559v12.6H25.827L25.827,37.583z"/>
</g>
</svg>
