<?xml version="1.0" encoding="utf-8"?>
<!-- Generator: Adobe Illustrator 16.0.2, SVG Export Plug-In . SVG Version: 6.00 Build 0)  -->
<!DOCTYPE svg PUBLIC "-//W3C//DTD SVG 1.1//EN" "http://www.w3.org/Graphics/SVG/1.1/DTD/svg11.dtd">
<svg version="1.1" id="Layer_1" xmlns="http://www.w3.org/2000/svg" xmlns:xlink="http://www.w3.org/1999/xlink" x="0px" y="0px"
	 width="60px" height="50px" viewBox="-11.5 6 60 50" enable-background="new -11.5 6 60 50" xml:space="preserve">
<g>
	<path fill="#E6003C" d="M41.054,28.408h-5.515V12.593c0-2.959-2.407-5.366-5.368-5.366H6.826c-2.958,0-5.364,2.407-5.364,5.366
		v15.815h-5.519c-2.958,0-5.365,2.407-5.365,5.366v15.634c0,2.959,2.407,5.366,5.365,5.366h45.11c2.96,0,5.368-2.407,5.368-5.366
		V33.773C46.422,30.814,44.014,28.408,41.054,28.408z M5.339,12.593c0-0.821,0.668-1.489,1.487-1.489h23.345
		c0.822,0,1.491,0.668,1.491,1.489v15.815H5.339V12.593z M42.545,49.407c0,0.821-0.669,1.489-1.491,1.489h-45.11
		c-0.82,0-1.488-0.668-1.488-1.489V33.773c0-0.821,0.668-1.488,1.488-1.488h45.11c0.822,0,1.491,0.667,1.491,1.488V49.407z"/>
	<circle fill="#E6003C" cx="33.601" cy="41.591" r="4.811"/>
	<path fill="#E6003C" d="M26.204,14.863H11.502c-1.07,0-1.938,0.868-1.938,1.938c0,1.07,0.868,1.938,1.938,1.938h14.702
		c1.07,0,1.938-0.868,1.938-1.938C28.143,15.73,27.274,14.863,26.204,14.863z"/>
	<path fill="#E6003C" d="M19.805,21.275h-8.303c-1.07,0-1.938,0.868-1.938,1.938c0,1.07,0.868,1.938,1.938,1.938h8.303
		c1.07,0,1.938-0.868,1.938-1.938C21.743,22.144,20.875,21.275,19.805,21.275z"/>
</g>
</svg>
