<?xml version="1.0" encoding="utf-8"?>
<!-- Generator: Adobe Illustrator 16.0.0, SVG Export Plug-In . SVG Version: 6.00 Build 0)  -->
<!DOCTYPE svg PUBLIC "-//W3C//DTD SVG 1.1//EN" "http://www.w3.org/Graphics/SVG/1.1/DTD/svg11.dtd">
<svg version="1.1" id="Capa_1" xmlns="http://www.w3.org/2000/svg" xmlns:xlink="http://www.w3.org/1999/xlink" x="0px" y="0px"
	 width="56.805px" height="52.034px" viewBox="0 2.556 56.805 52.034" enable-background="new 0 2.556 56.805 52.034"
	 xml:space="preserve">
<g>
	<g id="_x32_7">
		<g>
			<path d="M56.582,4.522c-0.452-1.092-1.505-1.796-2.686-1.796H2.908c-1.181,0-2.233,0.704-2.686,1.796
				c-0.451,1.091-0.204,2.336,0.63,3.171l20.177,20.21V53.19c0,0.682,0.551,1.23,1.229,1.23c0.68,0,1.229-0.549,1.229-1.23V27.393
				c0-0.327-0.13-0.64-0.359-0.87L2.591,5.953c-0.184-0.186-0.14-0.386-0.098-0.487C2.537,5.36,2.646,5.189,2.908,5.189h50.989
				c0.261,0,0.37,0.173,0.414,0.276c0.042,0.103,0.086,0.303-0.099,0.487l-20.534,20.57c-0.229,0.23-0.36,0.543-0.36,0.87v18.412
				c0,0.682,0.551,1.23,1.229,1.23c0.681,0,1.229-0.551,1.229-1.23V27.902l20.178-20.21C56.785,6.858,57.033,5.613,56.582,4.522z"/>
		</g>
	</g>
</g>
</svg>
