<?xml version="1.0" encoding="utf-8"?>
<!-- Generator: Adobe Illustrator 16.0.2, SVG Export Plug-In . SVG Version: 6.00 Build 0)  -->
<!DOCTYPE svg PUBLIC "-//W3C//DTD SVG 1.1//EN" "http://www.w3.org/Graphics/SVG/1.1/DTD/svg11.dtd">
<svg version="1.1" id="Layer_1" xmlns="http://www.w3.org/2000/svg" xmlns:xlink="http://www.w3.org/1999/xlink" x="0px" y="0px"
	 width="40px" height="70px" viewBox="0 0 40 70" enable-background="new 0 0 40 70" xml:space="preserve">
<g>
	<path d="M37.736,64.932H2.264c-0.828,0-1.5,0.672-1.5,1.5s0.672,1.5,1.5,1.5h35.473c0.828,0,1.5-0.672,1.5-1.5
		S38.564,64.932,37.736,64.932z"/>
	<path d="M34.736,2.068H5.264c-2.481,0-4.5,2.019-4.5,4.5v51.426c0,2.481,2.019,4.5,4.5,4.5h29.473c2.481,0,4.5-2.019,4.5-4.5V6.568
		C39.236,4.087,37.218,2.068,34.736,2.068z M5.264,5.068h29.473c0.827,0,1.5,0.673,1.5,1.5v14.311H3.764V6.568
		C3.764,5.741,4.437,5.068,5.264,5.068z M34.736,59.494H5.264c-0.827,0-1.5-0.673-1.5-1.5V23.879h32.473v34.115
		C36.236,58.821,35.563,59.494,34.736,59.494z"/>
	<path d="M31.736,26.832c-0.828,0-1.5,0.672-1.5,1.5v15.438c0,0.828,0.672,1.5,1.5,1.5s1.5-0.672,1.5-1.5V28.332
		C33.236,27.504,32.564,26.832,31.736,26.832z"/>
	<path d="M31.736,18.021c0.828,0,1.5-0.672,1.5-1.5V9.279c0-0.829-0.672-1.5-1.5-1.5s-1.5,0.671-1.5,1.5v7.242
		C30.236,17.35,30.908,18.021,31.736,18.021z"/>
</g>
</svg>
