<?xml version="1.0" encoding="utf-8"?>
<!-- Generator: Adobe Illustrator 19.0.0, SVG Export Plug-In . SVG Version: 6.00 Build 0)  -->
<svg version="1.1" id="Layer_1" xmlns="http://www.w3.org/2000/svg" xmlns:xlink="http://www.w3.org/1999/xlink" x="0px" y="0px"
	 viewBox="0 0 204 61" style="enable-background:new 0 0 204 61;" xml:space="preserve">
<style type="text/css">
	.st0{fill:#1B1C20;}
	.st1{fill-rule:evenodd;clip-rule:evenodd;fill:url(#XMLID_2_);}
	.st2{fill-rule:evenodd;clip-rule:evenodd;fill:url(#XMLID_3_);}
	.st3{fill-rule:evenodd;clip-rule:evenodd;fill:url(#XMLID_4_);}
	.st4{fill-rule:evenodd;clip-rule:evenodd;fill:url(#XMLID_5_);}
	.st5{fill:#007DC5;}
</style>
<g id="XMLID_134_">
	<g id="XMLID_197_">
		<path id="XMLID_212_" class="st0" d="M93.9,34.3c-1.3,0-2.8-0.2-4.1-0.5c-0.5-0.1-0.8-0.6-0.6-1.1c0.1-0.4,0.4-0.7,0.9-0.7
			c0.1,0,0.1,0,0.2,0c0.4,0.1,1.9,0.4,3.7,0.4c0.3,0,0.5,0,0.8,0c0.7,0,1.4-0.2,1.9-0.4c0.3-0.1,0.5-0.2,0.7-0.4
			c0.3-0.3,0.6-0.7,0.8-1.2c0.1-0.3,0.2-0.7,0.3-1.2l0.1-0.4l-0.4,0.1c-0.5,0.1-1,0.2-1.5,0.2c-0.3,0-0.6,0-0.9,0
			c-1.6,0-2.9-0.4-3.7-1.1c-1.3-1.1-1.3-2.7-1.3-4v-0.4c0-1.2,0.1-2.4,0.3-3.4c0.3-1.4,0.8-2.6,1.5-3.7c0.7-1.1,1.5-1.8,2.6-2.2
			c0.4-0.2,0.9-0.3,1.5-0.3c0.4,0,0.9-0.1,1.4-0.1l0.3,0c0.6,0,1.2,0.1,1.8,0.2c0.6,0.1,1.2,0.2,1.8,0.4l0.8,0.2l-2.4,13.6
			c-0.1,1.1-0.3,1.9-0.6,2.7c-0.3,0.8-0.8,1.5-1.4,1.9c-0.4,0.3-1,0.6-1.7,0.8c-0.6,0.2-1.2,0.3-1.9,0.3
			C94.5,34.3,94.2,34.3,93.9,34.3z M98,15.9c-0.5,0-1,0-1.3,0.1c-0.3,0-0.6,0.1-0.9,0.2c-0.7,0.3-1.2,0.7-1.7,1.5
			c-0.6,0.9-1,1.9-1.2,3.1c-0.2,0.9-0.3,2-0.3,3c0,0.1,0,0.3,0,0.4c0,1,0,2.1,0.6,2.6c0.5,0.4,1.4,0.7,2.6,0.7c0.3,0,0.6,0,0.8,0
			c0.7-0.1,1.4-0.2,2-0.3l0.2,0l1.9-10.9l-0.2-0.1c-0.2,0-0.4-0.1-0.6-0.1c-0.5-0.1-1.1-0.1-1.6-0.1L98,15.9z"/>
		<path id="XMLID_209_" class="st0" d="M109.8,29.4c-1.6,0-2.9-0.4-3.8-1.1c-1.3-1.1-1.3-2.8-1.3-4l0-0.4c0-2.9,0.6-5.3,1.8-7.2
			c1.4-2.2,3.2-2.6,5.5-2.6l0.3,0c1.2,0,2.4,0.2,3.7,0.6l0.8,0.2l-2.4,13.6l-0.5,0.2C112.6,29.1,111.1,29.4,109.8,29.4z M112,16
			c-1.9,0-2.9,0.3-3.9,1.8c-1,1.6-1.5,3.6-1.5,6.1l0,0.4c0,1,0,2.1,0.6,2.6c0.5,0.4,1.4,0.6,2.6,0.6c1.1,0,2.1-0.2,2.8-0.4l0.2,0
			l1.9-10.8l-0.2-0.1c-0.7-0.2-1.4-0.2-2.1-0.2L112,16z"/>
		<path id="XMLID_206_" class="st0" d="M129.1,29.4c-1.6,0-2.9-0.4-3.8-1.1c-1.3-1.1-1.3-2.8-1.3-4.1l0-0.4c0-2.9,0.6-5.3,1.8-7.2
			c1.4-2.2,3.2-2.6,5.5-2.6l0.3,0c1.2,0,2.4,0.2,3.7,0.6l0.8,0.2l-2.4,13.6l-0.5,0.2C132,29.1,130.4,29.4,129.1,29.4z M131.4,16
			c-1.9,0-2.9,0.3-3.9,1.8c-1,1.6-1.5,3.6-1.5,6.1l0,0.4c0,1,0,2.1,0.6,2.6c0.5,0.4,1.4,0.6,2.6,0.6c1.2,0,2.2-0.2,2.8-0.4l0.2,0
			l1.9-10.8l-0.2-0.1c-0.7-0.2-1.4-0.2-2.1-0.2L131.4,16z"/>
		<path id="XMLID_203_" class="st0" d="M175,29.4c-1.6,0-2.9-0.4-3.8-1.1c-1.3-1.1-1.3-2.8-1.3-4l0-0.4c0-2.9,0.6-5.3,1.8-7.2
			c1.4-2.2,3.2-2.6,5.5-2.6l0.3,0c1.2,0,2.4,0.2,3.7,0.6l0.8,0.2l-2.4,13.6l-0.5,0.2C177.8,29.1,176.3,29.4,175,29.4z M177.2,16
			c-1.9,0-2.9,0.3-3.9,1.8c-1,1.6-1.5,3.6-1.5,6.1l0,0.4c0,1,0,2.1,0.6,2.6c0.5,0.4,1.4,0.7,2.6,0.7c1.1,0,2.1-0.2,2.8-0.4l0.2,0
			l1.9-10.8l-0.2-0.1c-0.7-0.2-1.4-0.2-2.1-0.2L177.2,16z"/>
		<path id="XMLID_202_" class="st0" d="M119.1,29.6c-0.1,0-0.1,0-0.2,0c-0.2,0-0.5-0.2-0.6-0.4c-0.1-0.2-0.2-0.5-0.2-0.7l3.5-19.4
			c0.1-0.5,0.5-0.8,0.9-0.8c0.1,0,0.1,0,0.2,0c0.2,0,0.5,0.2,0.6,0.4c0.1,0.2,0.2,0.5,0.2,0.7L120,28.8
			C119.9,29.3,119.5,29.6,119.1,29.6z"/>
		<path id="XMLID_201_" class="st0" d="M147.3,29.7c-0.3,0-0.7-0.2-0.8-0.5l-3.3-6l-5.4,6.1c-0.2,0.2-0.4,0.3-0.7,0.3
			c-0.2,0-0.5-0.1-0.6-0.2c-0.2-0.2-0.3-0.4-0.3-0.6c0-0.3,0.1-0.5,0.2-0.7l5.9-6.6l-3.4-6.3c-0.2-0.5-0.1-1,0.4-1.3
			c0.1-0.1,0.3-0.1,0.5-0.1c0.3,0,0.7,0.2,0.8,0.5l3.1,5.7l5.2-5.8c0.2-0.2,0.4-0.3,0.7-0.3c0.2,0,0.5,0.1,0.6,0.2
			c0.2,0.2,0.3,0.4,0.3,0.6c0,0.3-0.1,0.5-0.2,0.7l-5.6,6.3l3.6,6.6c0.2,0.5,0.1,1-0.4,1.3C147.6,29.6,147.5,29.7,147.3,29.7z"/>
		<path id="XMLID_200_" class="st0" d="M154.9,34.4c-1.9,0-3.6-0.4-4.1-0.5c-0.5-0.1-0.8-0.6-0.7-1.1c0.1-0.4,0.5-0.7,0.9-0.7
			c0.1,0,0.1,0,0.2,0c1.1,0.3,2.5,0.4,3.6,0.4c1.5,0,2.7-0.3,3.3-0.8c0.5-0.4,0.9-1.1,1.1-2.2l0.1-0.3l-0.4,0
			c-0.5,0.1-1.4,0.1-2.2,0.1c-2.1,0-3.6-0.5-4.5-1.4c-0.9-0.9-1.1-2.3-0.8-3.9l1.7-9.8l1.9,0.3l-1.7,9.8c-0.2,1.1-0.1,1.8,0.4,2.3
			c0.5,0.6,1.5,0.8,3.1,0.8c0.9,0,1.8-0.1,2.7-0.2l0.2,0l2.3-12.7c0.1-0.4,0.5-0.8,0.9-0.8c0.1,0,0.1,0,0.2,0
			c0.5,0.1,0.9,0.6,0.8,1.1l-2.5,13.6c-0.3,2.3-0.9,3.7-2,4.6C158.4,34,156.9,34.4,154.9,34.4z"/>
		<path id="XMLID_199_" class="st0" d="M184.3,29.2c-0.6,0-1.3-0.3-1.6-1c-0.3-0.5-0.2-1.2,0.2-1.7l9.6-10.5h-6.9
			c-0.5,0-0.9-0.4-0.9-0.9c0-0.5,0.4-0.9,0.9-0.9h7c1.2,0,1.7,0.7,1.8,1c0.3,0.7,0,1.6-0.5,2.1l-9.2,10l7.5-0.1c0.5,0,0.9,0.4,1,0.9
			c0,0.3-0.1,0.5-0.3,0.7c-0.2,0.2-0.4,0.3-0.7,0.3L184.3,29.2z"/>
		<path id="XMLID_198_" class="st0" d="M166.1,29.4c-0.1,0-0.1,0-0.2,0c-0.2,0-0.5-0.2-0.6-0.4c-0.1-0.2-0.2-0.5-0.2-0.7l0.2-1
			c0.1-0.4,0.5-0.8,0.9-0.8c0.1,0,0.1,0,0.2,0c0.2,0,0.5,0.2,0.6,0.4c0.1,0.2,0.2,0.5,0.2,0.7l-0.2,1
			C166.9,29.1,166.5,29.4,166.1,29.4z"/>
	</g>
	<linearGradient id="XMLID_2_" gradientUnits="userSpaceOnUse" x1="52.8061" y1="39.438" x2="13.1042" y2="18.218">
		<stop  offset="0" style="stop-color:#0091D2"/>
		<stop  offset="1" style="stop-color:#46AECE"/>
	</linearGradient>
	<path id="XMLID_196_" class="st1" d="M76.4,21c-1-2.6-2.7-4.8-4.9-6.5c-0.2,0.7-0.5,1.3-0.6,1.7c-0.2,1.4-1.3,5.1-2.6,8.1
		c-0.4,0.9-1,1.9-1.7,2.9c-0.1,2-1.3,4.3-3.3,6.7c-1.9,2.3-4.5,4.6-7.6,6.6c-2.3,2-4.9,4-7.3,5.8c-2.1,1.5-6.8,1.8-11.8,1.4
		c-2.9,0.4-5.6,0.4-8,0.1c-3.2-0.4-5.7-1.4-7.1-2.8c-0.1,0-0.2-0.1-0.2-0.1c-2.3-1.4-5.9-9.6-4.7-14.5c0.6-2.5,9.9-9.9,19.8-17.2
		c-0.4,0.1-0.7,0.3-1.1,0.4c-8.5,3.5-15.6,8.6-20.1,14.2c-5.2,6.4-7.2,13.5-4.7,19.8c2.5,6.3,8.7,10.1,16.8,11.1
		c4.8,0.6,10.3,0.2,16.1-1.1c2.7-0.6,5.4-1.5,8.1-2.6c8.5-3.5,15.6-8.6,20.1-14.2C76.9,34.4,78.8,27.3,76.4,21z"/>
	<linearGradient id="XMLID_3_" gradientUnits="userSpaceOnUse" x1="52.7142" y1="39.9863" x2="35.9667" y2="5.2951">
		<stop  offset="0" style="stop-color:#46AECE"/>
		<stop  offset="1" style="stop-color:#0088D0"/>
	</linearGradient>
	<path id="XMLID_193_" class="st2" d="M78.3,13.2C75.9,7,69.8,3.3,61.8,2.3C57.2,1.7,51.7,2,46.1,3.4C43.5,4,40.8,4.9,38.2,6
		c-8.4,3.4-15.3,8.5-19.7,13.9c-5.1,6.3-7,13.3-4.6,19.5c2.4,6.2,8.5,9.9,16.5,10.9c4.7,0.6,10.1,0.2,15.7-1.1
		c2.6-0.6,5.3-1.5,7.9-2.6c8.4-3.4,15.3-8.5,19.7-13.9C78.8,26.4,80.8,19.4,78.3,13.2z M65.6,25.9c-3.3,4.1-8.7,8-15.4,10.7
		c-1.4,0.5-2.7,1-4,1.4c-5.3,1.6-10.3,2.1-14.4,1.6c-4.1-0.5-7.1-2-8-4.2c-0.9-2.3,0.3-5.4,2.9-8.7c3.3-4.1,8.7-8,15.4-10.7
		c1.4-0.5,2.7-1,4-1.4c5.3-1.6,10.3-2.1,14.4-1.6c4.1,0.5,7.1,2,8,4.2C69.4,19.5,68.2,22.6,65.6,25.9z"/>
	<linearGradient id="XMLID_4_" gradientUnits="userSpaceOnUse" x1="16.0492" y1="45.9963" x2="77.9617" y2="14.5077">
		<stop  offset="0" style="stop-color:#E5003C"/>
		<stop  offset="1" style="stop-color:#E5001B"/>
	</linearGradient>
	<path id="XMLID_190_" class="st3" d="M79.6,17.3c-2.5-6.2-8.7-9.9-16.8-10.9c-4.8-0.6-10.3-0.2-16,1.1C44.1,8.1,41.4,9,38.7,10
		c-8.5,3.4-15.6,8.5-20.1,13.9c-5.2,6.3-7.2,13.3-4.7,19.5c2.5,6.2,8.7,9.9,16.8,10.9c4.8,0.6,10.3,0.2,16-1.1
		c2.7-0.6,5.4-1.5,8.1-2.6c8.5-3.4,15.6-8.5,20.1-13.9C80.1,30.5,82.1,23.5,79.6,17.3z M66.6,29.9c-3.4,4.1-8.9,8-15.8,10.7
		c-1.4,0.5-2.7,1-4.1,1.4c-5.4,1.6-10.5,2.1-14.7,1.6c-4.2-0.5-7.2-2-8.1-4.2c-0.9-2.3,0.3-5.4,3-8.7c3.4-4.1,8.9-8,15.8-10.7
		c1.4-0.5,2.7-1,4.1-1.4c5.4-1.6,10.5-2.1,14.7-1.6c4.2,0.5,7.2,2,8.1,4.2C70.5,23.5,69.3,26.7,66.6,29.9z"/>
	<linearGradient id="XMLID_5_" gradientUnits="userSpaceOnUse" x1="44.1531" y1="29.9903" x2="76.7511" y2="14.7379">
		<stop  offset="0.5434" style="stop-color:#EA6653;stop-opacity:0"/>
		<stop  offset="1" style="stop-color:#EA6653"/>
	</linearGradient>
	<path id="XMLID_187_" class="st4" d="M79.6,17.3c-2.5-6.2-8.7-9.9-16.8-10.9C58.7,5.8,53.9,6,49,7c-3.4,0.7-6.8,1.7-10.3,3
		c-7.1,2.8-13.1,6.8-17.5,11.1c-3.8,5.6-5,11.6-2.8,17c2.5,6.2,8.7,9.9,16.8,10.9c4.2,0.5,8.9,0.3,13.8-0.6c3.4-0.7,6.8-1.7,10.3-3
		c7.1-2.8,13.1-6.8,17.5-11.1C80.6,28.7,81.8,22.7,79.6,17.3z M71,24.7c-0.8,0.9-1.6,1.8-2.6,2.7c-0.5,0.8-1.1,1.7-1.8,2.5
		c-3.4,4.1-8.9,8-15.8,10.7c-0.6,0.3-1.3,0.5-1.9,0.7c-6.2,2.2-12.1,2.9-16.9,2.3c-4.2-0.5-7.2-2-8.1-4.2c-0.9-2.3,0.3-5.4,3-8.7
		c0.8-0.9,1.6-1.8,2.6-2.7c0.5-0.8,1.1-1.7,1.8-2.5c3.4-4.1,8.9-8,15.8-10.7c0.6-0.3,1.3-0.5,1.9-0.7c6.2-2.2,12.1-2.9,16.9-2.3
		c4.2,0.5,7.2,2,8.1,4.2C74.9,18.3,73.7,21.4,71,24.7z"/>
	<g id="XMLID_135_">
		<path id="XMLID_184_" class="st5" d="M92,46.3c-0.1,0.3-0.1,0.4-0.2,0.5c-0.1,0.1-0.3,0.3-0.5,0.3c-0.2,0-0.3-0.1-0.4-0.3
			c0-0.1,0-0.2,0-0.5l0.4-2.1c-0.5,0.5-0.9,0.6-1.5,0.6c-0.5,0-0.9-0.2-1.2-0.5c-0.4-0.5-0.3-1.4-0.1-2.3c0.2-0.9,0.4-1.8,1-2.3
			c0.3-0.3,0.8-0.5,1.4-0.5c0.5,0,0.9,0.2,1.2,0.6c0.1-0.2,0.1-0.3,0.2-0.4c0.1-0.1,0.3-0.2,0.5-0.2c0.2,0,0.3,0.1,0.4,0.2
			c0,0.1,0,0.2,0,0.5L92,46.3z M90.3,43.9c0.9,0,1.2-0.8,1.4-1.8c0.2-1,0.2-1.8-0.7-1.8c-0.9,0-1.2,0.8-1.4,1.8
			C89.4,43,89.4,43.9,90.3,43.9z"/>
		<path id="XMLID_181_" class="st5" d="M94.9,44.6c-0.1,0.1-0.3,0.3-0.5,0.3c-0.2,0-0.4-0.1-0.4-0.3c0-0.1,0-0.2,0-0.5l0.8-4.1
			c0.1-0.3,0.1-0.4,0.2-0.5c0.1-0.1,0.3-0.3,0.5-0.3c0.2,0,0.3,0.1,0.4,0.3c0,0.1,0,0.2,0,0.5l-0.8,4.1C95,44.4,95,44.5,94.9,44.6z
			 M96,36.9c0.3,0,0.6,0.3,0.5,0.7c-0.1,0.4-0.4,0.7-0.8,0.7c-0.3,0-0.6-0.3-0.5-0.7C95.3,37.2,95.7,36.9,96,36.9z"/>
		<path id="XMLID_179_" class="st5" d="M97.9,46c-0.2,0.3-0.3,0.5-0.5,0.7c-0.3,0.3-0.7,0.4-1.1,0.4c-0.2,0-0.4,0-0.5-0.1
			c-0.1-0.1-0.1-0.2-0.1-0.4c0-0.2,0.1-0.3,0.2-0.4c0.1-0.1,0.2-0.1,0.4-0.1c0.3,0,0.6-0.1,0.8-0.6l0.4-0.8L97,40.2
			c0-0.2,0-0.4,0-0.5c0.1-0.2,0.3-0.3,0.6-0.3c0.3,0,0.4,0.2,0.4,0.5l0.4,3.4l1.7-3.4c0.1-0.3,0.3-0.5,0.6-0.5
			c0.2,0,0.4,0.2,0.4,0.3c0,0.2-0.1,0.3-0.2,0.5L97.9,46z"/>
		<path id="XMLID_177_" class="st5" d="M108.7,44.2c-0.1,0.3-0.1,0.4-0.2,0.5c-0.1,0.1-0.3,0.3-0.5,0.3c-0.2,0-0.3-0.1-0.4-0.3
			c0-0.1,0-0.2,0-0.5l0.5-2.6c0.2-0.9-0.2-1.2-0.8-1.2c-0.6,0-1.1,0.4-1.3,1.2l-0.5,2.7c-0.1,0.3-0.1,0.4-0.2,0.5
			c-0.1,0.1-0.3,0.3-0.5,0.3c-0.2,0-0.3-0.1-0.4-0.3c0-0.1,0-0.2,0-0.5l0.5-2.6c0.2-0.9-0.2-1.2-0.8-1.2c-0.6,0-1.1,0.4-1.3,1.2
			l-0.5,2.6c-0.1,0.3-0.1,0.4-0.2,0.5c-0.1,0.1-0.3,0.3-0.5,0.3c-0.2,0-0.3-0.1-0.4-0.3c0-0.1,0-0.2,0-0.5l0.8-4.1
			c0.1-0.3,0.1-0.4,0.2-0.5c0.1-0.1,0.3-0.2,0.5-0.2c0.2,0,0.3,0.1,0.4,0.2c0,0.1,0,0.2,0,0.4c0.4-0.4,1-0.6,1.5-0.6
			c0.6,0,1.1,0.3,1.3,0.8c0.5-0.5,1.1-0.8,1.8-0.8c0.5,0,1,0.2,1.2,0.5c0.3,0.4,0.4,0.9,0.2,1.6L108.7,44.2z"/>
		<path id="XMLID_174_" class="st5" d="M112,45c-1.4,0-2-1.1-1.7-2.5c0-0.2,0.1-0.4,0.2-0.5c0.2-0.1,0.3-0.1,0.5-0.1l2.7,0
			c0.2-0.9-0.2-1.5-1-1.6c-0.4,0-0.7,0.1-1.1,0.3c-0.2,0.1-0.3,0.2-0.5,0.2c-0.2,0-0.4-0.2-0.3-0.5c0.1-0.3,0.4-0.5,0.7-0.7
			c0.4-0.2,0.9-0.3,1.4-0.3c1.3,0,2.2,0.7,1.8,2.8C114.4,44,113.3,45,112,45z M111.3,43.4c0.1,0.4,0.4,0.7,0.9,0.7
			c0.5,0,0.9-0.3,1.2-0.7c0.1-0.2,0.2-0.4,0.3-0.7l-2.3,0C111.3,43,111.3,43.1,111.3,43.4z"/>
		<path id="XMLID_172_" class="st5" d="M116.7,40.3l-0.2,0c-0.2,0-0.3,0-0.3-0.1c-0.1-0.1-0.1-0.2-0.1-0.4c0-0.2,0.1-0.3,0.3-0.4
			c0.1-0.1,0.2-0.1,0.4-0.1l0.2,0l0.2-0.9c0.1-0.3,0.1-0.4,0.2-0.5c0.1-0.1,0.3-0.3,0.5-0.3c0.2,0,0.4,0.1,0.4,0.3
			c0,0.1,0,0.2,0,0.5l-0.2,0.9l0.6,0c0.2,0,0.3,0,0.3,0.1c0.1,0.1,0.1,0.2,0.1,0.4c0,0.2-0.1,0.3-0.3,0.4c-0.1,0.1-0.2,0.1-0.4,0.1
			l-0.6,0l-0.6,3.1c-0.1,0.4,0,0.6,0.4,0.6c0.2,0,0.3,0,0.4,0.1c0.1,0.1,0.2,0.2,0.1,0.4c0,0.2-0.1,0.3-0.3,0.4
			c-0.1,0.1-0.2,0.1-0.5,0.1l-0.1,0c-1,0-1.3-0.7-1.1-1.5L116.7,40.3z"/>
		<path id="XMLID_170_" class="st5" d="M120.6,37.9c0.1-0.3,0.1-0.4,0.2-0.5c0.1-0.1,0.3-0.3,0.5-0.3c0.2,0,0.4,0.1,0.4,0.3
			c0,0.1,0,0.2,0,0.5l-1.1,5.4c-0.1,0.4,0,0.6,0.4,0.6c0.2,0,0.3,0,0.4,0.1c0.1,0.1,0.2,0.2,0.1,0.4c0,0.2-0.1,0.3-0.3,0.4
			c-0.1,0.1-0.2,0.1-0.5,0.1h-0.1c-1,0-1.3-0.7-1.1-1.5L120.6,37.9z"/>
		<path id="XMLID_167_" class="st5" d="M124.1,45c-1.4,0-2-1.1-1.7-2.5c0-0.2,0.1-0.4,0.2-0.5c0.2-0.1,0.3-0.1,0.5-0.1l2.7,0
			c0.2-0.9-0.2-1.5-1-1.6c-0.4,0-0.7,0.1-1.1,0.3c-0.2,0.1-0.3,0.2-0.5,0.2c-0.2,0-0.4-0.2-0.3-0.5c0-0.3,0.4-0.5,0.7-0.7
			c0.4-0.2,0.9-0.3,1.4-0.3c1.3,0,2.2,0.7,1.8,2.8C126.5,44,125.4,45,124.1,45z M123.4,43.4c0.1,0.4,0.4,0.7,0.9,0.7
			c0.5,0,0.9-0.3,1.2-0.7c0.2-0.2,0.2-0.4,0.3-0.7l-2.3,0C123.4,43,123.4,43.2,123.4,43.4z"/>
		<path id="XMLID_165_" class="st5" d="M131.2,39.4c0.4,0,0.6,0.1,0.9,0.3c0.2,0.1,0.3,0.3,0.2,0.5c0,0.2-0.1,0.3-0.2,0.4
			c-0.1,0.1-0.3,0.2-0.4,0.2c-0.1,0-0.2,0-0.4-0.1c-0.2-0.1-0.3-0.2-0.5-0.2c-0.6,0-1.1,0.5-1.3,1.2l-0.5,2.6
			c-0.1,0.3-0.1,0.4-0.2,0.5c-0.1,0.1-0.3,0.3-0.5,0.3c-0.2,0-0.3-0.1-0.4-0.3c0-0.1,0-0.2,0-0.5l0.8-4.1c0.1-0.3,0.1-0.4,0.2-0.5
			c0.1-0.1,0.3-0.2,0.5-0.2c0.2,0,0.3,0.1,0.4,0.2c0,0.1,0.1,0.2,0,0.4C130.1,39.7,130.6,39.4,131.2,39.4z"/>
		<path id="XMLID_162_" class="st5" d="M136.1,44.3c-0.1,0.3-0.1,0.4-0.2,0.5c-0.1,0.1-0.3,0.2-0.5,0.2c-0.2,0-0.3-0.1-0.4-0.2
			c0-0.1,0-0.2,0-0.4c-0.5,0.5-0.9,0.6-1.5,0.6c-0.5,0-0.9-0.2-1.2-0.5c-0.4-0.5-0.3-1.4-0.1-2.3c0.2-0.9,0.4-1.8,1-2.3
			c0.3-0.3,0.8-0.5,1.4-0.5c0.6,0,1,0.1,1.2,0.6l0.4-2.1c0.1-0.3,0.1-0.4,0.2-0.5c0.1-0.1,0.3-0.3,0.5-0.3c0.2,0,0.3,0.1,0.4,0.3
			c0,0.1,0,0.2,0,0.5L136.1,44.3z M134,44.1c0.9,0,1.2-0.8,1.4-1.8c0.2-1,0.2-1.8-0.7-1.8c-0.9,0-1.2,0.8-1.4,1.8
			C133.1,43.2,133.1,44.1,134,44.1z"/>
		<path id="XMLID_159_" class="st5" d="M139.5,45.1c-1.4,0-1.9-1.1-1.7-2.5c0-0.2,0.1-0.4,0.2-0.5c0.2-0.1,0.3-0.1,0.5-0.1l2.7,0
			c0.2-0.9-0.2-1.5-1-1.6c-0.4,0-0.7,0.1-1.1,0.3c-0.2,0.1-0.3,0.2-0.5,0.2c-0.2,0-0.4-0.2-0.3-0.5c0-0.3,0.4-0.5,0.7-0.7
			c0.4-0.2,0.9-0.3,1.4-0.3c1.3,0,2.2,0.7,1.8,2.8C141.9,44.1,140.8,45.1,139.5,45.1z M138.8,43.5c0.1,0.4,0.4,0.7,0.9,0.7
			c0.5,0,0.9-0.3,1.2-0.7c0.1-0.2,0.2-0.4,0.3-0.7l-2.3,0C138.7,43.1,138.7,43.2,138.8,43.5z"/>
		<path id="XMLID_156_" class="st5" d="M147.5,41.9l1.4,0l0.1-0.3c0.1-0.7-0.1-1.1-0.9-1.1c-0.4,0-0.7,0.1-1.1,0.4
			c-0.2,0.1-0.3,0.1-0.4,0.1c-0.1,0-0.2-0.1-0.3-0.1c-0.1-0.1-0.1-0.2-0.1-0.3c0-0.2,0.3-0.5,0.6-0.6c0.4-0.2,0.8-0.3,1.4-0.3
			c1.4,0,2,0.7,1.7,1.9l-0.6,3c-0.1,0.3-0.1,0.4-0.2,0.5c-0.1,0.2-0.3,0.3-0.5,0.3c-0.2,0-0.3-0.1-0.3-0.2c0-0.1-0.1-0.2,0-0.4
			c-0.5,0.4-0.9,0.6-1.5,0.6c-0.6,0-1-0.2-1.3-0.5c-0.2-0.3-0.3-0.7-0.2-1.2C145.6,42.5,146.4,41.9,147.5,41.9z M147.3,44.2
			c0.4,0,0.7,0,1-0.3c0.2-0.2,0.3-0.4,0.4-0.8l0.1-0.4l-1.2,0c-0.6,0-1,0.3-1.1,0.8C146.3,43.9,146.6,44.2,147.3,44.2z"/>
		<path id="XMLID_153_" class="st5" d="M150.9,44.6c-0.1-0.1-0.2-0.3-0.2-0.5c0-0.1,0.1-0.3,0.2-0.4c0.1-0.1,0.2-0.1,0.3-0.1
			c0.1,0,0.2,0,0.4,0.2c0.3,0.3,0.7,0.4,1.2,0.4c0.7,0,1.2-0.2,1.3-0.8c0.1-0.4-0.1-0.6-0.6-0.7l-0.8-0.1c-0.9-0.1-1.4-0.6-1.2-1.5
			c0.2-1.1,1.2-1.7,2.3-1.7c0.6,0,1,0.1,1.3,0.3c0.2,0.1,0.2,0.2,0.3,0.2c0.1,0.1,0.1,0.2,0,0.3c0,0.1-0.1,0.2-0.2,0.3
			c-0.1,0.1-0.2,0.1-0.3,0.1c-0.1,0-0.2,0-0.3-0.1c-0.3-0.2-0.6-0.3-1-0.3c-0.6,0-1,0.3-1.1,0.7c-0.1,0.4,0.1,0.6,0.6,0.6l0.8,0.1
			c0.9,0.1,1.4,0.6,1.2,1.6c-0.2,1.1-1.3,1.7-2.5,1.7C151.8,45.2,151.3,45,150.9,44.6z M151.1,47.3c0-0.1,0.1-0.2,0.2-0.4L152,46
			c0.1-0.1,0.2-0.2,0.3-0.3c0.1-0.1,0.2-0.1,0.3-0.1c0.1,0,0.2,0,0.2,0.1c0.1,0.1,0.2,0.3,0.1,0.4c0,0.1-0.1,0.2-0.2,0.4l-0.6,0.8
			c-0.1,0.1-0.2,0.2-0.3,0.3c-0.1,0.1-0.2,0.1-0.3,0.1c-0.1,0-0.2,0-0.2-0.1C151.1,47.6,151.1,47.4,151.1,47.3z"/>
		<path id="XMLID_151_" class="st5" d="M159.9,45.1c-0.1,0.1-0.2,0.1-0.3,0.1c-0.2,0-0.3-0.1-0.4-0.4l-0.8-2.1l-1,1l-0.2,0.8
			c-0.1,0.3-0.1,0.4-0.2,0.5c-0.1,0.1-0.3,0.3-0.5,0.3c-0.2,0-0.3-0.1-0.4-0.3c0-0.1,0-0.2,0-0.5l1.2-6.3c0.1-0.3,0.1-0.4,0.2-0.5
			c0.1-0.1,0.3-0.3,0.5-0.3c0.2,0,0.3,0.1,0.4,0.3c0,0.1,0,0.2,0,0.5l-0.8,4l2.3-2.2c0.2-0.2,0.4-0.3,0.5-0.3c0.1,0,0.2,0,0.3,0.1
			c0.1,0.1,0.1,0.2,0.1,0.4c0,0.2-0.1,0.3-0.3,0.5l-1.3,1.3l0.9,2.3c0.1,0.2,0.1,0.3,0.1,0.5C160.2,44.8,160.1,45,159.9,45.1z"/>
		<path id="XMLID_148_" class="st5" d="M163.2,41.9l1.4,0l0.1-0.3c0.1-0.7-0.1-1.1-0.9-1.1c-0.4,0-0.7,0.1-1.1,0.4
			c-0.2,0.1-0.3,0.1-0.4,0.1c-0.1,0-0.2,0-0.3-0.1c-0.1-0.1-0.1-0.2-0.1-0.3c0-0.2,0.3-0.5,0.6-0.6c0.4-0.2,0.8-0.3,1.4-0.3
			c1.4,0,2,0.7,1.7,1.9l-0.6,3c-0.1,0.3-0.1,0.4-0.2,0.5c-0.1,0.2-0.3,0.3-0.5,0.3c-0.2,0-0.3-0.1-0.3-0.2c0-0.1-0.1-0.2,0-0.4
			c-0.5,0.4-0.9,0.6-1.5,0.6c-0.6,0-1-0.2-1.3-0.5c-0.2-0.3-0.3-0.7-0.2-1.2C161.3,42.6,162.1,41.9,163.2,41.9z M163,44.3
			c0.4,0,0.7,0,1-0.3c0.2-0.2,0.3-0.4,0.4-0.8l0.1-0.4l-1.2,0c-0.6,0-1,0.3-1.1,0.8C162.1,44,162.3,44.3,163,44.3z"/>
		<path id="XMLID_146_" class="st5" d="M170.1,39.6c0.4,0,0.6,0.1,0.9,0.3c0.2,0.1,0.3,0.3,0.2,0.5c0,0.2-0.1,0.3-0.2,0.4
			c-0.1,0.1-0.3,0.2-0.4,0.2c-0.1,0-0.2,0-0.4-0.1c-0.2-0.1-0.3-0.2-0.5-0.2c-0.6,0-1.1,0.5-1.3,1.2l-0.5,2.6
			c-0.1,0.3-0.1,0.4-0.2,0.5c-0.1,0.1-0.3,0.3-0.5,0.3c-0.2,0-0.3-0.1-0.4-0.3c0-0.1,0-0.2,0-0.5l0.8-4.1c0.1-0.3,0.1-0.4,0.2-0.5
			c0.1-0.1,0.3-0.2,0.5-0.2c0.2,0,0.3,0.1,0.4,0.2c0,0.1,0,0.2,0,0.4C169,39.9,169.5,39.6,170.1,39.6z"/>
		<path id="XMLID_144_" class="st5" d="M176.7,37.4l0.1,0c0.2,0,0.3,0,0.4,0.1c0.1,0.1,0.2,0.2,0.1,0.4c0,0.2-0.2,0.3-0.3,0.4
			c-0.1,0.1-0.2,0.1-0.4,0.1c-0.4,0-0.6,0.3-0.7,0.6l-0.1,0.7l0.6,0c0.2,0,0.3,0,0.3,0.1c0.1,0.1,0.1,0.2,0.1,0.4
			c0,0.2-0.1,0.3-0.3,0.4c-0.1,0.1-0.2,0.1-0.4,0.1l-0.6,0l-0.8,3.9c-0.1,0.3-0.1,0.4-0.2,0.5c-0.1,0.1-0.3,0.3-0.5,0.3
			c-0.2,0-0.3-0.1-0.4-0.3c0-0.1,0-0.2,0-0.5l0.8-3.9l-0.2,0c-0.2,0-0.3,0-0.3-0.1c-0.1-0.1-0.1-0.2-0.1-0.4c0-0.2,0.1-0.3,0.3-0.4
			c0.1-0.1,0.2-0.1,0.4-0.1l0.2,0l0.1-0.8C175.2,38.1,175.8,37.4,176.7,37.4z"/>
		<path id="XMLID_141_" class="st5" d="M178.7,45.3c-1.4,0-2-1.1-1.7-2.5c0-0.2,0.1-0.4,0.2-0.5c0.2-0.1,0.3-0.1,0.5-0.1l2.7,0
			c0.2-0.9-0.2-1.6-1-1.6c-0.4,0-0.7,0.1-1.1,0.3c-0.2,0.1-0.3,0.2-0.5,0.2c-0.2,0-0.4-0.2-0.3-0.5c0.1-0.3,0.4-0.5,0.7-0.7
			c0.4-0.2,0.9-0.3,1.4-0.3c1.3,0,2.2,0.7,1.8,2.8C181.1,44.3,180,45.3,178.7,45.3z M178,43.6c0.1,0.4,0.4,0.7,0.9,0.7
			c0.5,0,0.9-0.3,1.2-0.7c0.2-0.2,0.2-0.4,0.3-0.7l-2.3,0C178,43.2,178,43.4,178,43.6z"/>
		<path id="XMLID_139_" class="st5" d="M185.8,39.7c0.4,0,0.6,0.1,0.9,0.3c0.2,0.1,0.3,0.3,0.2,0.5c0,0.2-0.1,0.3-0.2,0.4
			c-0.1,0.1-0.3,0.2-0.4,0.1c-0.1,0-0.2,0-0.4-0.1c-0.2-0.1-0.3-0.2-0.5-0.2c-0.6,0-1.1,0.5-1.3,1.2l-0.5,2.6
			c-0.1,0.3-0.1,0.4-0.2,0.5c-0.1,0.1-0.3,0.3-0.5,0.3c-0.2,0-0.4-0.1-0.4-0.3c0-0.1,0-0.2,0-0.5l0.8-4.1c0.1-0.3,0.1-0.4,0.2-0.5
			c0.1-0.1,0.3-0.2,0.5-0.2c0.2,0,0.3,0.1,0.4,0.2c0,0.1,0,0.2,0,0.4C184.7,39.9,185.2,39.7,185.8,39.7z"/>
		<path id="XMLID_136_" class="st5" d="M190.2,46.8c-0.1,0.3-0.1,0.4-0.2,0.5c-0.1,0.1-0.3,0.3-0.5,0.3c-0.2,0-0.3-0.1-0.4-0.3
			c0-0.1,0-0.2,0-0.5l0.4-2.1c-0.5,0.5-0.9,0.6-1.5,0.6c-0.5,0-0.9-0.2-1.2-0.5c-0.4-0.5-0.3-1.4-0.1-2.3c0.2-0.9,0.4-1.8,1-2.3
			c0.3-0.3,0.8-0.5,1.4-0.5c0.5,0,0.9,0.2,1.2,0.6c0.1-0.2,0.1-0.3,0.2-0.4c0.1-0.1,0.3-0.2,0.5-0.2c0.2,0,0.3,0.1,0.4,0.2
			c0,0.1,0,0.2,0,0.5L190.2,46.8z M188.6,44.3c0.9,0,1.2-0.8,1.4-1.8c0.2-1,0.2-1.8-0.7-1.8c-0.9,0-1.2,0.8-1.4,1.8
			C187.7,43.5,187.7,44.3,188.6,44.3z"/>
	</g>
</g>
</svg>
