<?xml version="1.0" encoding="utf-8"?>
<!-- Generator: Adobe Illustrator 16.0.2, SVG Export Plug-In . SVG Version: 6.00 Build 0)  -->
<!DOCTYPE svg PUBLIC "-//W3C//DTD SVG 1.1//EN" "http://www.w3.org/Graphics/SVG/1.1/DTD/svg11.dtd">
<svg version="1.1" id="Layer_1" xmlns="http://www.w3.org/2000/svg" xmlns:xlink="http://www.w3.org/1999/xlink" x="0px" y="0px"
	 width="60px" height="35px" viewBox="0 0 60 35" enable-background="new 0 0 60 35" xml:space="preserve">
<g>
	<path d="M46.104,31.169H3.469c-0.829,0-1.5,0.672-1.5,1.5s0.671,1.5,1.5,1.5h42.634c0.828,0,1.5-0.672,1.5-1.5
		S46.932,31.169,46.104,31.169z"/>
	<path d="M40.417,7.258c0,0-0.229-0.009-0.648-0.009c-1.936,0-8.732,0.21-14.894,2.908c-6.678,2.924-10.154,7.508-10.299,7.702
		l-1.791,2.397h29.075L41.857,7.315L40.417,7.258z M38.859,17.257H35.28c0.792-0.041,1.423-0.69,1.423-1.492
		c0-0.828-0.672-1.5-1.5-1.5h-7.535c-0.829,0-1.5,0.672-1.5,1.5c0,0.802,0.631,1.451,1.423,1.492H19.29
		c1.526-1.358,3.798-3.042,6.788-4.352c4.9-2.146,10.289-2.568,12.782-2.642V17.257z"/>
	<path d="M55.64,24.651c-2.736-1.353-2.094-3.958,0.499-9.669c1.551-3.415,3.016-6.64,1.908-9.147
		c-0.522-1.186-1.541-2.03-3.025-2.512c-2.906-0.941-5.339,0.097-7.449,1.699c-0.159-2.335-2.068-4.191-4.497-4.191
		c0,0-0.001,0-0.002,0C34.957,0.992,10.256,1.485,2.205,26.232l-0.639,1.964h46.038V8.968c2.428-2.313,4.324-3.491,6.492-2.791
		c0.961,0.312,1.146,0.731,1.207,0.869c0.564,1.279-0.742,4.157-1.896,6.695c-2.059,4.534-4.878,10.742,0.902,13.6
		c0.214,0.105,0.44,0.155,0.664,0.155c0.553,0,1.084-0.307,1.346-0.835C56.687,25.918,56.382,25.019,55.64,24.651z M44.604,25.196
		H5.754C11.138,11.218,23.391,4.224,43.162,3.83c0.795,0,1.441,0.673,1.441,1.5V25.196z"/>
</g>
</svg>
