<?xml version="1.0" encoding="utf-8"?>
<!-- Generator: Adobe Illustrator 16.0.2, SVG Export Plug-In . SVG Version: 6.00 Build 0)  -->
<!DOCTYPE svg PUBLIC "-//W3C//DTD SVG 1.1//EN" "http://www.w3.org/Graphics/SVG/1.1/DTD/svg11.dtd">
<svg version="1.1" id="Layer_1" xmlns="http://www.w3.org/2000/svg" xmlns:xlink="http://www.w3.org/1999/xlink" x="0px" y="0px"
	 width="60px" height="50px" viewBox="0 0 60 50" enable-background="new 0 0 60 50" xml:space="preserve">
<g>
	<circle fill="#E60037" cx="8.854" cy="18.638" r="2.835"/>
	<circle fill="#E60037" cx="8.854" cy="10.829" r="2.835"/>
	<circle fill="#E60037" cx="8.854" cy="26.554" r="2.835"/>
	<circle fill="#E60037" cx="51.146" cy="18.638" r="2.835"/>
	<circle fill="#E60037" cx="51.146" cy="10.829" r="2.835"/>
	<circle fill="#E60037" cx="51.146" cy="26.554" r="2.835"/>
	<path fill="#E60037" d="M12.028,1.027h-6.35c-2.416,0-4.381,1.967-4.381,4.384V38.63c0,2.417,1.965,4.384,4.381,4.384h6.35
		c2.417,0,4.383-1.967,4.383-4.384V5.411C16.411,2.994,14.445,1.027,12.028,1.027z M13.411,38.63c0,0.763-0.621,1.384-1.383,1.384
		h-6.35c-0.762,0-1.381-0.621-1.381-1.384V5.411c0-0.763,0.62-1.384,1.381-1.384h6.35c0.763,0,1.383,0.621,1.383,1.384V38.63z"/>
	<path fill="#E60037" d="M14.688,45.973H3.02c-0.829,0-1.5,0.672-1.5,1.5s0.671,1.5,1.5,1.5h11.668c0.829,0,1.5-0.672,1.5-1.5
		S15.517,45.973,14.688,45.973z"/>
	<path fill="#E60037" d="M54.32,1.027h-6.35c-2.417,0-4.383,1.967-4.383,4.384V38.63c0,2.417,1.966,4.384,4.383,4.384h6.35
		c2.417,0,4.383-1.967,4.383-4.384V5.411C58.703,2.994,56.737,1.027,54.32,1.027z M55.703,38.63c0,0.763-0.62,1.384-1.383,1.384
		h-6.35c-0.763,0-1.383-0.621-1.383-1.384V5.411c0-0.763,0.62-1.384,1.383-1.384h6.35c0.763,0,1.383,0.621,1.383,1.384V38.63z"/>
	<path fill="#E60037" d="M56.98,45.973H45.313c-0.828,0-1.5,0.672-1.5,1.5s0.672,1.5,1.5,1.5H56.98c0.828,0,1.5-0.672,1.5-1.5
		S57.809,45.973,56.98,45.973z"/>
	<path fill="#E60037" d="M23.827,43.014h12.351c2.417,0,4.383-1.967,4.383-4.384V25.511c0-2.415-1.966-4.381-4.383-4.381H23.827
		c-2.416,0-4.381,1.966-4.381,4.381V38.63C19.446,41.047,21.411,43.014,23.827,43.014z M22.446,25.511
		c0-0.761,0.62-1.381,1.381-1.381h12.351c0.763,0,1.383,0.62,1.383,1.381V38.63c0,0.763-0.62,1.384-1.383,1.384H23.827
		c-0.762,0-1.381-0.621-1.381-1.384V25.511z"/>
	<path fill="#E60037" d="M39.193,45.973H20.804c-0.829,0-1.5,0.672-1.5,1.5s0.671,1.5,1.5,1.5h18.389c0.828,0,1.5-0.672,1.5-1.5
		S40.021,45.973,39.193,45.973z"/>
	<path fill="#E60037" d="M30.004,38.12c3.335,0,6.049-2.714,6.049-6.05c0-3.335-2.714-6.049-6.049-6.049
		c-3.335,0-6.049,2.714-6.049,6.049C23.955,35.406,26.668,38.12,30.004,38.12z M30.004,29.021c1.681,0,3.049,1.368,3.049,3.049
		c0,1.682-1.368,3.05-3.049,3.05c-1.681,0-3.049-1.368-3.049-3.05C26.955,30.39,28.323,29.021,30.004,29.021z"/>
</g>
</svg>
