<?xml version="1.0" encoding="utf-8"?>
<!-- Generator: Adobe Illustrator 16.0.2, SVG Export Plug-In . SVG Version: 6.00 Build 0)  -->
<!DOCTYPE svg PUBLIC "-//W3C//DTD SVG 1.1//EN" "http://www.w3.org/Graphics/SVG/1.1/DTD/svg11.dtd">
<svg version="1.1" id="Layer_1" xmlns="http://www.w3.org/2000/svg" xmlns:xlink="http://www.w3.org/1999/xlink" x="0px" y="0px"
	 width="55px" height="52px" viewBox="0 0 55 52" enable-background="new 0 0 55 52" xml:space="preserve">
<g>
	<path d="M21.212,38.072c0.599-0.573,0.62-1.522,0.047-2.121c-0.574-0.6-1.523-0.62-2.121-0.047
		c-4.266,4.082-1.979,6.713-0.611,8.283c0.682,0.785,1.094,1.295,1.057,1.756c-0.028,0.345-0.321,1.13-1.976,2.508
		c-0.637,0.529-0.723,1.476-0.193,2.111c0.297,0.356,0.724,0.541,1.154,0.541c0.338,0,0.679-0.114,0.959-0.349
		c1.958-1.631,2.927-3.084,3.046-4.571c0.141-1.75-0.926-2.979-1.784-3.964C19.498,40.732,19.014,40.177,21.212,38.072z"/>
	<path d="M29.076,38.072c0.6-0.573,0.619-1.522,0.047-2.121c-0.572-0.6-1.522-0.62-2.121-0.047c-4.266,4.082-1.979,6.713-0.61,8.283
		c0.683,0.785,1.094,1.295,1.058,1.756c-0.029,0.345-0.322,1.129-1.979,2.508c-0.637,0.529-0.723,1.476-0.192,2.111
		c0.298,0.356,0.724,0.541,1.153,0.541c0.339,0,0.679-0.114,0.959-0.349c1.958-1.63,2.927-3.083,3.047-4.571
		c0.141-1.75-0.926-2.978-1.783-3.963C27.361,40.732,26.877,40.176,29.076,38.072z"/>
	<path d="M36.939,38.072c0.6-0.573,0.619-1.522,0.047-2.121c-0.572-0.6-1.521-0.62-2.121-0.047
		c-4.266,4.082-1.979,6.713-0.611,8.283c0.683,0.785,1.095,1.295,1.058,1.756c-0.028,0.345-0.321,1.129-1.978,2.508
		c-0.638,0.529-0.724,1.476-0.192,2.111c0.297,0.356,0.723,0.541,1.153,0.541c0.338,0,0.679-0.114,0.959-0.349
		c1.959-1.631,2.928-3.084,3.047-4.571c0.142-1.75-0.926-2.979-1.782-3.964C35.225,40.732,34.74,40.176,36.939,38.072z"/>
	<path d="M47.713,15.932l-1.719-0.009c-0.709-3.488-2.56-9.619-2.877-10.662c-0.313-2.579-2.906-4.364-6.384-4.364H18.286
		c-3.446,0-6.095,1.771-6.375,4.233c-1.661,6.354-2.441,9.348-2.809,10.793l-1.803,0.009c-3.665,0-6.646,2.981-6.646,6.646v3.858
		c0,3.664,2.981,6.646,6.646,6.646h40.407c3.662,0,6.643-2.979,6.643-6.646v-3.858C54.348,18.913,51.367,15.932,47.713,15.932z
		 M51.348,26.436c0,2.01-1.635,3.646-3.643,3.646H7.298c-2.011,0-3.646-1.636-3.646-3.646v-3.858c0-2.011,1.636-3.646,3.654-3.646
		l2.973-0.016c0.726-0.004,1.331-0.522,1.464-1.212c0.141-0.59,1.921-7.42,3.1-11.933c0.023-0.089,0.038-0.18,0.045-0.271
		c0.056-0.774,1.435-1.604,3.396-1.604h18.449c1.863,0,3.33,0.767,3.411,1.781c0.009,0.109,0.027,0.216,0.063,0.32
		c0.024,0.087,2.668,8.729,3.037,11.608c0.096,0.745,0.729,1.306,1.479,1.31l2.979,0.016c2.008,0,3.644,1.635,3.644,3.646
		L51.348,26.436L51.348,26.436z"/>
	<path d="M37.01,8.77c-0.166-0.669-0.766-1.139-1.455-1.139H19.704c-0.663,0-1.247,0.435-1.437,1.069
		c-0.441,1.473-2.262,8.09-2.339,8.37c-0.124,0.451-0.03,0.936,0.253,1.308c0.283,0.372,0.725,0.591,1.193,0.591h20.251
		c0.461,0,0.897-0.212,1.183-0.576c0.284-0.362,0.385-0.837,0.272-1.285L37.01,8.77z M19.342,15.969
		c0.448-1.619,1.082-3.905,1.488-5.338h13.55l1.326,5.338H19.342z"/>
</g>
</svg>
