<?xml version="1.0" encoding="utf-8"?>
<!-- Generator: Adobe Illustrator 16.0.2, SVG Export Plug-In . SVG Version: 6.00 Build 0)  -->
<!DOCTYPE svg PUBLIC "-//W3C//DTD SVG 1.1//EN" "http://www.w3.org/Graphics/SVG/1.1/DTD/svg11.dtd">
<svg version="1.1" id="Layer_1" xmlns="http://www.w3.org/2000/svg" xmlns:xlink="http://www.w3.org/1999/xlink" x="0px" y="0px"
	 width="50px" height="45px" viewBox="0 2.5 50 45" enable-background="new 0 2.5 50 45" xml:space="preserve">
<g>
	<path d="M44.736,4.93H5.264c-2.481,0-4.5,2.019-4.5,4.5V34.6c0,2.481,2.019,4.5,4.5,4.5h39.471c2.481,0,4.5-2.019,4.5-4.5
		l0.002-25.17C49.236,6.948,47.218,4.93,44.736,4.93z M46.234,34.6c0,0.827-0.673,1.5-1.5,1.5H5.264c-0.827,0-1.5-0.673-1.5-1.5
		V9.43c0-0.827,0.673-1.5,1.5-1.5h39.473c0.827,0,1.5,0.673,1.5,1.5L46.234,34.6z"/>
	<path d="M35.925,42.07H14.073c-0.829,0-1.5,0.672-1.5,1.5s0.671,1.5,1.5,1.5h21.852c0.828,0,1.5-0.672,1.5-1.5
		S36.753,42.07,35.925,42.07z"/>
	<path d="M29.485,13.228c-0.586-0.586-1.535-0.586-2.121,0l-15.45,15.451c-0.586,0.586-0.586,1.535,0,2.121
		c0.293,0.293,0.677,0.439,1.061,0.439s0.769-0.146,1.061-0.439l15.45-15.451C30.071,14.763,30.071,13.813,29.485,13.228z"/>
	<path d="M35.961,13.228L20.51,28.679c-0.586,0.586-0.586,1.535,0,2.121c0.293,0.293,0.677,0.439,1.061,0.439
		s0.768-0.146,1.061-0.439l15.451-15.451c0.586-0.586,0.586-1.535,0-2.121S36.547,12.642,35.961,13.228z"/>
</g>
</svg>
