<?xml version="1.0" encoding="utf-8"?>
<!-- Generator: Adobe Illustrator 16.0.2, SVG Export Plug-In . SVG Version: 6.00 Build 0)  -->
<!DOCTYPE svg PUBLIC "-//W3C//DTD SVG 1.1//EN" "http://www.w3.org/Graphics/SVG/1.1/DTD/svg11.dtd">
<svg version="1.1" id="Layer_1" xmlns="http://www.w3.org/2000/svg" xmlns:xlink="http://www.w3.org/1999/xlink" x="0px" y="0px"
	 width="37px" height="62px" viewBox="0 0 37 62" enable-background="new 0 0 37 62" xml:space="preserve">
<g>
	<path d="M18.499,1.125c-9.819,0-17.808,7.987-17.808,17.807c0,21.69,15.57,40.424,16.232,41.212
		c0.387,0.458,0.955,0.727,1.556,0.731c0.007,0,0.013,0,0.02,0c0.594,0,1.158-0.256,1.549-0.703
		c0.665-0.759,16.261-18.853,16.261-41.24C36.309,9.112,28.319,1.125,18.499,1.125z M18.521,55.479
		C14.638,50.197,4.81,35.224,4.81,18.932c0-7.548,6.141-13.688,13.689-13.688S32.19,11.384,32.19,18.932
		C32.19,35.68,22.417,50.313,18.521,55.479z"/>
	<circle cx="18.499" cy="20.275" r="7.847"/>
</g>
</svg>
