<?xml version="1.0" encoding="utf-8"?>
<!-- Generator: Adobe Illustrator 16.0.2, SVG Export Plug-In . SVG Version: 6.00 Build 0)  -->
<!DOCTYPE svg PUBLIC "-//W3C//DTD SVG 1.1//EN" "http://www.w3.org/Graphics/SVG/1.1/DTD/svg11.dtd">
<svg version="1.1" id="Layer_1" xmlns="http://www.w3.org/2000/svg" xmlns:xlink="http://www.w3.org/1999/xlink" x="0px" y="0px"
	 width="50px" height="50px" viewBox="0 0 50 50" enable-background="new 0 0 50 50" xml:space="preserve">
<g>
	<path fill="#00A5EB" d="M41.616,16.938h-2.749c-0.753-7.36-6.988-13.121-14.544-13.121c-7.557,0-13.793,5.761-14.546,13.121H8.382
		c-2.22,0-4.025,1.806-4.025,4.025v21.193c0,2.22,1.806,4.025,4.025,4.025h33.234c2.221,0,4.027-1.806,4.027-4.025V20.964
		C45.644,18.744,43.837,16.938,41.616,16.938z M24.323,6.817c5.898,0,10.773,4.421,11.513,10.121H12.809
		C13.548,11.238,18.424,6.817,24.323,6.817z M42.644,42.157c0,0.565-0.461,1.025-1.027,1.025H8.382c-0.565,0-1.025-0.46-1.025-1.025
		V20.964c0-0.565,0.46-1.025,1.025-1.025h33.234c0.566,0,1.027,0.46,1.027,1.025V42.157z"/>
	<path fill="#00A5EB" d="M26.651,23.692h-3.303c-2.481,0-4.5,2.019-4.5,4.5v6.736c0,2.481,2.019,4.5,4.5,4.5h3.303
		c2.481,0,4.5-2.019,4.5-4.5v-6.736C31.151,25.711,29.133,23.692,26.651,23.692z M28.151,34.929c0,0.827-0.673,1.5-1.5,1.5h-3.303
		c-0.827,0-1.5-0.673-1.5-1.5v-6.736c0-0.827,0.673-1.5,1.5-1.5h3.303c0.827,0,1.5,0.673,1.5,1.5V34.929z"/>
</g>
</svg>
