<?xml version="1.0" encoding="utf-8"?>
<!-- Generator: Adobe Illustrator 16.0.2, SVG Export Plug-In . SVG Version: 6.00 Build 0)  -->
<!DOCTYPE svg PUBLIC "-//W3C//DTD SVG 1.1//EN" "http://www.w3.org/Graphics/SVG/1.1/DTD/svg11.dtd">
<svg version="1.1" id="Layer_1" xmlns="http://www.w3.org/2000/svg" xmlns:xlink="http://www.w3.org/1999/xlink" x="0px" y="0px"
	 width="60px" height="45px" viewBox="0 0 60 45" enable-background="new 0 0 60 45" xml:space="preserve">
<path fill="#E6003C" d="M56.869,4.023c-0.053-0.056-0.105-0.108-0.162-0.157c-0.975-0.91-2.279-1.47-3.716-1.47H7.006
	c-3,0-5.441,2.441-5.441,5.441v29.324c0,3.001,2.441,5.44,5.441,5.44h45.985c3.002,0,5.444-2.439,5.444-5.44V7.838
	C58.436,6.354,57.837,5.007,56.869,4.023z M50.982,6.293L32.505,20.402c-1.345,0.884-3.655,0.885-5.007,0.002L9.232,6.293H50.982z
	 M52.991,38.707H7.006c-0.852,0-1.545-0.693-1.545-1.545V8.304l19.708,15.225l0.099,0.072c1.328,0.899,3.031,1.351,4.734,1.351
	s3.406-0.451,4.732-1.353l0.043-0.031L54.538,8.482v28.681C54.538,38.014,53.846,38.707,52.991,38.707z"/>
</svg>
