<?xml version="1.0" encoding="utf-8"?>
<!-- Generator: Adobe Illustrator 16.0.2, SVG Export Plug-In . SVG Version: 6.00 Build 0)  -->
<!DOCTYPE svg PUBLIC "-//W3C//DTD SVG 1.1//EN" "http://www.w3.org/Graphics/SVG/1.1/DTD/svg11.dtd">
<svg version="1.1" id="Layer_1" xmlns="http://www.w3.org/2000/svg" xmlns:xlink="http://www.w3.org/1999/xlink" x="0px" y="0px"
	 width="50px" height="42px" viewBox="0 0 50 42" enable-background="new 0 0 50 42" xml:space="preserve">
<g>
	<path d="M19.57,12.108c-0.585-0.586-1.535-0.586-2.121,0l-9.69,9.688c-0.586,0.586-0.586,1.535,0,2.121
		c0.293,0.293,0.677,0.439,1.061,0.439s0.768-0.146,1.061-0.439l9.69-9.688C20.156,13.645,20.156,12.694,19.57,12.108z"/>
	<path d="M28.168,12.108c-0.586-0.586-1.535-0.586-2.121,0l-9.689,9.688c-0.586,0.586-0.586,1.535,0,2.121
		c0.293,0.293,0.677,0.439,1.061,0.439s0.768-0.146,1.061-0.439l9.689-9.688C28.754,13.645,28.754,12.694,28.168,12.108z"/>
	<path d="M44.736,0.93H5.264c-2.481,0-4.5,2.019-4.5,4.5V30.6c0,2.481,2.019,4.5,4.5,4.5h39.473c2.481,0,4.5-2.019,4.5-4.5V5.43
		C49.236,2.948,47.218,0.93,44.736,0.93z M3.764,30.6V5.43c0-0.827,0.673-1.5,1.5-1.5h27.004V32.1H5.264
		C4.437,32.1,3.764,31.427,3.764,30.6z M46.236,30.6c0,0.827-0.673,1.5-1.5,1.5h-9.469V3.93h9.469c0.827,0,1.5,0.673,1.5,1.5V30.6z"
		/>
	<path d="M12.026,38.07H5.399c-0.828,0-1.5,0.672-1.5,1.5s0.672,1.5,1.5,1.5h6.627c0.829,0,1.5-0.672,1.5-1.5
		S12.855,38.07,12.026,38.07z"/>
	<path d="M44.449,38.07h-6.627c-0.828,0-1.5,0.672-1.5,1.5s0.672,1.5,1.5,1.5h6.627c0.828,0,1.5-0.672,1.5-1.5
		S45.277,38.07,44.449,38.07z"/>
	<path d="M42.832,15.536h-4.209c-0.828,0-1.5,0.672-1.5,1.5s0.672,1.5,1.5,1.5h4.209c0.828,0,1.5-0.672,1.5-1.5
		S43.66,15.536,42.832,15.536z"/>
	<path d="M42.832,21.081h-4.209c-0.828,0-1.5,0.672-1.5,1.5s0.672,1.5,1.5,1.5h4.209c0.828,0,1.5-0.672,1.5-1.5
		S43.66,21.081,42.832,21.081z"/>
	<circle cx="40.6" cy="9.478" r="3.185"/>
</g>
</svg>
