<?xml version="1.0" encoding="utf-8"?>
<!-- Generator: Adobe Illustrator 16.0.2, SVG Export Plug-In . SVG Version: 6.00 Build 0)  -->
<!DOCTYPE svg PUBLIC "-//W3C//DTD SVG 1.1//EN" "http://www.w3.org/Graphics/SVG/1.1/DTD/svg11.dtd">
<svg version="1.1" id="Layer_1" xmlns="http://www.w3.org/2000/svg" xmlns:xlink="http://www.w3.org/1999/xlink" x="0px" y="0px"
	 width="50px" height="40px" viewBox="0 0 50 40" enable-background="new 0 0 50 40" xml:space="preserve">
<g>
	<path fill="#E6003C" d="M48.493,14.813c-1.402-10.885-7.429-13.17-12.238-13.17c-4.935,0-6.939,1.99-8.403,3.444
		c-1.062,1.053-1.625,1.56-2.853,1.56s-1.791-0.507-2.853-1.56c-1.463-1.454-3.469-3.444-8.403-3.444
		c-4.808,0-10.832,2.285-12.238,13.17C0.8,20.271,0.38,26.926,0.38,32.616c0,3.433,2.251,5.738,5.603,5.738
		c2.589,0,5.304-1.445,7.26-3.869l0.391-0.482c3.602-4.469,5.586-6.93,11.368-6.93c5.781,0,7.768,2.463,11.371,6.935l0.385,0.479
		c1.957,2.422,4.671,3.867,7.261,3.869l0,0c1.545,0,2.946-0.53,3.946-1.493c1.084-1.04,1.656-2.509,1.656-4.246
		C49.62,26.926,49.198,20.271,48.493,14.813z M45.886,34.698c-0.564,0.542-1.328,0.656-1.869,0.656l0,0
		c-1.691-0.002-3.533-1.03-4.926-2.754l-0.385-0.477c-3.767-4.675-6.488-8.053-13.707-8.053c-7.217,0-9.938,3.375-13.703,8.046
		l-0.389,0.481c-1.393,1.726-3.233,2.754-4.926,2.754c-0.782,0-2.603-0.268-2.603-2.738c0-5.569,0.412-12.08,1.101-17.417
		C5.396,8.094,8.427,4.642,13.742,4.642c3.698,0,4.958,1.25,6.292,2.573c1.146,1.14,2.447,2.431,4.965,2.431
		c2.519,0,3.817-1.291,4.967-2.431c1.332-1.323,2.592-2.573,6.289-2.573c5.318,0,8.348,3.452,9.264,10.556
		c0.689,5.337,1.102,11.848,1.102,17.417C46.62,33.529,46.372,34.229,45.886,34.698z"/>
	<path fill="#E6003C" d="M19.872,14.11H15.82v-4.052c0-0.829-0.671-1.5-1.5-1.5c-0.828,0-1.5,0.671-1.5,1.5v4.052H8.768
		c-0.829,0-1.5,0.673-1.5,1.5c0,0.828,0.671,1.5,1.5,1.5h4.053v4.054c0,0.828,0.672,1.5,1.5,1.5c0.829,0,1.5-0.672,1.5-1.5V17.11
		h4.052c0.828,0,1.5-0.672,1.5-1.5C21.372,14.783,20.7,14.11,19.872,14.11z"/>
	<circle fill="#E6003C" cx="35.816" cy="10.949" r="2.362"/>
	<path fill="#E6003C" d="M35.816,17.66c-1.305,0-2.362,1.057-2.362,2.362c0,1.302,1.059,2.359,2.362,2.359s2.361-1.059,2.361-2.359
		C38.178,18.717,37.122,17.66,35.816,17.66z"/>
	<circle fill="#E6003C" cx="40.352" cy="15.486" r="2.362"/>
	<circle fill="#E6003C" cx="31.279" cy="15.486" r="2.362"/>
</g>
</svg>
