<?xml version="1.0" encoding="utf-8"?>
<!-- Generator: Adobe Illustrator 16.0.2, SVG Export Plug-In . SVG Version: 6.00 Build 0)  -->
<!DOCTYPE svg PUBLIC "-//W3C//DTD SVG 1.1//EN" "http://www.w3.org/Graphics/SVG/1.1/DTD/svg11.dtd">
<svg version="1.1" id="Layer_1" xmlns="http://www.w3.org/2000/svg" xmlns:xlink="http://www.w3.org/1999/xlink" x="0px" y="0px"
	 width="50px" height="55px" viewBox="0 0 50 55" enable-background="new 0 0 50 55" xml:space="preserve">
<g>
	<path d="M9.537,3.56h12.66c0.829,0,1.5-0.671,1.5-1.5s-0.671-1.5-1.5-1.5H9.537c-0.829,0-1.5,0.671-1.5,1.5S8.708,3.56,9.537,3.56z
		"/>
	<path d="M27.85,3.56h12.659c0.83,0,1.5-0.671,1.5-1.5s-0.67-1.5-1.5-1.5H27.85c-0.829,0-1.5,0.671-1.5,1.5S27.021,3.56,27.85,3.56z
		"/>
	<path d="M44.87,5.015H5.132c-2.48,0-4.5,2.019-4.5,4.5V49.94c0,2.48,2.02,4.5,4.5,4.5h39.736c2.481,0,4.5-2.02,4.5-4.5V9.515
		C49.37,7.032,47.351,5.015,44.87,5.015z M5.132,8.015h39.736c0.827,0,1.5,0.673,1.5,1.5v11.5H3.632v-11.5
		C3.632,8.688,4.306,8.015,5.132,8.015z M44.87,51.438H5.132c-0.826,0-1.5-0.672-1.5-1.5V24.015h42.736V49.94
		C46.37,50.767,45.696,51.438,44.87,51.438z"/>
	<circle cx="11.279" cy="14.353" r="3.185"/>
	<circle cx="20.425" cy="14.353" r="3.185"/>
	<circle cx="29.575" cy="14.353" r="3.185"/>
	<circle cx="38.721" cy="14.353" r="3.185"/>
	<path d="M36.591,28.826H13.41c-2.48,0-4.5,2.02-4.5,4.5v8.666c0,2.481,2.02,4.5,4.5,4.5h23.183c2.48,0,4.5-2.019,4.5-4.5v-8.666
		C41.091,30.846,39.073,28.826,36.591,28.826z M38.091,41.992c0,0.827-0.672,1.5-1.5,1.5H13.41c-0.827,0-1.5-0.673-1.5-1.5v-8.666
		c0-0.827,0.673-1.5,1.5-1.5h23.183c0.826,0,1.5,0.673,1.5,1.5v8.666H38.091z"/>
</g>
</svg>
