<?xml version="1.0" encoding="utf-8"?>
<!-- Generator: Adobe Illustrator 16.0.0, SVG Export Plug-In . SVG Version: 6.00 Build 0)  -->
<!DOCTYPE svg PUBLIC "-//W3C//DTD SVG 1.1//EN" "http://www.w3.org/Graphics/SVG/1.1/DTD/svg11.dtd">
<svg version="1.1" id="Layer_1" xmlns="http://www.w3.org/2000/svg" xmlns:xlink="http://www.w3.org/1999/xlink" x="0px" y="0px"
	 width="28.347px" height="28.347px" viewBox="0 0 28.347 28.347" enable-background="new 0 0 28.347 28.347" xml:space="preserve">
<g>
	<path d="M21.4,13.375H10.902H4.603v6.3v1.051v6.299h6.299H21.4h6.299v-6.299v-1.051v-6.3H21.4z M26.019,22.407l-0.682,0.682
		c-0.087-0.016-0.169-0.051-0.262-0.051c-0.754,0-1.363,0.612-1.363,1.363c0,0.092,0.036,0.169,0.051,0.256l-0.687,0.689H9.223
		L8.54,24.663c0.015-0.088,0.051-0.17,0.051-0.262c0-0.751-0.61-1.363-1.364-1.363c-0.091,0-0.169,0.035-0.255,0.051l-0.688-0.685
		v-4.41l0.682-0.682c0.086,0.015,0.169,0.052,0.261,0.052c0.753,0,1.364-0.611,1.364-1.364c0-0.092-0.036-0.168-0.051-0.256
		l0.684-0.687h13.855l0.684,0.687c-0.015,0.088-0.051,0.164-0.051,0.256c0,0.753,0.609,1.364,1.363,1.364
		c0.093,0,0.169-0.037,0.257-0.052L26.019,18V22.407z"/>
	<path d="M22.974,18.842c-0.754,0-1.363,0.608-1.363,1.363c0,0.747,0.609,1.356,1.363,1.356s1.363-0.609,1.363-1.356
		C24.337,19.45,23.728,18.842,22.974,18.842z"/>
	<path d="M16.151,16.616c-2.275,0-4.122,1.604-4.122,3.589c0,1.977,1.846,3.581,4.122,3.581s4.121-1.604,4.121-3.581
		C20.272,18.22,18.427,16.616,16.151,16.616z"/>
	<path d="M9.329,18.842c-0.753,0-1.363,0.608-1.363,1.363c0,0.747,0.61,1.356,1.363,1.356c0.753,0,1.358-0.609,1.358-1.356
		C10.688,19.45,10.083,18.842,9.329,18.842z"/>
	<path d="M18.679,9.578c0,0.749,0.604,1.358,1.358,1.358c0.753,0,1.363-0.61,1.363-1.358c0-0.753-0.61-1.363-1.363-1.363
		C19.283,8.215,18.679,8.825,18.679,9.578z"/>
	<path d="M5.463,11.803l0.042-0.133l12.152-6.654l0.928,0.271c0.025,0.083,0.036,0.169,0.082,0.252
		c0.359,0.662,1.189,0.901,1.851,0.538c0.077-0.04,0.133-0.107,0.2-0.169l0.928,0.271l2.116,3.87l-0.271,0.927
		c-0.082,0.026-0.169,0.037-0.251,0.077c-0.308,0.169-0.513,0.447-0.62,0.749h4.023l-2.717-4.957l-3.023-5.525l-5.526,3.03
		L6.172,9.388l-5.525,3.025l2.383,4.357v-3.394c0-0.865,0.708-1.573,1.574-1.573H5.463z"/>
	<path d="M12.333,9.711c-0.917,0.497-1.573,1.257-1.943,2.092h7.592c-0.062-0.318-0.154-0.63-0.312-0.928
		C16.715,9.137,14.326,8.619,12.333,9.711z"/>
</g>
</svg>
