<?xml version="1.0" encoding="utf-8"?>
<!-- Generator: Adobe Illustrator 16.0.2, SVG Export Plug-In . SVG Version: 6.00 Build 0)  -->
<!DOCTYPE svg PUBLIC "-//W3C//DTD SVG 1.1//EN" "http://www.w3.org/Graphics/SVG/1.1/DTD/svg11.dtd">
<svg version="1.1" id="Layer_1" xmlns="http://www.w3.org/2000/svg" xmlns:xlink="http://www.w3.org/1999/xlink" x="0px" y="0px"
	 width="37px" height="62px" viewBox="0 0 37 62" enable-background="new 0 0 37 62" xml:space="preserve">
<path d="M36.574,51.256c-0.801-2.213-4.319-8.867-5.759-10.689c-0.994-1.256-2.2-1.867-3.688-1.867
	c-1.009,0-2.015,0.275-3.328,0.658c-0.491,0.145-0.885,0.215-1.201,0.215c-0.374,0-1.07,0-1.979-2.109
	c-1.411-3.287-2.549-5.965-2.549-5.966l-0.003,0c-0.019-0.047-0.044-0.105-0.073-0.176c-0.271-0.625-1.298-2.988-2.506-5.794
	c-1.083-2.516-0.371-2.931,0.802-3.616c2.08-1.206,4.438-2.572,3.956-5.929c-0.336-2.292-2.743-9.42-3.796-11.529
	c-0.389-0.775-1.426-2.074-4.003-2.074c-2.941,0-6.771,1.749-9.758,4.456c-6.994,6.337,3.118,29.659,3.211,29.87
	c3.343,7.926,11.625,22.916,19.05,22.916c0.146,0,0.292-0.006,0.436-0.016c4.64-0.355,9.032-2.389,10.68-4.945
	C36.785,53.541,36.966,52.332,36.574,51.256z M25.091,55.758l-0.143,0.006c-4.083,0-11.309-10.629-15.506-20.584
	C5.098,25.275,2.319,12.372,5.275,9.693c2.623-2.375,5.554-3.457,7.17-3.457c0.315,0,0.517,0.042,0.617,0.076
	c0.971,2.038,3.12,8.555,3.365,10.224c0.089,0.625,0.11,0.773-2.076,2.042c-3.302,1.926-4.065,4.619-2.408,8.474
	c1.211,2.813,2.24,5.181,2.512,5.808l0.067,0.148c0.046,0.111,1.169,2.752,2.553,5.979c0.473,1.098,1.915,4.443,5.523,4.443
	c0.689,0,1.437-0.121,2.287-0.369c0.969-0.285,1.75-0.504,2.242-0.504c0.207,0,0.346,0,0.661,0.402
	c1.052,1.328,4.308,7.383,5.113,9.484C32.564,53.318,29.628,55.412,25.091,55.758z"/>
</svg>
