<?xml version="1.0" encoding="utf-8"?>
<!-- Generator: Adobe Illustrator 16.0.2, SVG Export Plug-In . SVG Version: 6.00 Build 0)  -->
<!DOCTYPE svg PUBLIC "-//W3C//DTD SVG 1.1//EN" "http://www.w3.org/Graphics/SVG/1.1/DTD/svg11.dtd">
<svg version="1.1" id="Layer_1" xmlns="http://www.w3.org/2000/svg" xmlns:xlink="http://www.w3.org/1999/xlink" x="0px" y="0px"
	 width="50px" height="50px" viewBox="0 0 50 50" enable-background="new 0 0 50 50" xml:space="preserve">
<path fill="#FFFFFF" d="M30.429,4.464c-8.474,0-15.368,6.894-15.368,15.367c0,1.598,0.246,3.138,0.7,4.587L5.745,34.359
	c-2.055,2.055-2.055,5.396,0,7.451l2.185,2.185c1.027,1.027,2.377,1.541,3.727,1.541c1.348,0,2.694-0.513,3.719-1.537l9.812-9.74
	c1.639,0.598,3.399,0.94,5.242,0.94c8.474,0,15.367-6.895,15.367-15.368S38.902,4.464,30.429,4.464z M12.552,41.166
	c-0.24,0.239-0.559,0.372-0.897,0.372s-0.657-0.132-0.896-0.371l-2.185-2.185c-0.239-0.239-0.371-0.559-0.371-0.897
	s0.132-0.658,0.366-0.892l9.016-8.948c1.039,1.581,2.364,2.952,3.897,4.056L12.552,41.166z M30.429,31.199
	c-6.269,0-11.368-5.1-11.368-11.368c0-6.268,5.1-11.367,11.368-11.367c6.268,0,11.367,5.1,11.367,11.367
	C41.796,26.1,36.696,31.199,30.429,31.199z"/>
</svg>
