<?xml version="1.0" encoding="utf-8"?>
<!-- Generator: Adobe Illustrator 16.0.0, SVG Export Plug-In . SVG Version: 6.00 Build 0)  -->
<!DOCTYPE svg PUBLIC "-//W3C//DTD SVG 1.1//EN" "http://www.w3.org/Graphics/SVG/1.1/DTD/svg11.dtd">
<svg version="1.1" id="Layer_1" xmlns="http://www.w3.org/2000/svg" xmlns:xlink="http://www.w3.org/1999/xlink" x="0px" y="0px"
	 width="28.347px" height="17.219px" viewBox="0 0 28.347 17.219" enable-background="new 0 0 28.347 17.219" xml:space="preserve">
<g>
	<path d="M9.579,12.661c-1.118,0-2.024,0.905-2.024,2.023s0.906,2.023,2.024,2.023c1.118,0,2.024-0.905,2.024-2.023
		S10.696,12.661,9.579,12.661L9.579,12.661z M9.579,15.564"/>
	<path d="M22.111,12.661c-1.118,0-2.024,0.905-2.024,2.023s0.906,2.023,2.024,2.023s2.023-0.905,2.023-2.023
		S23.229,12.661,22.111,12.661L22.111,12.661z M22.111,15.564"/>
	<path d="M22.111,15.718"/>
	<path d="M12.064,4.864c0,0.333-0.272,0.606-0.605,0.606H3.103c-0.333,0-0.605-0.272-0.605-0.606V4.831
		c0-0.333,0.272-0.606,0.605-0.606h8.355c0.333,0,0.605,0.272,0.605,0.606V4.864z M12.064,4.864"/>
	<path d="M9.737,8.732c0,0.333-0.272,0.605-0.605,0.605H0.776c-0.333,0-0.605-0.272-0.605-0.605V8.699
		c0-0.333,0.273-0.605,0.605-0.605h8.355c0.333,0,0.605,0.272,0.605,0.605V8.732z M9.737,8.732"/>
	<path d="M26.769,8.55c-0.871-0.227-1.37-0.369-1.712-1.029l-1.145-2.317c-0.343-0.661-1.231-1.202-1.976-1.202h-1.564
		c0,0-0.211,0.004-0.211-0.208V1.852c0-0.753-0.426-1.369-1.333-1.369H6.073c-1.298,0-1.915,0.616-1.915,1.369v1.218
		c0,0,0,0.362,0.351,0.362h7.138c0.668,0,1.211,0.543,1.211,1.211v0.363c0,0.668-0.543,1.211-1.211,1.211H4.509
		c0,0-0.351-0.029-0.351,0.349v0.418c0,0.333,0.457,0.333,0.457,0.333H9.42c0.668,0,1.21,0.543,1.21,1.211v0.363
		c0,0.667-0.542,1.21-1.21,1.21H4.691c0,0-0.533-0.009-0.533,0.414v2.942c0,0.753,0.617,1.37,1.37,1.37h0.756
		c0.171,0,0.197-0.096,0.197-0.144c0-1.708,1.39-3.097,3.098-3.097s3.097,1.389,3.097,3.097c0,0.048-0.014,0.144,0.118,0.144h6.105
		c0.121,0,0.116-0.102,0.116-0.144c0-1.708,1.39-3.097,3.097-3.097c1.708,0,3.098,1.389,3.098,3.097
		c0,0.048-0.001,0.144,0.074,0.144h1.539c0.745,0,1.354-0.609,1.354-1.353v-2.571C28.176,8.738,27.492,8.738,26.769,8.55
		L26.769,8.55z M24.193,8.43h-3.853c-0.158,0-0.18-0.155-0.18-0.155V5.066c0,0-0.009-0.124,0.195-0.124h1.099
		c0.663,0,1.454,0.481,1.758,1.069l1.019,2.062c0.043,0.083,0.089,0.156,0.138,0.223C24.405,8.345,24.345,8.43,24.193,8.43
		L24.193,8.43z M24.193,8.43"/>
</g>
</svg>
