<?xml version="1.0" encoding="utf-8"?>
<!-- Generator: Adobe Illustrator 16.0.2, SVG Export Plug-In . SVG Version: 6.00 Build 0)  -->
<!DOCTYPE svg PUBLIC "-//W3C//DTD SVG 1.1//EN" "http://www.w3.org/Graphics/SVG/1.1/DTD/svg11.dtd">
<svg version="1.1" id="Layer_1" xmlns="http://www.w3.org/2000/svg" xmlns:xlink="http://www.w3.org/1999/xlink" x="0px" y="0px"
	 width="50px" height="50px" viewBox="0 0 50 50" enable-background="new 0 0 50 50" xml:space="preserve">
<g>
	<g>
		<path fill="#E6003C" d="M24.999,48.425c-12.916,0-23.424-10.509-23.424-23.426c0-12.916,10.508-23.424,23.424-23.424
			c12.917,0,23.426,10.508,23.426,23.424C48.425,37.916,37.916,48.425,24.999,48.425z M24.999,4.575
			c-11.262,0-20.424,9.162-20.424,20.424c0,11.263,9.162,20.426,20.424,20.426c11.263,0,20.426-9.163,20.426-20.426
			C45.425,13.737,36.262,4.575,24.999,4.575z"/>
	</g>
	<g>
		<path fill="#E6003C" d="M34.729,20.489c0-0.23-0.004-0.457-0.014-0.682c0.979-0.73,1.83-1.645,2.502-2.689
			c-0.898,0.404-1.865,0.674-2.879,0.787c1.035-0.637,1.828-1.656,2.205-2.881c-0.971,0.59-2.043,1.01-3.184,1.229
			c-0.914-1.041-2.219-1.701-3.66-1.727c-2.768-0.047-5.014,2.293-5.014,5.227c0,0.416,0.043,0.82,0.131,1.209
			c-4.17-0.268-7.865-2.438-10.336-5.709c-0.432,0.783-0.68,1.699-0.68,2.682c0,1.855,0.887,3.506,2.23,4.48
			c-0.822-0.037-1.596-0.287-2.271-0.695c0,0.021,0,0.045,0,0.068c0,2.596,1.73,4.77,4.023,5.277c-0.42,0.119-0.865,0.182-1.32,0.18
			c-0.324-0.002-0.639-0.037-0.943-0.104c0.639,2.127,2.49,3.68,4.684,3.732c-1.717,1.422-3.879,2.273-6.227,2.266
			c-0.404,0-0.805-0.025-1.197-0.076c2.221,1.523,4.855,2.41,7.688,2.41C29.688,35.476,34.729,27.45,34.729,20.489z"/>
	</g>
</g>
</svg>
