<?xml version="1.0" encoding="utf-8"?>
<!-- Generator: Adobe Illustrator 16.0.2, SVG Export Plug-In . SVG Version: 6.00 Build 0)  -->
<!DOCTYPE svg PUBLIC "-//W3C//DTD SVG 1.1//EN" "http://www.w3.org/Graphics/SVG/1.1/DTD/svg11.dtd">
<svg version="1.1" id="Layer_1" xmlns="http://www.w3.org/2000/svg" xmlns:xlink="http://www.w3.org/1999/xlink" x="0px" y="0px"
	 width="57px" height="52px" viewBox="0 0 57 52" enable-background="new 0 0 57 52" xml:space="preserve">
<g>
	<circle fill="#E6003C" cx="45.416" cy="39.337" r="3.185"/>
	<path fill="#E6003C" d="M33.574,47.541h-6.598c-0.763,0-1.394-0.571-1.488-1.309l9.89-31.373c0.502-1.041,1.825-2.042,2.718-2.042
		h8.286c0.827,0,1.5,0.673,1.5,1.5v10.461c0,0.829,0.673,1.5,1.5,1.5c0.828,0,1.5-0.671,1.5-1.5V14.318c0-2.481-2.019-4.5-4.5-4.5
		h-8.286c-2.349,0-4.636,1.977-5.488,3.888l-3.248,10.291c-2.041,0.042-5.679-0.296-6.942-2.268
		c-1.076-1.68-0.437-4.598,1.849-8.439c1.718-2.889,1.554-5.94-0.448-8.37c-2.469-2.995-7.099-4.259-10.768-2.943
		c-3.542,1.271-5.573,4.676-5.573,9.341c0,0.136,0.024,0.265,0.058,0.391c-0.034,0.125-0.058,0.254-0.058,0.391v32.16
		c0,0.828,0.671,1.5,1.5,1.5s1.5-0.672,1.5-1.5V12.1c0-0.136-0.024-0.265-0.058-0.391c0.034-0.125,0.058-0.254,0.058-0.391
		c0-3.421,1.24-5.675,3.587-6.517c2.453-0.881,5.792,0.028,7.439,2.027c0.826,1.002,1.528,2.67,0.185,4.928
		c-2.946,4.953-3.55,8.853-1.796,11.591c1.89,2.951,5.976,3.563,8.525,3.64l-5.939,18.821v0.23c0,2.48,2.019,4.5,4.5,4.5h6.598
		c0.828,0,1.5-0.672,1.5-1.5S34.402,47.541,33.574,47.541z"/>
	<path fill="#E6003C" d="M16.076,47.494H1.879c-0.829,0-1.5,0.672-1.5,1.5s0.671,1.5,1.5,1.5h14.197c0.829,0,1.5-0.672,1.5-1.5
		S16.905,47.494,16.076,47.494z"/>
	<path fill="#E6003C" d="M45.416,28.133c-6.178,0-11.203,5.026-11.203,11.205c0,6.178,5.025,11.203,11.203,11.203
		c6.18,0,11.205-5.025,11.205-11.203C56.621,33.159,51.596,28.133,45.416,28.133z M45.416,47.541c-4.523,0-8.203-3.68-8.203-8.203
		s3.68-8.205,8.203-8.205s8.205,3.682,8.205,8.205S49.939,47.541,45.416,47.541z"/>
</g>
</svg>
