<?xml version="1.0" encoding="utf-8"?>
<!-- Generator: Adobe Illustrator 16.0.0, SVG Export Plug-In . SVG Version: 6.00 Build 0)  -->
<!DOCTYPE svg PUBLIC "-//W3C//DTD SVG 1.1//EN" "http://www.w3.org/Graphics/SVG/1.1/DTD/svg11.dtd">
<svg version="1.1" id="Layer_1" xmlns="http://www.w3.org/2000/svg" xmlns:xlink="http://www.w3.org/1999/xlink" x="0px" y="0px"
	 width="2267.72px" height="2267.72px" viewBox="0 0 2267.72 2267.72" enable-background="new 0 0 2267.72 2267.72"
	 xml:space="preserve">
<g>
	<path fill="#ED1A3B" d="M1125.776,1136.09c-0.298,0-0.596-0.076-0.862-0.23c-0.534-0.309-0.862-0.878-0.862-1.493v-18.669
		c0-0.616,0.329-1.186,0.862-1.493c0.534-0.308,1.191-0.308,1.725,0l16.168,9.333c0.533,0.309,0.861,0.878,0.861,1.494
		c0,0.617-0.328,1.185-0.861,1.494l-16.168,9.334C1126.372,1136.014,1126.074,1136.09,1125.776,1136.09z M1127.501,1118.685v12.694
		l10.993-6.347L1127.501,1118.685z"/>
</g>
</svg>
