<?xml version="1.0" encoding="utf-8"?>
<!-- Generator: Adobe Illustrator 16.0.0, SVG Export Plug-In . SVG Version: 6.00 Build 0)  -->
<!DOCTYPE svg PUBLIC "-//W3C//DTD SVG 1.1//EN" "http://www.w3.org/Graphics/SVG/1.1/DTD/svg11.dtd">
<svg version="1.1" id="Layer_1" xmlns="http://www.w3.org/2000/svg" xmlns:xlink="http://www.w3.org/1999/xlink" x="0px" y="0px"
	 width="28.347px" height="39.093px" viewBox="0 0 28.347 39.093" enable-background="new 0 0 28.347 39.093" xml:space="preserve">
<g>
	<path d="M26.337,15.944c0.754-0.673,1.612-1.431,1.612-2.496c0-1.062-0.858-1.823-1.612-2.494
		c-0.427-0.379-0.914-0.809-1.015-1.128c-0.115-0.349,0.025-1.004,0.15-1.584c0.211-0.964,0.447-2.062-0.155-2.891
		c-0.607-0.836-1.732-0.949-2.723-1.047c-0.582-0.058-1.245-0.125-1.537-0.336c-0.281-0.204-0.542-0.806-0.773-1.339
		c-0.401-0.919-0.858-1.961-1.854-2.283c-0.186-0.06-0.381-0.09-0.582-0.09c-0.759,0-1.482,0.422-2.186,0.831
		c-0.517,0.302-1.109,0.646-1.491,0.646s-0.97-0.344-1.492-0.646c-0.698-0.409-1.423-0.831-2.184-0.831
		c-0.201,0-0.396,0.03-0.58,0.09C8.919,0.67,8.464,1.71,8.062,2.629C7.831,3.162,7.567,3.764,7.286,3.968
		C6.995,4.179,6.335,4.247,5.749,4.304C4.76,4.402,3.638,4.515,3.029,5.352C2.425,6.18,2.663,7.275,2.871,8.242
		c0.126,0.58,0.27,1.235,0.156,1.584c-0.105,0.319-0.591,0.749-1.018,1.128c-0.756,0.67-1.612,1.431-1.612,2.494
		c0,1.065,0.856,1.826,1.612,2.496c0.427,0.379,0.912,0.809,1.018,1.128c0.113,0.349-0.03,1.004-0.156,1.582
		c-0.208,0.967-0.446,2.064,0.158,2.893c0.608,0.836,1.729,0.95,2.718,1.047L1.739,35.513c-0.091,0.286-0.003,0.603,0.223,0.803
		c0.224,0.201,0.548,0.252,0.824,0.131l4.146-1.818l2.391,3.848c0.144,0.227,0.392,0.361,0.655,0.361c0.033,0,0.065,0,0.098-0.005
		c0.302-0.04,0.551-0.246,0.641-0.537l3.455-11.14l3.461,11.14c0.085,0.291,0.336,0.497,0.638,0.537
		c0.03,0.005,0.065,0.005,0.096,0.005c0.266,0,0.512-0.135,0.657-0.361l2.392-3.848l4.144,1.818c0.276,0.121,0.603,0.07,0.823-0.131
		c0.227-0.2,0.316-0.517,0.227-0.803L22.6,22.595c0.99-0.098,2.11-0.211,2.718-1.047c0.603-0.829,0.366-1.926,0.155-2.893
		c-0.125-0.578-0.266-1.233-0.15-1.582C25.423,16.753,25.91,16.324,26.337,15.944L26.337,15.944z M9.742,36.226l-1.851-2.978
		c-0.203-0.326-0.615-0.454-0.964-0.302l-3.215,1.41l3.551-11.44c0.008,0.005,0.016,0.008,0.022,0.013
		c0.281,0.206,0.545,0.809,0.776,1.341c0.401,0.919,0.856,1.958,1.854,2.283c0.184,0.061,0.379,0.091,0.58,0.091
		c0.761,0,1.485-0.422,2.188-0.832c0.115-0.067,0.231-0.135,0.352-0.203L9.742,36.226z M21.42,32.946
		c-0.352-0.152-0.764-0.024-0.965,0.302l-1.854,2.978l-3.295-10.617c0.121,0.068,0.241,0.136,0.356,0.203
		c0.703,0.41,1.427,0.832,2.186,0.832c0.201,0,0.396-0.03,0.582-0.091c0.995-0.324,1.452-1.363,1.854-2.283
		c0.231-0.533,0.492-1.135,0.779-1.341c0.005-0.005,0.015-0.007,0.02-0.013l3.551,11.44L21.42,32.946z M23.851,16.595"/>
	<path fill="#FFFFFF" d="M14.172,20.651c-3.97,0-7.202-3.229-7.202-7.203c0-3.971,3.232-7.2,7.202-7.2
		c3.973,0,7.202,3.229,7.202,7.2C21.374,17.421,18.145,20.651,14.172,20.651L14.172,20.651z M14.172,20.651"/>
	<path d="M14.172,7.373c-3.35,0-6.074,2.725-6.074,6.075c0,0.427,0.344,0.773,0.771,0.773c0.427,0,0.771-0.347,0.771-0.773
		c0-2.499,2.035-4.533,4.532-4.533c0.427,0,0.773-0.344,0.773-0.771C14.945,7.72,14.599,7.373,14.172,7.373L14.172,7.373z
		 M14.172,7.373"/>
</g>
</svg>
