<?xml version="1.0" encoding="utf-8"?>
<!-- Generator: Adobe Illustrator 16.0.2, SVG Export Plug-In . SVG Version: 6.00 Build 0)  -->
<!DOCTYPE svg PUBLIC "-//W3C//DTD SVG 1.1//EN" "http://www.w3.org/Graphics/SVG/1.1/DTD/svg11.dtd">
<svg version="1.1" id="Layer_1" xmlns="http://www.w3.org/2000/svg" xmlns:xlink="http://www.w3.org/1999/xlink" x="0px" y="0px"
	 width="50px" height="50px" viewBox="0 0 50 50" enable-background="new 0 0 50 50" xml:space="preserve">
<g>
	<polygon fill="#E6003C" points="18.595,34.642 35.405,25.001 18.595,15.356 	"/>
	<path fill="#E6003C" d="M24.999,1.575c-12.916,0-23.424,10.508-23.424,23.424c0,12.917,10.508,23.426,23.424,23.426
		c12.917,0,23.426-10.509,23.426-23.426C48.425,12.083,37.916,1.575,24.999,1.575z M24.999,45.425
		c-11.262,0-20.424-9.163-20.424-20.426c0-11.262,9.162-20.424,20.424-20.424c11.263,0,20.426,9.162,20.426,20.424
		C45.425,36.262,36.262,45.425,24.999,45.425z"/>
</g>
</svg>
