<?xml version="1.0" encoding="utf-8"?>
<!-- Generator: Adobe Illustrator 16.0.0, SVG Export Plug-In . SVG Version: 6.00 Build 0)  -->
<!DOCTYPE svg PUBLIC "-//W3C//DTD SVG 1.1//EN" "http://www.w3.org/Graphics/SVG/1.1/DTD/svg11.dtd">
<svg version="1.1" id="Layer_1" xmlns="http://www.w3.org/2000/svg" xmlns:xlink="http://www.w3.org/1999/xlink" x="0px" y="0px"
	 width="2267.72px" height="2267.72px" viewBox="0 0 2267.72 2267.72" enable-background="new 0 0 2267.72 2267.72"
	 xml:space="preserve">
<g>
	<circle fill="none" stroke="#FFFFFF" stroke-width="8" stroke-miterlimit="10" cx="1169.5" cy="1126.897" r="9.621"/>
	<path fill="none" stroke="#FFFFFF" stroke-width="8" stroke-miterlimit="10" d="M1178.996,1131.006l7.005,7.005
		c1.106,1.106,1.106,2.901,0,4.009l-1.378,1.379c-1.107,1.107-2.903,1.107-4.01,0l-7.006-7.004"/>
	<g>
		
			<line fill="none" stroke="#FFFFFF" stroke-width="8" stroke-linecap="round" stroke-linejoin="round" stroke-miterlimit="10" x1="1164.938" y1="1126.897" x2="1174.062" y2="1126.897"/>
		
			<line fill="none" stroke="#FFFFFF" stroke-width="8" stroke-linecap="round" stroke-linejoin="round" stroke-miterlimit="10" x1="1169.5" y1="1131.459" x2="1169.5" y2="1122.336"/>
	</g>
</g>
<circle fill="none" stroke="#00A6EB" stroke-width="3" stroke-miterlimit="10" cx="1169.5" cy="1126.897" r="9.621"/>
<path fill="none" stroke="#00A6EB" stroke-width="3" stroke-miterlimit="10" d="M1178.996,1131.006l7.005,7.005
	c1.106,1.106,1.106,2.901,0,4.009l-1.378,1.379c-1.107,1.107-2.903,1.107-4.01,0l-7.006-7.004"/>
<g>
	
		<line fill="none" stroke="#00A6EB" stroke-width="3" stroke-linecap="round" stroke-linejoin="round" stroke-miterlimit="10" x1="1164.938" y1="1126.897" x2="1174.062" y2="1126.897"/>
</g>
</svg>
